{
.appVersion = "3316";
.formatVersion = 3;
DisplayStrings = (
"/CR",
"(",
"⁽",
"",
"ⁿ",
"Ħ",
"/.notdef x",
"/.notdef H",
"Co/two.dnom HhÓ¹⁄½²/two.dnom  dh⅛",
"//⁄½⅓¼¹məₔ²⅛⅔¾⅜¹/zero.dnom/one.dnom/two.dnom/three.dnom/four.dnom/five.dnom/six.dnom/seven.dnom/eight.dnom/nine.dnom",
"½⅓⅔¼¾⅛⅜⅝⅞m⁰¹m²³⁴⁵⁶⁷⁸⁹",
"/zero.dnom/one.dnom/two.dnom/three.dnom/four.dnom/five.dnom/six.dnom/seven.dnom/eight.dnom/nine.dnom ₀₁₂₃₄₅₆₇₈₉"
);
customParameters = (
{
name = glyphOrder;
value = (
.notdef,
NULL,
CR,
space,
nbspace
);
},
{
name = fsType;
value = (
);
},
{
name = "Use Typo Metrics";
value = 1;
}
);
date = "2024-08-23 01:32:27 +0000";
familyName = "Space Mono";
featurePrefixes = (
{
automatic = 1;
code = "languagesystem DFLT dflt;

languagesystem latn dflt;
languagesystem latn ROM;
languagesystem latn MOL;
languagesystem latn CAT;
";
name = Languagesystems;
}
);
features = (
{
automatic = 1;
code = "feature locl;
feature sups;
feature frac;
feature ordn;
feature subs;
feature sinf;
feature dnom;
feature onum;
feature case;
";
tag = aalt;
},
{
automatic = 1;
code = "lookup ccmp_DFLT_1 {
	@CombiningTopAccents = [acutecomb hookabovecomb];
	lookupflag UseMarkFilteringSet @CombiningTopAccents;
	sub i' @CombiningTopAccents by idotless;
	sub j' @CombiningTopAccents by jdotless;
} ccmp_DFLT_1;

lookup ccmp_latn_1 {
	lookupflag 0;
	sub fi by f i;
	sub fl by f l;
} ccmp_latn_1;

script latn;
lookup ccmp_latn_1;
";
tag = ccmp;
},
{
automatic = 1;
code = "script latn;
language ROM;
lookup locl_latn_0 {
	sub Scedilla by Scommaaccent;
	sub scedilla by scommaaccent;
	sub Tcedilla by Tcommaaccent;
	sub tcedilla by tcommaaccent;
} locl_latn_0;
language MOL;
lookup locl_latn_0;

script latn;
language CAT;
lookup locl_latn_1 {
	sub  l' periodcentered' l by ldot;
	sub  L' periodcentered' L by Ldot;
} locl_latn_1;
";
tag = locl;
},
{
automatic = 1;
code = "sub i by isuperior;
sub n by nsuperior;
sub zero by zerosuperior;
sub one by onesuperior;
sub two by twosuperior;
sub three by threesuperior;

glyphs = (
{
glyphname = .notdef;
lastChange = "2024-08-23 02:05:07 +0000";
layers = (
{
layerId = "F786B9CF-2625-4E74-A523-7F1B392BEC63";
shapes = (
{
closed = 1;
nodes = (
(539,0,l),
(539,700,l),
(73,700,l),
(73,0,l)
);
},
{
closed = 1;
nodes = (
(123,648,l),
(489,648,l),
(489,52,l),
(123,52,l)
);
},
{
closed = 1;
nodes = (
(312,371,l),
(302,371,l),
(230,530,l),
(178,530,l),
(263,347,l),
(263,338,l),
(171,146,l),
(224,146,l),
(302,315,l),
(312,315,l),
(390,146,l),
(443,146,l),
(351,338,l),
(351,347,l),
(436,530,l),
(384,530,l)
);
}
);
width = 612;
}
);
},
{
glyphname = A;
layers = (
{
layerId = "F786B9CF-2625-4E74-A523-7F1B392BEC63";
shapes = (
{
closed = 1;
nodes = (
(507,0,l),
(597,0,l),
(385,700,l),
(227,700,l),
(15,0,l),
(105,0,l),
(156,174,l),
(456,174,l)
);
},
{
closed = 1;
nodes = (
(312,664,l),
(433,252,l),
(179,252,l),
(300,664,l)
);
}
);
width = 612;
}
);
unicode = 65;
},
{
glyphname = Acircumflexhookabove;
lastChange = "2024-08-23 01:43:07 +0000";
layers = (
{
guides = (
{
pos = (0,770);
},
{
pos = (0,858);
},
{
angle = 90;
pos = (388,0);
},
{
angle = 90;
pos = (368,0);
},
{
angle = 90;
pos = (364,0);
},
{
angle = 90;
pos = (448,0);
}
);
layerId = "F786B9CF-2625-4E74-A523-7F1B392BEC63";
shapes = (
{
closed = 1;
nodes = (
(424,858,l),
(404,950,l),
(404,956,l),
(480,956,l),
(484,948,o),
(493,942,o),
(505,942,cs),
(524,942,o),
(540,956,o),
(540,980,cs),
(540,1009,o),
(520,1022,o),
(500,1022,cs),
(471,1022,o),
(456,1002,o),
(452,982,c),
(404,1000,l),
(414,1040,o),
(444,1070,o),
(501,1070,cs),
(553,1070,o),
(594,1034,o),
(594,979,cs),
(594,933,o),
(564,894,o),
(518,894,cs),
(490,894,o),
(472,906,o),
(464,926,c),
(458,926,l),
(473,858,l)
);
},
{
alignment = -1;
ref = A;
},
{
alignment = -1;
pos = (0,204);
ref = circumflex;
}
);
width = 612;
}
);
unicode = 7848;
},
{
glyphname = Ahookabove;
lastChange = "2024-08-23 01:43:07 +0000";
layers = (
{
guides = (
{
pos = (0,774);
},
{
angle = 90;
pos = (306,0);
}
);
layerId = "F786B9CF-2625-4E74-A523-7F1B392BEC63";
shapes = (
{
closed = 1;
nodes = (
(272,750,l),
(252,842,l),
(252,848,l),
(328,848,l),
(332,840,o),
(341,834,o),
(353,834,cs),
(372,834,o),
(388,848,o),
(388,872,cs),
(388,901,o),
(368,914,o),
(348,914,cs),
(319,914,o),
(304,894,o),
(300,874,c),
(252,892,l),
(262,932,o),
(292,962,o),
(349,962,cs),
(401,962,o),
(442,926,o),
(442,871,cs),
(442,825,o),
(412,786,o),
(366,786,cs),
(338,786,o),
(320,798,o),
(312,818,c),
(306,818,l),
(321,750,l)
);
},
{
alignment = -1;
ref = A;
}
);
width = 612;
}
);
unicode = 7842;
},
{
glyphname = Aogonek;
layers = (
{
associatedMasterId = "F786B9CF-2625-4E74-A523-7F1B392BEC63";
layerId = "60B433FB-7962-4D91-9D7B-25075E58E57A";
name = img;
width = 612;
},
{
layerId = "F786B9CF-2625-4E74-A523-7F1B392BEC63";
shapes = (
{
closed = 1;
nodes = (
(507,0,l),
(493,-66,ls),
(491,-76,o),
(490,-83,o),
(490,-90,cs),
(490,-139,o),
(529,-164,o),
(568,-164,cs),
(624,-164,l),
(624,-98,l),
(582,-98,ls),
(568,-98,o),
(559,-90,o),
(559,-76,cs),
(559,-75,o),
(559,-73,o),
(560,-68,cs),
(576,0,l),
(597,0,l),
(385,700,l),
(227,700,l),
(15,0,l),
(105,0,l),
(156,174,l),
(456,174,l)
);
},
{
closed = 1;
nodes = (
(312,664,l),
(433,252,l),
(179,252,l),
(300,664,l)
);
}
);
width = 612;
}
);
unicode = 260;
},
{
glyphname = AE;
layers = (
{
guides = (
{
pos = (0,622);
}
);
layerId = "F786B9CF-2625-4E74-A523-7F1B392BEC63";
shapes = (
{
closed = 1;
nodes = (
(300,0,l),
(546,0,l),
(546,78,l),
(384,78,l),
(384,312,l),
(534,312,l),
(534,390,l),
(384,390,l),
(384,622,l),
(540,622,l),
(540,700,l),
(227,700,l),
(15,0,l),
(105,0,l),
(156,174,l),
(300,174,l)
);
},
{
closed = 1;
nodes = (
(288,622,l),
(300,622,l),
(300,252,l),
(179,252,l)
);
}
);
width = 612;
}
);
unicode = 198;
},
{
glyphname = B;
layers = (
{
guides = (
{
pos = (0,350);
},
{
pos = (0,506);
},
{
pos = (0,195);
}
);
layerId = "F786B9CF-2625-4E74-A523-7F1B392BEC63";
shapes = (
{
closed = 1;
nodes = (
(57,0,l),
(340,0,ls),
(474,0,o),
(547,78,o),
(547,183,cs),
(547,195,ls),
(547,270,o),
(495,327,o),
(429,345,c),
(429,357,l),
(495,375,o),
(547,430,o),
(547,506,cs),
(547,518,ls),
(547,622,o),
(474,700,o),
(340,700,cs),
(57,700,l),
(57,622,l),
(117,622,l),
(117,78,l),
(57,78,l)
);
},
{
closed = 1;
nodes = (
(201,312,l),
(337,312,ls),
(417,312,o),
(467,266,o),
(467,195,cs),
(467,189,ls),
(467,120,o),
(412,78,o),
(334,78,cs),
(201,78,l)
);
},
{
closed = 1;
nodes = (
(201,622,l),
(334,622,ls),
(412,622,o),
(467,580,o),
(467,512,cs),
(467,506,ls),
(467,434,o),
(417,390,o),
(337,390,cs),
(201,390,l)
);
}
);
width = 612;
}
);
unicode = 66;
},
{
glyphname = Bstroke;
lastChange = "2024-08-23 01:43:07 +0000";
layers = (
{
guides = (
{
angle = 90;
pos = (57,0);
}
);
layerId = "F786B9CF-2625-4E74-A523-7F1B392BEC63";
shapes = (
{
closed = 1;
nodes = (
(57,156,l),
(117,156,l),
(117,78,l),
(57,78,l),
(57,0,l),
(340,0,ls),
(474,0,o),
(547,78,o),
(547,183,cs),
(547,195,ls),
(547,270,o),
(495,327,o),
(429,345,c),
(429,357,l),
(495,375,o),
(547,430,o),
(547,506,cs),
(547,518,ls),
(547,622,o),
(474,700,o),
(340,700,cs),
(57,700,l),
(57,622,l),
(117,622,l),
(117,234,l),
(57,234,l)
);
},
{
closed = 1;
nodes = (
(201,622,l),
(334,622,ls),
(412,622,o),
(467,580,o),
(467,512,cs),
(467,506,ls),
(467,434,o),
(417,390,o),
(337,390,cs),
(201,390,l)
);
},
{
closed = 1;
nodes = (
(201,312,l),
(337,312,ls),
(417,312,o),
(467,266,o),
(467,195,cs),
(467,189,ls),
(467,120,o),
(412,78,o),
(334,78,cs),
(201,78,l),
(201,156,l),
(309,156,l),
(309,234,l),
(201,234,l)
);
}
);
width = 612;
}
);
unicode = 579;
},
{
glyphname = C;
layers = (
{
layerId = "F786B9CF-2625-4E74-A523-7F1B392BEC63";
shapes = (
{
closed = 1;
nodes = (
(202,64,o),
(148,142,o),
(148,278,cs),
(148,422,ls),
(148,550,o),
(202,636,o),
(310,636,cs),
(424,636,o),
(470,552,o),
(472,460,c),
(472,448,l),
(556,448,l),
(556,460,l),
(556,602,o),
(470,714,o),
(310,714,cs),
(156,714,o),
(64,608,o),
(64,428,cs),
(64,272,ls),
(64,86,o),
(156,-14,o),
(310,-14,cs),
(470,-14,o),
(556,98,o),
(556,240,cs),
(556,252,l),
(472,252,l),
(472,240,ls),
(472,148,o),
(424,64,o),
(310,64,cs)
);
}
);
width = 612;
}
);
unicode = 67;
},
{
glyphname = Ccedilla;
layers = (
{
associatedMasterId = "F786B9CF-2625-4E74-A523-7F1B392BEC63";
layerId = "60B433FB-7962-4D91-9D7B-25075E58E57A";
name = img;
width = 612;
},
{
guides = (
{
angle = 90;
pos = (310,0);
}
);
layerId = "F786B9CF-2625-4E74-A523-7F1B392BEC63";
shapes = (
{
closed = 1;
nodes = (
(202,64,o),
(148,142,o),
(148,278,cs),
(148,422,ls),
(148,550,o),
(202,636,o),
(310,636,cs),
(424,636,o),
(470,552,o),
(472,460,c),
(472,448,l),
(556,448,l),
(556,460,ls),
(556,602,o),
(470,714,o),
(310,714,cs),
(156,714,o),
(64,608,o),
(64,428,cs),
(64,272,ls),
(64,109,o),
(134,12,o),
(254,-9,c),
(236,-92,l),
(236,-98,l),
(312,-98,l),
(316,-90,o),
(325,-84,o),
(337,-84,cs),
(356,-84,o),
(372,-98,o),
(372,-122,cs),
(372,-151,o),
(352,-164,o),
(332,-164,cs),
(303,-164,o),
(288,-144,o),
(284,-124,c),
(236,-142,l),
(246,-182,o),
(276,-212,o),
(333,-212,cs),
(385,-212,o),
(426,-176,o),
(426,-121,cs),
(426,-75,o),
(396,-36,o),
(350,-36,cs),
(322,-36,o),
(304,-48,o),
(296,-68,c),
(290,-68,l),
(302,-14,l),
(310,-14,ls),
(470,-14,o),
(556,98,o),
(556,240,cs),
(556,252,l),
(472,252,l),
(472,240,ls),
(472,148,o),
(424,64,o),
(310,64,cs)
);
}
);
width = 612;
}
);
unicode = 199;
},
{
glyphname = D;
layers = (
{
layerId = "F786B9CF-2625-4E74-A523-7F1B392BEC63";
shapes = (
{
closed = 1;
nodes = (
(73,622,l),
(133,622,l),
(133,79,l),
(73,79,l),
(73,0,l),
(303,0,ls),
(475,0,o),
(553,80,o),
(553,260,cs),
(553,440,ls),
(553,620,o),
(475,700,o),
(303,700,cs),
(73,700,l)
);
},
{
closed = 1;
nodes = (
(217,78,l),
(217,622,l),
(291,622,ls),
(413,622,o),
(469,580,o),
(469,434,cs),
(469,266,ls),
(469,120,o),
(413,78,o),
(291,78,c)
);
}
);
width = 612;
}
);
unicode = 68;
},
{
glyphname = Eth;
layers = (
{
guides = (
{
pos = (0,350);
}
);
layerId = "F786B9CF-2625-4E74-A523-7F1B392BEC63";
shapes = (
{
closed = 1;
nodes = (
(73,311,l),
(133,311,l),
(133,78,l),
(73,78,l),
(73,0,l),
(303,0,ls),
(475,0,o),
(553,80,o),
(553,260,cs),
(553,440,ls),
(553,620,o),
(475,700,o),
(303,700,cs),
(73,700,l),
(73,622,l),
(133,622,l),
(133,389,l),
(73,389,l)
);
},
{
closed = 1;
nodes = (
(217,78,l),
(217,311,l),
(325,311,l),
(325,389,l),
(217,389,l),
(217,622,l),
(291,622,ls),
(413,622,o),
(469,580,o),
(469,434,cs),
(469,266,ls),
(469,120,o),
(413,78,o),
(291,78,c)
);
}
);
width = 612;
}
);
unicode = 208;
},
{
glyphname = E;
layers = (
{
layerId = "F786B9CF-2625-4E74-A523-7F1B392BEC63";
shapes = (
{
closed = 1;
nodes = (
(94,0,l),
(524,0,l),
(524,78,l),
(178,78,l),
(178,312,l),
(512,312,l),
(512,390,l),
(178,390,l),
(178,622,l),
(518,622,l),
(518,700,l),
(94,700,l)
);
}
);
width = 612;
}
);
unicode = 69;
},
{
glyphname = Ecircumflexhookabove;
lastChange = "2024-08-23 01:43:07 +0000";
layers = (
{
layerId = "F786B9CF-2625-4E74-A523-7F1B392BEC63";
shapes = (
{
closed = 1;
nodes = (
(430,858,l),
(410,950,l),
(410,956,l),
(486,956,l),
(490,948,o),
(499,942,o),
(511,942,cs),
(530,942,o),
(546,956,o),
(546,980,cs),
(546,1009,o),
(526,1022,o),
(506,1022,cs),
(477,1022,o),
(462,1002,o),
(458,982,c),
(410,1000,l),
(420,1040,o),
(450,1070,o),
(507,1070,cs),
(559,1070,o),
(600,1034,o),
(600,979,cs),
(600,933,o),
(570,894,o),
(524,894,cs),
(496,894,o),
(478,906,o),
(470,926,c),
(464,926,l),
(479,858,l)
);
},
{
alignment = -1;
ref = E;
},
{
alignment = -1;
pos = (3,204);
ref = circumflex;
}
);
width = 612;
}
);
unicode = 7874;
},
{
glyphname = Ehookabove;
lastChange = "2024-08-23 01:43:07 +0000";
layers = (
{
guides = (
{
pos = (0,774);
},
{
angle = 90;
pos = (309,0);
}
);
layerId = "F786B9CF-2625-4E74-A523-7F1B392BEC63";
shapes = (
{
closed = 1;
nodes = (
(253,750,l),
(233,842,l),
(233,848,l),
(309,848,l),
(313,840,o),
(322,834,o),
(334,834,cs),
(353,834,o),
(369,848,o),
(369,872,cs),
(369,901,o),
(349,914,o),
(329,914,cs),
(300,914,o),
(285,894,o),
(281,874,c),
(233,892,l),
(243,932,o),
(273,962,o),
(330,962,cs),
(382,962,o),
(423,926,o),
(423,871,cs),
(423,825,o),
(393,786,o),
(347,786,cs),
(319,786,o),
(301,798,o),
(293,818,c),
(287,818,l),
(302,750,l)
);
},
{
alignment = -1;
ref = E;
}
);
width = 612;
}
);
unicode = 7866;
},
{
glyphname = Eogonek;
layers = (
{
associatedMasterId = "F786B9CF-2625-4E74-A523-7F1B392BEC63";
layerId = "60B433FB-7962-4D91-9D7B-25075E58E57A";
name = img;
width = 612;
},
{
guides = (
{
angle = 90;
pos = (309,0);
}
);
layerId = "F786B9CF-2625-4E74-A523-7F1B392BEC63";
shapes = (
{
closed = 1;
nodes = (
(94,0,l),
(455,0,l),
(441,-66,ls),
(439,-76,o),
(438,-83,o),
(438,-90,cs),
(438,-139,o),
(476,-164,o),
(516,-164,cs),
(572,-164,l),
(572,-98,l),
(530,-98,ls),
(516,-98,o),
(507,-90,o),
(507,-76,cs),
(507,-75,o),
(507,-73,o),
(508,-68,cs),
(524,0,l),
(524,78,l),
(178,78,l),
(178,312,l),
(512,312,l),
(512,390,l),
(178,390,l),
(178,622,l),
(518,622,l),
(518,700,l),
(94,700,l)
);
}
);
width = 612;
}
);
unicode = 280;
},
{
glyphname = Schwa;
lastChange = "2024-08-23 01:43:07 +0000";
layers = (
{
guides = (
{
pos = (0,284);
},
{
pos = (0,384);
},
{
pos = (0,470);
},
{
pos = (0,498);
}
);
layerId = "F786B9CF-2625-4E74-A523-7F1B392BEC63";
shapes = (
{
closed = 1;
nodes = (
(60,240,ls),
(60,98,o),
(146,-14,o),
(306,-14,cs),
(460,-14,o),
(552,86,o),
(552,272,cs),
(552,428,ls),
(552,608,o),
(460,714,o),
(306,714,cs),
(146,714,o),
(60,602,o),
(60,460,cs),
(60,448,l),
(144,448,l),
(144,460,l),
(146,552,o),
(192,638,o),
(306,638,cs),
(414,638,o),
(468,550,o),
(468,422,cs),
(468,362,l),
(60,362,l)
);
},
{
closed = 1;
nodes = (
(192,62,o),
(144,148,o),
(144,240,cs),
(144,284,l),
(468,284,l),
(468,278,ls),
(468,142,o),
(414,62,o),
(306,62,cs)
);
}
);
width = 612;
}
);
unicode = 399;
},
{
glyphname = F;
layers = (
{
layerId = "F786B9CF-2625-4E74-A523-7F1B392BEC63";
shapes = (
{
closed = 1;
nodes = (
(95,0,l),
(179,0,l),
(179,312,l),
(519,312,l),
(519,390,l),
(179,390,l),
(179,622,l),
(525,622,l),
(525,700,l),
(95,700,l)
);
}
);
width = 612;
}
);
unicode = 70;
},
{
glyphname = G;
layers = (
{
layerId = "F786B9CF-2625-4E74-A523-7F1B392BEC63";
shapes = (
{
closed = 1;
nodes = (
(239,258,l),
(467,258,l),
(467,246,ls),
(467,132,o),
(406,64,o),
(307,64,cs),
(197,64,o),
(143,142,o),
(143,278,cs),
(143,422,ls),
(143,550,o),
(197,636,o),
(305,636,cs),
(419,636,o),
(467,552,o),
(467,460,cs),
(467,448,l),
(551,448,l),
(551,460,ls),
(551,602,o),
(465,714,o),
(305,714,cs),
(151,714,o),
(59,608,o),
(59,428,cs),
(59,272,ls),
(59,86,o),
(151,-14,o),
(301,-14,cs),
(377,-14,o),
(439,26,o),
(461,84,c),
(473,84,l),
(473,0,l),
(551,0,l),
(551,336,l),
(239,336,l)
);
}
);
width = 612;
}
);
unicode = 71;
},
{
glyphname = H;
layers = (
{
guides = (
{
pos = (0,350);
}
);
layerId = "F786B9CF-2625-4E74-A523-7F1B392BEC63";
shapes = (
{
closed = 1;
nodes = (
(73,0,l),
(157,0,l),
(157,312,l),
(455,312,l),
(455,0,l),
(539,0,l),
(539,700,l),
(455,700,l),
(455,390,l),
(157,390,l),
(157,700,l),
(73,700,l)
);
}
);
width = 612;
}
);
unicode = 72;
},
{
glyphname = Hbar;
layers = (
{
associatedMasterId = "F786B9CF-2625-4E74-A523-7F1B392BEC63";
layerId = "60B433FB-7962-4D91-9D7B-25075E58E57A";
name = img;
width = 612;
},
{
layerId = "F786B9CF-2625-4E74-A523-7F1B392BEC63";
shapes = (
{
closed = 1;
nodes = (
(73,0,l),
(157,0,l),
(157,312,l),
(455,312,l),
(455,0,l),
(539,0,l),
(539,496,l),
(599,496,l),
(599,574,l),
(539,574,l),
(539,700,l),
(455,700,l),
(455,574,l),
(157,574,l),
(157,700,l),
(73,700,l),
(73,574,l),
(13,574,l),
(13,496,l),
(73,496,l)
);
},
{
closed = 1;
nodes = (
(157,390,l),
(157,496,l),
(455,496,l),
(455,390,l)
);
}
);
width = 612;
}
);
unicode = 294;
},
{
glyphname = I;
layers = (
{
layerId = "F786B9CF-2625-4E74-A523-7F1B392BEC63";
shapes = (
{
closed = 1;
nodes = (
(84,622,l),
(264,622,l),
(264,78,l),
(84,78,l),
(84,0,l),
(528,0,l),
(528,78,l),
(348,78,l),
(348,622,l),
(528,622,l),
(528,700,l),
(84,700,l)
);
}
);
width = 612;
}
);
unicode = 73;
},
{
glyphname = IJ;
layers = (
{
layerId = "F786B9CF-2625-4E74-A523-7F1B392BEC63";
shapes = (
{
closed = 1;
nodes = (
(73,342,l),
(157,342,l),
(157,700,l),
(73,700,l)
);
},
{
closed = 1;
nodes = (
(505,622,l),
(565,622,l),
(565,700,l),
(349,700,l),
(349,622,l),
(421,622,l),
(421,210,ls),
(421,122,o),
(388,64,o),
(295,64,cs),
(202,64,o),
(157,122,o),
(157,210,cs),
(157,264,l),
(73,264,l),
(73,210,ls),
(73,66,o),
(159,-14,o),
(295,-14,cs),
(431,-14,o),
(505,66,o),
(505,210,c)
);
}
);
width = 612;
}
);
unicode = 306;
},
{
glyphname = Iogonek;
layers = (
{
associatedMasterId = "F786B9CF-2625-4E74-A523-7F1B392BEC63";
layerId = "60B433FB-7962-4D91-9D7B-25075E58E57A";
name = img;
width = 612;
},
{
guides = (
{
angle = 90;
pos = (306,0);
}
);
layerId = "F786B9CF-2625-4E74-A523-7F1B392BEC63";
shapes = (
{
closed = 1;
nodes = (
(84,622,l),
(264,622,l),
(264,78,l),
(84,78,l),
(84,0,l),
(459,0,l),
(445,-66,ls),
(443,-76,o),
(442,-83,o),
(442,-90,cs),
(442,-139,o),
(480,-164,o),
(520,-164,cs),
(576,-164,l),
(576,-98,l),
(534,-98,ls),
(520,-98,o),
(511,-90,o),
(511,-76,cs),
(511,-75,o),
(511,-73,o),
(512,-68,cs),
(528,0,l),
(528,78,l),
(348,78,l),
(348,622,l),
(528,622,l),
(528,700,l),
(84,700,l)
);
}
);
width = 612;
}
);
unicode = 302;
},
{
glyphname = J;
layers = (
{
layerId = "F786B9CF-2625-4E74-A523-7F1B392BEC63";
shapes = (
{
closed = 1;
nodes = (
(505,622,l),
(565,622,l),
(565,700,l),
(349,700,l),
(349,622,l),
(421,622,l),
(421,210,ls),
(421,122,o),
(388,64,o),
(295,64,cs),
(202,64,o),
(157,122,o),
(157,210,cs),
(157,264,l),
(73,264,l),
(73,210,ls),
(73,66,o),
(159,-14,o),
(295,-14,cs),
(431,-14,o),
(505,66,o),
(505,210,c)
);
}
);
width = 612;
}
);
unicode = 74;
},
{
glyphname = K;
layers = (
{
guides = (
{
pos = (0,356);
},
{
pos = (0,344);
},
{
pos = (0,359);
},
{
pos = (0,341);
},
{
angle = 90;
pos = (185,0);
}
);
layerId = "F786B9CF-2625-4E74-A523-7F1B392BEC63";
shapes = (
{
closed = 1;
nodes = (
(173,312,l),
(196,312,l),
(475,0,l),
(581,0,l),
(581,6,l),
(279,344,l),
(279,356,l),
(569,694,l),
(569,700,l),
(465,700,l),
(196,390,l),
(173,390,l),
(173,700,l),
(89,700,l),
(89,0,l),
(173,0,l)
);
}
);
width = 612;
}
);
unicode = 75;
},
{
glyphname = L;
layers = (
{
layerId = "F786B9CF-2625-4E74-A523-7F1B392BEC63";
shapes = (
{
closed = 1;
nodes = (
(87,0,l),
(537,0,l),
(537,78,l),
(171,78,l),
(171,700,l),
(87,700,l)
);
}
);
width = 612;
}
);
unicode = 76;
},
{
glyphname = Lslash;
layers = (
{
guides = (
{
pos = (0,350);
}
);
layerId = "F786B9CF-2625-4E74-A523-7F1B392BEC63";
shapes = (
{
closed = 1;
nodes = (
(24,311,l),
(59,243,l),
(120,274,l),
(120,0,l),
(552,0,l),
(552,78,l),
(204,78,l),
(204,317,l),
(299,366,l),
(265,433,l),
(204,402,l),
(204,700,l),
(120,700,l),
(120,359,l)
);
}
);
width = 612;
}
);
unicode = 321;
},
{
glyphname = M;
layers = (
{
layerId = "F786B9CF-2625-4E74-A523-7F1B392BEC63";
shapes = (
{
closed = 1;
nodes = (
(46,0,l),
(124,0,l),
(124,664,l),
(136,664,l),
(230,0,l),
(382,0,l),
(476,664,l),
(488,664,l),
(488,0,l),
(566,0,l),
(566,700,l),
(406,700,l),
(312,36,l),
(300,36,l),
(206,700,l),
(46,700,l)
);
}
);
width = 612;
}
);
unicode = 77;
},
{
glyphname = N;
layers = (
{
layerId = "F786B9CF-2625-4E74-A523-7F1B392BEC63";
shapes = (
{
closed = 1;
nodes = (
(241,700,l),
(73,700,l),
(73,0,l),
(157,0,l),
(157,664,l),
(169,664,l),
(371,0,l),
(539,0,l),
(539,700,l),
(455,700,l),
(455,36,l),
(443,36,l)
);
}
);
width = 612;
}
);
unicode = 78;
},
{
glyphname = Eng;
layers = (
{
associatedMasterId = "F786B9CF-2625-4E74-A523-7F1B392BEC63";
layerId = "60B433FB-7962-4D91-9D7B-25075E58E57A";
name = img;
width = 612;
},
{
guides = (
{
angle = 90;
pos = (241,0);
}
);
layerId = "F786B9CF-2625-4E74-A523-7F1B392BEC63";
shapes = (
{
closed = 1;
nodes = (
(241,700,l),
(73,700,l),
(73,0,l),
(157,0,l),
(157,664,l),
(169,664,l),
(371,0,l),
(455,0,l),
(455,-68,ls),
(455,-102,o),
(441,-122,o),
(401,-122,cs),
(241,-122,l),
(241,-200,l),
(419,-200,ls),
(497,-200,o),
(539,-158,o),
(539,-80,cs),
(539,700,l),
(455,700,l),
(455,36,l),
(443,36,l)
);
}
);
width = 612;
}
);
unicode = 330;
},
{
glyphname = O;
layers = (
{
layerId = "F786B9CF-2625-4E74-A523-7F1B392BEC63";
shapes = (
{
closed = 1;
nodes = (
(60,272,ls),
(60,86,o),
(152,-14,o),
(306,-14,cs),
(460,-14,o),
(552,86,o),
(552,272,cs),
(552,428,ls),
(552,608,o),
(460,714,o),
(306,714,cs),
(152,714,o),
(60,608,o),
(60,428,cs)
);
},
{
closed = 1;
nodes = (
(198,64,o),
(144,142,o),
(144,278,cs),
(144,422,ls),
(144,550,o),
(198,636,o),
(306,636,cs),
(414,636,o),
(468,550,o),
(468,422,cs),
(468,278,ls),
(468,142,o),
(414,64,o),
(306,64,cs)
);
}
);
width = 612;
}
);
unicode = 79;
},
{
glyphname = Ohookabove;
lastChange = "2024-08-23 01:43:07 +0000";
layers = (
{
layerId = "F786B9CF-2625-4E74-A523-7F1B392BEC63";
shapes = (
{
closed = 1;
nodes = (
(272,750,l),
(252,842,l),
(252,848,l),
(328,848,l),
(332,840,o),
(341,834,o),
(353,834,cs),
(372,834,o),
(388,848,o),
(388,872,cs),
(388,901,o),
(368,914,o),
(348,914,cs),
(319,914,o),
(304,894,o),
(300,874,c),
(252,892,l),
(262,932,o),
(292,962,o),
(349,962,cs),
(401,962,o),
(442,926,o),
(442,871,cs),
(442,825,o),
(412,786,o),
(366,786,cs),
(338,786,o),
(320,798,o),
(312,818,c),
(306,818,l),
(321,750,l)
);
},
{
alignment = -1;
ref = O;
}
);
width = 612;
}
);
unicode = 7886;
},
{
glyphname = Ohorn;
lastChange = "2024-08-23 01:43:07 +0000";
layers = (
{
layerId = "F786B9CF-2625-4E74-A523-7F1B392BEC63";
shapes = (
{
closed = 1;
nodes = (
(38,218,ls),
(38,64,o),
(114,-14,o),
(242,-14,cs),
(370,-14,o),
(446,64,o),
(446,218,cs),
(446,454,l),
(516,454,ls),
(561,454,o),
(593,487,o),
(593,532,cs),
(593,630,ls),
(593,668,o),
(561,700,o),
(523,700,cs),
(485,700,o),
(453,668,o),
(453,630,cs),
(453,592,o),
(485,560,o),
(522,560,cs),
(528,560,o),
(534,561,o),
(539,563,c),
(539,538,ls),
(539,519,o),
(531,508,o),
(512,508,cs),
(445,508,l),
(435,638,o),
(362,714,o),
(242,714,cs),
(112,714,o),
(38,626,o),
(38,476,cs)
);
},
{
closed = 1;
nodes = (
(160,62,o),
(122,114,o),
(122,224,cs),
(122,476,ls),
(122,578,o),
(158,638,o),
(242,638,cs),
(326,638,o),
(362,578,o),
(362,476,cs),
(362,224,ls),
(362,114,o),
(324,62,o),
(242,62,cs)
);
}
);
width = 612;
}
);
unicode = 416;
},
{
glyphname = Oogonek;
lastChange = "2024-08-23 01:43:07 +0000";
layers = (
{
guides = (
{
angle = 90;
pos = (306,0);
}
);
layerId = "F786B9CF-2625-4E74-A523-7F1B392BEC63";
shapes = (
{
closed = 1;
nodes = (
(60,272,ls),
(60,101,o),
(138,3,o),
(270,-12,c),
(258,-66,ls),
(256,-76,o),
(255,-83,o),
(255,-90,cs),
(255,-139,o),
(294,-164,o),
(333,-164,cs),
(389,-164,l),
(389,-98,l),
(347,-98,ls),
(333,-98,o),
(324,-90,o),
(324,-76,cs),
(324,-75,o),
(324,-73,o),
(325,-68,cs),
(338,-12,l),
(472,0,o),
(552,99,o),
(552,272,cs),
(552,428,ls),
(552,608,o),
(460,714,o),
(306,714,cs),
(152,714,o),
(60,608,o),
(60,428,cs)
);
},
{
closed = 1;
nodes = (
(198,64,o),
(144,142,o),
(144,278,cs),
(144,422,ls),
(144,550,o),
(198,636,o),
(306,636,cs),
(414,636,o),
(468,550,o),
(468,422,cs),
(468,278,ls),
(468,142,o),
(414,64,o),
(306,64,cs)
);
}
);
width = 612;
}
);
unicode = 490;
},
{
glyphname = Oslash;
layers = (
{
guides = (
{
angle = 90;
pos = (306,0);
}
);
layerId = "F786B9CF-2625-4E74-A523-7F1B392BEC63";
shapes = (
{
closed = 1;
nodes = (
(131,-64,l),
(202,-86,l),
(229,-4,l),
(252,-11,o),
(278,-14,o),
(306,-14,cs),
(460,-14,o),
(552,86,o),
(552,272,cs),
(552,428,ls),
(552,541,o),
(515,624,o),
(450,671,c),
(477,752,l),
(407,774,l),
(384,703,l),
(360,710,o),
(334,714,o),
(306,714,cs),
(152,714,o),
(60,608,o),
(60,428,cs),
(60,272,ls),
(60,155,o),
(96,72,o),
(161,27,c)
);
},
{
closed = 1;
nodes = (
(144,422,ls),
(144,550,o),
(198,636,o),
(306,636,cs),
(325,636,o),
(343,633,o),
(359,628,c),
(189,113,l),
(159,150,o),
(144,206,o),
(144,278,c)
);
},
{
closed = 1;
nodes = (
(287,64,o),
(269,66,o),
(254,71,c),
(422,584,l),
(452,546,o),
(468,490,o),
(468,422,cs),
(468,278,ls),
(468,142,o),
(414,64,o),
(306,64,cs)
);
}
);
width = 612;
}
);
unicode = 216;
},
{
glyphname = OE;
layers = (
{
layerId = "F786B9CF-2625-4E74-A523-7F1B392BEC63";
shapes = (
{
closed = 1;
nodes = (
(546,0,l),
(546,78,l),
(384,78,l),
(384,312,l),
(534,312,l),
(534,390,l),
(384,390,l),
(384,622,l),
(540,622,l),
(540,700,l),
(300,700,ls),
(146,700,o),
(54,594,o),
(54,414,cs),
(54,286,ls),
(54,100,o),
(146,0,o),
(300,0,c)
);
},
{
closed = 1;
nodes = (
(300,78,l),
(192,78,o),
(138,156,o),
(138,292,cs),
(138,408,ls),
(138,536,o),
(192,622,o),
(300,622,c)
);
}
);
width = 612;
}
);
unicode = 338;
},
{
glyphname = P;
layers = (
{
layerId = "F786B9CF-2625-4E74-A523-7F1B392BEC63";
shapes = (
{
closed = 1;
nodes = (
(335,288,ls),
(477,288,o),
(549,378,o),
(549,480,cs),
(549,510,ls),
(549,611,o),
(478,700,o),
(335,700,cs),
(85,700,l),
(85,0,l),
(169,0,l),
(169,288,l)
);
},
{
closed = 1;
nodes = (
(169,622,l),
(325,622,ls),
(419,622,o),
(465,574,o),
(465,504,cs),
(465,486,ls),
(465,406,o),
(419,366,o),
(325,366,cs),
(169,366,l)
);
}
);
width = 612;
}
);
unicode = 80;
},
{
glyphname = Thorn;
layers = (
{
layerId = "F786B9CF-2625-4E74-A523-7F1B392BEC63";
shapes = (
{
closed = 1;
nodes = (
(335,150,ls),
(477,150,o),
(549,240,o),
(549,342,cs),
(549,372,ls),
(549,473,o),
(478,562,o),
(335,562,cs),
(169,562,l),
(169,700,l),
(85,700,l),
(85,0,l),
(169,0,l),
(169,150,l)
);
},
{
closed = 1;
nodes = (
(169,484,l),
(325,484,ls),
(419,484,o),
(465,436,o),
(465,366,cs),
(465,348,ls),
(465,268,o),
(419,228,o),
(325,228,cs),
(169,228,l)
);
}
);
width = 612;
}
);
unicode = 222;
},
{
glyphname = Q;
layers = (
{
layerId = "F786B9CF-2625-4E74-A523-7F1B392BEC63";
shapes = (
{
closed = 1;
nodes = (
(60,272,ls),
(60,102,o),
(136,4,o),
(267,-12,c),
(267,-78,ls),
(267,-123,o),
(299,-156,o),
(344,-156,cs),
(456,-156,l),
(456,-84,l),
(372,-84,ls),
(353,-84,o),
(345,-73,o),
(345,-54,cs),
(345,-12,l),
(475,3,o),
(552,102,o),
(552,272,cs),
(552,428,ls),
(552,608,o),
(460,714,o),
(306,714,cs),
(152,714,o),
(60,608,o),
(60,428,cs)
);
},
{
closed = 1;
nodes = (
(198,64,o),
(144,142,o),
(144,278,cs),
(144,422,ls),
(144,550,o),
(198,636,o),
(306,636,cs),
(414,636,o),
(468,550,o),
(468,422,cs),
(468,278,ls),
(468,142,o),
(414,64,o),
(306,64,cs)
);
}
);
width = 612;
}
);
unicode = 81;
},
{
glyphname = R;
layers = (
{
layerId = "F786B9CF-2625-4E74-A523-7F1B392BEC63";
shapes = (
{
closed = 1;
nodes = (
(525,252,ls),
(525,298,o),
(501,324,o),
(461,330,c),
(461,342,l),
(521,370,o),
(549,428,o),
(549,480,cs),
(549,510,ls),
(549,611,o),
(478,700,o),
(335,700,cs),
(85,700,l),
(85,0,l),
(169,0,l),
(169,288,l),
(387,288,ls),
(427,288,o),
(441,268,o),
(441,234,cs),
(441,0,l),
(525,0,l)
);
},
{
closed = 1;
nodes = (
(169,622,l),
(325,622,ls),
(419,622,o),
(465,574,o),
(465,504,cs),
(465,486,ls),
(465,408,o),
(419,366,o),
(325,366,cs),
(169,366,l)
);
}
);
width = 612;
}
);
unicode = 82;
},
{
glyphname = Racute;
layers = (
{
associatedMasterId = "F786B9CF-2625-4E74-A523-7F1B392BEC63";
layerId = "60B433FB-7962-4D91-9D7B-25075E58E57A";
name = img;
width = 612;
},
{
guides = (
{
angle = 90;
pos = (335,0);
},
{
angle = 90;
pos = (325,0);
}
);
layerId = "F786B9CF-2625-4E74-A523-7F1B392BEC63";
shapes = (
{
closed = 1;
nodes = (
(525,252,ls),
(525,298,o),
(501,324,o),
(461,330,c),
(461,342,l),
(521,370,o),
(549,428,o),
(549,480,cs),
(549,510,ls),
(549,611,o),
(478,700,o),
(335,700,cs),
(85,700,l),
(85,0,l),
(169,0,l),
(169,288,l),
(387,288,ls),
(427,288,o),
(441,268,o),
(441,234,cs),
(441,0,l),
(525,0,l)
);
},
{
closed = 1;
nodes = (
(169,622,l),
(325,622,ls),
(419,622,o),
(465,574,o),
(465,504,cs),
(465,486,ls),
(465,408,o),
(419,366,o),
(325,366,cs),
(169,366,l)
);
},
{
alignment = -1;
pos = (22,204);
ref = acute;
}
);
width = 612;
}
);
unicode = 340;
},
{
glyphname = S;
layers = (
{
layerId = "F786B9CF-2625-4E74-A523-7F1B392BEC63";
shapes = (
{
closed = 1;
nodes = (
(471,462,l),
(555,462,l),
(555,504,ls),
(555,617,o),
(464,714,o),
(306,714,cs),
(170,714,o),
(75,637,o),
(75,528,cs),
(75,516,ls),
(75,396,o),
(165,342,o),
(305,322,cs),
(426,305,o),
(477,269,o),
(477,196,cs),
(477,190,ls),
(477,115,o),
(424,64,o),
(320,64,cs),
(201,64,o),
(129,126,o),
(129,248,cs),
(129,272,l),
(45,272,l),
(45,242,ls),
(45,96,o),
(141,-14,o),
(320,-14,cs),
(477,-14,o),
(561,69,o),
(561,190,cs),
(561,202,ls),
(561,308,o),
(493,372,o),
(347,394,cs),
(222,413,o),
(159,442,o),
(159,519,cs),
(159,525,ls),
(159,596,o),
(229,636,o),
(305,636,cs),
(393,636,o),
(471,589,o),
(471,498,cs)
);
}
);
width = 612;
}
);
unicode = 83;
},
{
glyphname = Sacute;
layers = (
{
associatedMasterId = "F786B9CF-2625-4E74-A523-7F1B392BEC63";
layerId = "60B433FB-7962-4D91-9D7B-25075E58E57A";
name = img;
width = 612;
},
{
guides = (
{
angle = 90;
pos = (306,0);
}
);
layerId = "F786B9CF-2625-4E74-A523-7F1B392BEC63";
shapes = (
{
closed = 1;
nodes = (
(471,462,l),
(555,462,l),
(555,504,ls),
(555,617,o),
(464,714,o),
(306,714,cs),
(170,714,o),
(75,637,o),
(75,528,cs),
(75,516,ls),
(75,396,o),
(165,342,o),
(305,322,cs),
(426,305,o),
(477,269,o),
(477,196,cs),
(477,190,ls),
(477,115,o),
(424,64,o),
(320,64,cs),
(201,64,o),
(129,126,o),
(129,248,cs),
(129,272,l),
(45,272,l),
(45,242,ls),
(45,96,o),
(141,-14,o),
(320,-14,cs),
(477,-14,o),
(561,69,o),
(561,190,cs),
(561,202,ls),
(561,308,o),
(493,372,o),
(347,394,cs),
(222,413,o),
(159,442,o),
(159,519,cs),
(159,525,ls),
(159,596,o),
(229,636,o),
(305,636,cs),
(393,636,o),
(471,589,o),
(471,498,cs)
);
},
{
alignment = -1;
pos = (28,204);
ref = acute;
}
);
width = 612;
}
);
unicode = 346;
},
{
glyphname = Scedilla;
layers = (
{
associatedMasterId = "F786B9CF-2625-4E74-A523-7F1B392BEC63";
layerId = "60B433FB-7962-4D91-9D7B-25075E58E57A";
name = img;
width = 612;
},
{
guides = (
{
angle = 90;
pos = (320,0);
}
);
layerId = "F786B9CF-2625-4E74-A523-7F1B392BEC63";
shapes = (
{
closed = 1;
nodes = (
(471,462,l),
(555,462,l),
(555,504,ls),
(555,617,o),
(464,714,o),
(306,714,cs),
(170,714,o),
(75,637,o),
(75,528,cs),
(75,516,ls),
(75,396,o),
(165,342,o),
(305,322,cs),
(426,305,o),
(477,269,o),
(477,196,cs),
(477,190,ls),
(477,115,o),
(424,64,o),
(320,64,cs),
(201,64,o),
(129,126,o),
(129,248,cs),
(129,272,l),
(45,272,l),
(45,242,ls),
(45,112,o),
(121,11,o),
(264,-10,c),
(246,-92,l),
(246,-98,l),
(322,-98,l),
(326,-90,o),
(335,-84,o),
(347,-84,cs),
(366,-84,o),
(382,-98,o),
(382,-122,cs),
(382,-151,o),
(362,-164,o),
(342,-164,cs),
(313,-164,o),
(298,-144,o),
(294,-124,c),
(246,-142,l),
(256,-182,o),
(286,-212,o),
(343,-212,cs),
(395,-212,o),
(436,-176,o),
(436,-121,cs),
(436,-75,o),
(406,-36,o),
(360,-36,cs),
(332,-36,o),
(314,-48,o),
(306,-68,c),
(300,-68,l),
(312,-14,l),
(320,-14,ls),
(477,-14,o),
(561,69,o),
(561,190,cs),
(561,202,ls),
(561,308,o),
(493,372,o),
(347,394,cs),
(222,413,o),
(159,442,o),
(159,519,cs),
(159,525,ls),
(159,596,o),
(229,636,o),
(305,636,cs),
(393,636,o),
(471,589,o),
(471,498,cs)
);
}
);
width = 612;
}
);
unicode = 350;
},
{
glyphname = Germandbls;
lastChange = "2024-08-23 01:43:07 +0000";
layers = (
{
associatedMasterId = "F786B9CF-2625-4E74-A523-7F1B392BEC63";
layerId = "60B433FB-7962-4D91-9D7B-25075E58E57A";
name = img;
width = 612;
},
{
layerId = "F786B9CF-2625-4E74-A523-7F1B392BEC63";
shapes = (
{
closed = 1;
nodes = (
(343,348,ls),
(423,348,o),
(483,300,o),
(483,221,cs),
(483,215,ls),
(483,136,o),
(415,78,o),
(327,78,cs),
(249,78,l),
(249,0,l),
(329,0,ls),
(465,0,o),
(567,94,o),
(567,210,cs),
(567,222,ls),
(567,346,o),
(470,414,o),
(361,414,cs),
(321,414,l),
(321,426,l),
(513,570,l),
(513,700,l),
(297,700,ls),
(178,700,o),
(96,628,o),
(96,496,c),
(36,496,l),
(36,418,l),
(96,418,l),
(96,0,l),
(180,0,l),
(180,496,ls),
(180,582,o),
(230,622,o),
(303,622,cs),
(441,622,l),
(441,610,l),
(249,466,l),
(249,348,l)
);
}
);
width = 612;
}
);
unicode = 7838;
},
{
glyphname = T;
layers = (
{
layerId = "F786B9CF-2625-4E74-A523-7F1B392BEC63";
shapes = (
{
closed = 1;
nodes = (
(60,622,l),
(264,622,l),
(264,0,l),
(348,0,l),
(348,622,l),
(552,622,l),
(552,700,l),
(60,700,l)
);
}
);
width = 612;
}
);
unicode = 84;
},
{
glyphname = Tbar;
layers = (
{
associatedMasterId = "F786B9CF-2625-4E74-A523-7F1B392BEC63";
layerId = "60B433FB-7962-4D91-9D7B-25075E58E57A";
name = img;
width = 612;
},
{
guides = (
{
pos = (0,350);
}
);
layerId = "F786B9CF-2625-4E74-A523-7F1B392BEC63";
shapes = (
{
closed = 1;
nodes = (
(60,622,l),
(264,622,l),
(264,428,l),
(108,428,l),
(108,350,l),
(264,350,l),
(264,0,l),
(348,0,l),
(348,350,l),
(504,350,l),
(504,428,l),
(348,428,l),
(348,622,l),
(552,622,l),
(552,700,l),
(60,700,l)
);
}
);
width = 612;
}
);
unicode = 358;
},
{
glyphname = Tcedilla;
lastChange = "2024-08-23 01:43:07 +0000";
layers = (
{
associatedMasterId = "F786B9CF-2625-4E74-A523-7F1B392BEC63";
layerId = "60B433FB-7962-4D91-9D7B-25075E58E57A";
name = img;
width = 612;
},
{
layerId = "F786B9CF-2625-4E74-A523-7F1B392BEC63";
shapes = (
{
closed = 1;
nodes = (
(282,0,l),
(262,-92,l),
(262,-98,l),
(338,-98,l),
(342,-90,o),
(351,-84,o),
(363,-84,cs),
(382,-84,o),
(398,-98,o),
(398,-122,cs),
(398,-151,o),
(378,-164,o),
(358,-164,cs),
(329,-164,o),
(314,-144,o),
(310,-124,c),
(262,-142,l),
(272,-182,o),
(302,-212,o),
(359,-212,cs),
(411,-212,o),
(452,-176,o),
(452,-121,cs),
(452,-75,o),
(422,-36,o),
(376,-36,cs),
(348,-36,o),
(330,-48,o),
(322,-68,c),
(316,-68,l),
(331,0,l),
(348,0,l),
(348,622,l),
(552,622,l),
(552,700,l),
(60,700,l),
(60,622,l),
(264,622,l),
(264,0,l)
);
}
);
width = 612;
}
);
unicode = 354;
},
{
glyphname = U;
layers = (
{
layerId = "F786B9CF-2625-4E74-A523-7F1B392BEC63";
shapes = (
{
closed = 1;
nodes = (
(66,700,l),
(66,236,ls),
(66,74,o),
(158,-14,o),
(306,-14,cs),
(454,-14,o),
(546,74,o),
(546,236,cs),
(546,700,l),
(462,700,l),
(462,236,ls),
(462,124,o),
(408,64,o),
(306,64,cs),
(204,64,o),
(150,124,o),
(150,236,cs),
(150,700,l)
);
}
);
width = 612;
}
);
unicode = 85;
},
{
glyphname = Udieresismacron;
lastChange = "2024-08-23 01:43:07 +0000";
layers = (
{
guides = (
{
angle = 90;
pos = (306,0);
},
{
angle = 90;
pos = (136,0);
},
{
angle = 90;
pos = (476,0);
}
);
layerId = "F786B9CF-2625-4E74-A523-7F1B392BEC63";
shapes = (
{
closed = 1;
nodes = (
(476,966,l),
(136,966,l),
(136,900,l),
(476,900,l)
);
},
{
alignment = -1;
ref = U;
},
{
alignment = -1;
pos = (0,156);
ref = dieresis;
}
);
width = 612;
}
);
unicode = 469;
},
{
glyphname = Uhookabove;
lastChange = "2024-08-23 01:43:07 +0000";
layers = (
{
guides = (
{
angle = 90;
pos = (306,0);
}
);
layerId = "F786B9CF-2625-4E74-A523-7F1B392BEC63";
shapes = (
{
closed = 1;
nodes = (
(266,750,l),
(246,842,l),
(246,848,l),
(322,848,l),
(326,840,o),
(335,834,o),
(347,834,cs),
(366,834,o),
(382,848,o),
(382,872,cs),
(382,901,o),
(362,914,o),
(342,914,cs),
(313,914,o),
(298,894,o),
(294,874,c),
(246,892,l),
(256,932,o),
(286,962,o),
(343,962,cs),
(395,962,o),
(436,926,o),
(436,871,cs),
(436,825,o),
(406,786,o),
(360,786,cs),
(332,786,o),
(314,798,o),
(306,818,c),
(300,818,l),
(315,750,l)
);
},
{
alignment = -1;
ref = U;
}
);
width = 612;
}
);
unicode = 7910;
},
{
glyphname = Uhorn;
lastChange = "2024-08-23 01:43:07 +0000";
layers = (
{
layerId = "F786B9CF-2625-4E74-A523-7F1B392BEC63";
shapes = (
{
closed = 1;
nodes = (
(40,700,l),
(40,202,ls),
(40,56,o),
(112,-14,o),
(238,-14,cs),
(364,-14,o),
(436,56,o),
(436,202,cs),
(436,454,l),
(535,454,ls),
(580,454,o),
(612,487,o),
(612,532,cs),
(612,630,ls),
(612,668,o),
(580,700,o),
(542,700,cs),
(504,700,o),
(472,668,o),
(472,630,cs),
(472,592,o),
(504,560,o),
(541,560,cs),
(547,560,o),
(553,561,o),
(558,563,c),
(558,538,ls),
(558,519,o),
(550,508,o),
(531,508,cs),
(436,508,l),
(436,700,l),
(352,700,l),
(352,206,ls),
(352,104,o),
(312,62,o),
(238,62,cs),
(164,62,o),
(124,104,o),
(124,206,cs),
(124,700,l)
);
}
);
width = 612;
}
);
unicode = 431;
},
{
glyphname = Uhornhookabove;
lastChange = "2024-08-23 01:43:07 +0000";
layers = (
{
guides = (
{
angle = 90;
pos = (238,0);
}
);
layerId = "F786B9CF-2625-4E74-A523-7F1B392BEC63";
shapes = (
{
closed = 1;
nodes = (
(210,750,l),
(190,842,l),
(190,848,l),
(266,848,l),
(270,840,o),
(279,834,o),
(291,834,cs),
(310,834,o),
(326,848,o),
(326,872,cs),
(326,901,o),
(306,914,o),
(286,914,cs),
(257,914,o),
(242,894,o),
(238,874,c),
(190,892,l),
(200,932,o),
(230,962,o),
(287,962,cs),
(339,962,o),
(380,926,o),
(380,871,cs),
(380,825,o),
(350,786,o),
(304,786,cs),
(276,786,o),
(258,798,o),
(250,818,c),
(244,818,l),
(259,750,l)
);
},
{
alignment = -1;
ref = Uhorn;
}
);
width = 612;
}
);
unicode = 7916;
},
{
glyphname = Uogonek;
layers = (
{
associatedMasterId = "F786B9CF-2625-4E74-A523-7F1B392BEC63";
layerId = "60B433FB-7962-4D91-9D7B-25075E58E57A";
name = img;
width = 612;
},
{
guides = (
{
angle = 90;
pos = (306,0);
}
);
layerId = "F786B9CF-2625-4E74-A523-7F1B392BEC63";
shapes = (
{
closed = 1;
nodes = (
(66,700,l),
(66,236,ls),
(66,87,o),
(143,1,o),
(270,-12,c),
(258,-66,ls),
(256,-76,o),
(255,-83,o),
(255,-90,cs),
(255,-139,o),
(294,-164,o),
(333,-164,cs),
(389,-164,l),
(389,-98,l),
(347,-98,ls),
(333,-98,o),
(324,-90,o),
(324,-76,cs),
(324,-75,o),
(324,-73,o),
(325,-68,cs),
(338,-12,l),
(467,0,o),
(546,86,o),
(546,236,cs),
(546,700,l),
(462,700,l),
(462,236,ls),
(462,124,o),
(408,64,o),
(306,64,cs),
(204,64,o),
(150,124,o),
(150,236,cs),
(150,700,l)
);
}
);
width = 612;
}
);
unicode = 370;
},
{
glyphname = V;
layers = (
{
layerId = "F786B9CF-2625-4E74-A523-7F1B392BEC63";
shapes = (
{
closed = 1;
nodes = (
(225,0,l),
(387,0,l),
(585,700,l),
(495,700,l),
(312,36,l),
(300,36,l),
(117,700,l),
(27,700,l)
);
}
);
width = 612;
}
);
unicode = 86;
},
{
glyphname = W;
layers = (
{
layerId = "F786B9CF-2625-4E74-A523-7F1B392BEC63";
shapes = (
{
closed = 1;
nodes = (
(601,700,l),
(525,700,l),
(458,36,l),
(446,36,l),
(383,700,l),
(229,700,l),
(166,36,l),
(154,36,l),
(87,700,l),
(11,700,l),
(82,0,l),
(235,0,l),
(300,664,l),
(312,664,l),
(377,0,l),
(530,0,l)
);
}
);
width = 612;
}
);
unicode = 87;
},
{
glyphname = X;
layers = (
{
guides = (
{
pos = (0,390);
},
{
pos = (0,312);
},
{
pos = (0,351);
}
);
layerId = "F786B9CF-2625-4E74-A523-7F1B392BEC63";
shapes = (
{
closed = 1;
nodes = (
(48,700,l),
(223,357,l),
(223,345,l),
(48,0,l),
(140,0,l),
(297,312,l),
(315,312,l),
(472,0,l),
(564,0,l),
(389,345,l),
(389,357,l),
(564,700,l),
(472,700,l),
(315,390,l),
(297,390,l),
(140,700,l)
);
}
);
width = 612;
}
);
unicode = 88;
},
{
glyphname = Y;
layers = (
{
guides = (
{
pos = (0,246);
}
);
layerId = "F786B9CF-2625-4E74-A523-7F1B392BEC63";
shapes = (
{
closed = 1;
nodes = (
(264,0,l),
(348,0,l),
(348,246,l),
(366,246,l),
(585,700,l),
(491,700,l),
(312,318,l),
(300,318,l),
(121,700,l),
(27,700,l),
(246,246,l),
(264,246,l)
);
}
);
width = 612;
}
);
unicode = 89;
},
{
glyphname = Yhookabove;
lastChange = "2024-08-23 01:43:07 +0000";
layers = (
{
guides = (
{
angle = 90;
pos = (306,0);
}
);
layerId = "F786B9CF-2625-4E74-A523-7F1B392BEC63";
shapes = (
{
closed = 1;
nodes = (
(278,750,l),
(258,842,l),
(258,848,l),
(334,848,l),
(338,840,o),
(347,834,o),
(359,834,cs),
(378,834,o),
(394,848,o),
(394,872,cs),
(394,901,o),
(374,914,o),
(354,914,cs),
(325,914,o),
(310,894,o),
(306,874,c),
(258,892,l),
(268,932,o),
(298,962,o),
(355,962,cs),
(407,962,o),
(448,926,o),
(448,871,cs),
(448,825,o),
(418,786,o),
(372,786,cs),
(344,786,o),
(326,798,o),
(318,818,c),
(312,818,l),
(327,750,l)
);
},
{
alignment = -1;
ref = Y;
}
);
width = 612;
}
);
unicode = 7926;
},
{
glyphname = Z;
layers = (
{
layerId = "F786B9CF-2625-4E74-A523-7F1B392BEC63";
shapes = (
{
closed = 1;
nodes = (
(77,622,l),
(473,622,l),
(473,610,l),
(53,126,l),
(53,0,l),
(557,0,l),
(557,78,l),
(125,78,l),
(125,90,l),
(545,574,l),
(545,700,l),
(77,700,l)
);
}
);
width = 612;
}
);
unicode = 90;
},
{
glyphname = B.alt;
layers = (
{
layerId = "F786B9CF-2625-4E74-A523-7F1B392BEC63";
shapes = (
{
closed = 1;
nodes = (
(90,0,l),
(325,0,ls),
(459,0,o),
(532,78,o),
(532,183,cs),
(532,195,ls),
(532,270,o),
(480,327,o),
(414,345,c),
(414,357,l),
(480,375,o),
(532,430,o),
(532,506,cs),
(532,518,ls),
(532,622,o),
(459,700,o),
(325,700,cs),
(90,700,l)
);
},
{
closed = 1;
nodes = (
(174,312,l),
(322,312,ls),
(402,312,o),
(452,266,o),
(452,195,cs),
(452,189,ls),
(452,120,o),
(397,78,o),
(319,78,cs),
(174,78,l)
);
},
{
closed = 1;
nodes = (
(174,622,l),
(319,622,ls),
(397,622,o),
(452,580,o),
(452,512,cs),
(452,506,ls),
(452,434,o),
(402,390,o),
(322,390,cs),
(174,390,l)
);
}
);
width = 612;
}
);
},
{
glyphname = Bstroke.alt;
lastChange = "2024-08-23 01:43:07 +0000";
layers = (
{
layerId = "F786B9CF-2625-4E74-A523-7F1B392BEC63";
shapes = (
{
closed = 1;
nodes = (
(96,0,l),
(331,0,ls),
(465,0,o),
(538,78,o),
(538,183,cs),
(538,195,ls),
(538,270,o),
(486,327,o),
(420,345,c),
(420,357,l),
(486,375,o),
(538,430,o),
(538,506,cs),
(538,518,ls),
(538,622,o),
(465,700,o),
(331,700,cs),
(96,700,l),
(96,234,l),
(36,234,l),
(36,156,l),
(96,156,l)
);
},
{
closed = 1;
nodes = (
(180,622,l),
(325,622,ls),
(403,622,o),
(458,580,o),
(458,512,cs),
(458,506,ls),
(458,434,o),
(408,390,o),
(328,390,cs),
(180,390,l)
);
},
{
closed = 1;
nodes = (
(180,312,l),
(328,312,ls),
(408,312,o),
(458,266,o),
(458,195,cs),
(458,189,ls),
(458,120,o),
(403,78,o),
(325,78,cs),
(180,78,l),
(180,156,l),
(288,156,l),
(288,234,l),
(180,234,l)
);
}
);
width = 612;
}
);
},
{
glyphname = D.alt;
layers = (
{
layerId = "F786B9CF-2625-4E74-A523-7F1B392BEC63";
shapes = (
{
closed = 1;
nodes = (
(98,0,l),
(280,0,ls),
(452,0,o),
(530,80,o),
(530,260,cs),
(530,440,ls),
(530,620,o),
(452,700,o),
(280,700,cs),
(98,700,l)
);
},
{
closed = 1;
nodes = (
(182,78,l),
(182,622,l),
(268,622,ls),
(390,622,o),
(446,580,o),
(446,434,cs),
(446,266,ls),
(446,120,o),
(390,78,o),
(268,78,c)
);
}
);
width = 612;
}
);
},
{
glyphname = Dcroat.alt;
layers = (
{
layerId = "F786B9CF-2625-4E74-A523-7F1B392BEC63";
shapes = (
{
closed = 1;
nodes = (
(48,311,l),
(108,311,l),
(108,0,l),
(290,0,ls),
(462,0,o),
(540,80,o),
(540,260,cs),
(540,440,ls),
(540,620,o),
(462,700,o),
(290,700,cs),
(108,700,l),
(108,389,l),
(48,389,l)
);
},
{
closed = 1;
nodes = (
(192,78,l),
(192,311,l),
(300,311,l),
(300,389,l),
(192,389,l),
(192,622,l),
(278,622,ls),
(400,622,o),
(456,580,o),
(456,434,cs),
(456,266,ls),
(456,120,o),
(400,78,o),
(278,78,c)
);
}
);
width = 612;
}
);
},
{
glyphname = Eth.alt;
layers = (
{
layerId = "F786B9CF-2625-4E74-A523-7F1B392BEC63";
shapes = (
{
closed = 1;
nodes = (
(48,311,l),
(108,311,l),
(108,0,l),
(290,0,ls),
(462,0,o),
(540,80,o),
(540,260,cs),
(540,440,ls),
(540,620,o),
(462,700,o),
(290,700,cs),
(108,700,l),
(108,389,l),
(48,389,l)
);
},
{
closed = 1;
nodes = (
(192,78,l),
(192,311,l),
(300,311,l),
(300,389,l),
(192,389,l),
(192,622,l),
(278,622,ls),
(400,622,o),
(456,580,o),
(456,434,cs),
(456,266,ls),
(456,120,o),
(400,78,o),
(278,78,c)
);
}
);
width = 612;
}
);
},
{
glyphname = IJ.alt;
layers = (
{
layerId = "F786B9CF-2625-4E74-A523-7F1B392BEC63";
shapes = (
{
closed = 1;
nodes = (
(90,342,l),
(174,342,l),
(174,700,l),
(90,700,l)
);
},
{
closed = 1;
nodes = (
(522,700,l),
(438,700,l),
(438,210,ls),
(438,122,o),
(405,64,o),
(312,64,cs),
(219,64,o),
(174,122,o),
(174,210,cs),
(174,264,l),
(90,264,l),
(90,210,ls),
(90,66,o),
(176,-14,o),
(312,-14,cs),
(448,-14,o),
(522,66,o),
(522,210,c)
);
}
);
width = 612;
}
);
},
{
glyphname = J.alt;
layers = (
{
layerId = "F786B9CF-2625-4E74-A523-7F1B392BEC63";
shapes = (
{
closed = 1;
nodes = (
(514,700,l),
(430,700,l),
(430,210,ls),
(430,122,o),
(397,62,o),
(304,62,cs),
(211,62,o),
(166,122,o),
(166,210,cs),
(166,264,l),
(82,264,l),
(82,210,ls),
(82,66,o),
(168,-14,o),
(304,-14,cs),
(440,-14,o),
(514,66,o),
(514,210,c)
);
}
);
width = 612;
}
);
},
{
glyphname = a;
layers = (
{
layerId = "F786B9CF-2625-4E74-A523-7F1B392BEC63";
shapes = (
{
closed = 1;
nodes = (
(447,78,ls),
(447,33,o),
(479,0,o),
(524,0,cs),
(577,0,l),
(577,72,l),
(552,72,ls),
(533,72,o),
(525,83,o),
(525,102,cs),
(525,496,l),
(447,496,l),
(447,418,l),
(435,418,l),
(403,480,o),
(345,510,o),
(277,510,cs),
(151,510,o),
(47,418,o),
(47,256,cs),
(47,240,ls),
(47,76,o),
(149,-14,o),
(279,-14,cs),
(341,-14,o),
(403,18,o),
(435,84,c),
(447,84,l)
);
},
{
closed = 1;
nodes = (
(193,60,o),
(127,128,o),
(127,240,cs),
(127,256,ls),
(127,364,o),
(195,436,o),
(287,436,cs),
(379,436,o),
(447,360,o),
(447,254,cs),
(447,242,ls),
(447,132,o),
(380,60,o),
(287,60,cs)
);
}
);
width = 612;
}
);
unicode = 97;
},
{
glyphname = abrevehookabove;
lastChange = "2024-08-23 01:43:07 +0000";
layers = (
{
guides = (
{
angle = 90;
pos = (277,0);
},
{
angle = 90;
pos = (238,0);
},
{
angle = 90;
pos = (316,0);
}
);
layerId = "F786B9CF-2625-4E74-A523-7F1B392BEC63";
shapes = (
{
closed = 1;
nodes = (
(252,718,l),
(232,810,l),
(232,816,l),
(308,816,l),
(312,808,o),
(321,802,o),
(333,802,cs),
(352,802,o),
(368,816,o),
(368,840,cs),
(368,869,o),
(348,882,o),
(328,882,cs),
(299,882,o),
(284,862,o),
(280,842,c),
(232,860,l),
(242,900,o),
(272,930,o),
(329,930,cs),
(381,930,o),
(422,894,o),
(422,839,cs),
(422,793,o),
(392,754,o),
(346,754,cs),
(318,754,o),
(300,766,o),
(292,786,c),
(286,786,l),
(301,718,l)
);
},
{
alignment = -1;
ref = a;
},
{
alignment = -1;
pos = (-29,0);
ref = breve;
}
);
width = 612;
}
);
unicode = 7859;
},
{
glyphname = acircumflexhookabove;
lastChange = "2024-08-23 01:43:07 +0000";
layers = (
{
guides = (
{
pos = (0,658);
},
{
angle = 90;
pos = (277,0);
}
);
layerId = "F786B9CF-2625-4E74-A523-7F1B392BEC63";
shapes = (
{
closed = 1;
nodes = (
(396,658,l),
(376,750,l),
(376,756,l),
(452,756,l),
(456,748,o),
(465,742,o),
(477,742,cs),
(496,742,o),
(512,756,o),
(512,780,cs),
(512,809,o),
(492,822,o),
(472,822,cs),
(443,822,o),
(428,802,o),
(424,782,c),
(376,800,l),
(386,840,o),
(416,870,o),
(473,870,cs),
(525,870,o),
(566,834,o),
(566,779,cs),
(566,733,o),
(536,694,o),
(490,694,cs),
(462,694,o),
(444,706,o),
(436,726,c),
(430,726,l),
(445,658,l)
);
},
{
alignment = -1;
ref = a;
},
{
alignment = -1;
pos = (-29,0);
ref = circumflex;
}
);
width = 612;
}
);
unicode = 7849;
},
{
glyphname = ahookabove;
lastChange = "2024-08-23 01:43:07 +0000";
layers = (
{
guides = (
{
pos = (0,570);
},
{
pos = (0,546);
},
{
angle = 90;
pos = (277,0);
}
);
layerId = "F786B9CF-2625-4E74-A523-7F1B392BEC63";
shapes = (
{
closed = 1;
nodes = (
(243,546,l),
(223,638,l),
(223,644,l),
(299,644,l),
(303,636,o),
(312,630,o),
(324,630,cs),
(343,630,o),
(359,644,o),
(359,668,cs),
(359,697,o),
(339,710,o),
(319,710,cs),
(290,710,o),
(275,690,o),
(271,670,c),
(223,688,l),
(233,728,o),
(263,758,o),
(320,758,cs),
(372,758,o),
(413,722,o),
(413,667,cs),
(413,621,o),
(383,582,o),
(337,582,cs),
(309,582,o),
(291,594,o),
(283,614,c),
(277,614,l),
(292,546,l)
);
},
{
alignment = -1;
ref = a;
}
);
width = 612;
}
);
unicode = 7843;
},
{
glyphname = aogonek;
layers = (
{
guides = (
{
angle = 90;
pos = (577,0);
}
);
layerId = "F786B9CF-2625-4E74-A523-7F1B392BEC63";
shapes = (
{
closed = 1;
nodes = (
(447,78,ls),
(447,57,o),
(454,38,o),
(466,25,c),
(446,-66,ls),
(444,-76,o),
(443,-83,o),
(443,-90,cs),
(443,-139,o),
(482,-164,o),
(521,-164,cs),
(577,-164,l),
(577,-98,l),
(535,-98,ls),
(521,-98,o),
(512,-90,o),
(512,-76,cs),
(512,-75,o),
(512,-73,o),
(513,-68,cs),
(529,0,l),
(577,0,l),
(577,72,l),
(552,72,ls),
(533,72,o),
(525,83,o),
(525,102,cs),
(525,496,l),
(447,496,l),
(447,418,l),
(435,418,l),
(403,480,o),
(345,510,o),
(277,510,cs),
(151,510,o),
(47,418,o),
(47,256,cs),
(47,240,ls),
(47,76,o),
(149,-14,o),
(279,-14,cs),
(341,-14,o),
(403,18,o),
(435,84,c),
(447,84,l)
);
},
{
closed = 1;
nodes = (
(193,60,o),
(127,128,o),
(127,240,cs),
(127,256,ls),
(127,364,o),
(195,436,o),
(287,436,cs),
(379,436,o),
(447,360,o),
(447,254,cs),
(447,242,ls),
(447,132,o),
(380,60,o),
(287,60,cs)
);
}
);
width = 612;
}
);
unicode = 261;
},
{
glyphname = ae;
layers = (
{
layerId = "F786B9CF-2625-4E74-A523-7F1B392BEC63";
shapes = (
{
closed = 1;
nodes = (
(283,510,ls),
(165,510,o),
(99,435,o),
(84,348,c),
(158,330,l),
(168,393,o),
(205,430,o),
(263,437,c),
(263,296,l),
(248,296,ls),
(148,296,o),
(72,240,o),
(72,146,cs),
(72,134,ls),
(72,52,o),
(136,-14,o),
(246,-14,cs),
(306,-14,ls),
(432,-14,o),
(506,50,o),
(534,142,c),
(460,162,l),
(444,113,o),
(411,72,o),
(341,62,c),
(341,224,l),
(540,224,l),
(540,288,ls),
(540,376,o),
(469,510,o),
(306,510,cs)
);
},
{
closed = 1;
nodes = (
(149,198,o),
(190,224,o),
(257,224,cs),
(263,224,l),
(263,58,l),
(253,58,ls),
(187,58,o),
(149,91,o),
(149,140,cs)
);
},
{
closed = 1;
nodes = (
(341,296,l),
(341,432,l),
(405,419,o),
(458,369,o),
(462,296,c)
);
}
);
width = 612;
}
);
unicode = 230;
},
{
glyphname = b;
layers = (
{
layerId = "F786B9CF-2625-4E74-A523-7F1B392BEC63";
shapes = (
{
closed = 1;
nodes = (
(147,76,l),
(159,76,l),
(193,16,o),
(265,-14,o),
(329,-14,cs),
(455,-14,o),
(559,76,o),
(559,238,cs),
(559,258,ls),
(559,418,o),
(453,510,o),
(331,510,cs),
(259,510,o),
(193,478,o),
(159,418,c),
(147,418,l),
(147,700,l),
(69,700,l),
(69,0,l),
(147,0,l)
);
},
{
closed = 1;
nodes = (
(220,60,o),
(147,132,o),
(147,242,cs),
(147,254,ls),
(147,360,o),
(221,436,o),
(313,436,cs),
(407,436,o),
(479,364,o),
(479,258,cs),
(479,238,ls),
(479,128,o),
(408,60,o),
(313,60,cs)
);
}
);
width = 612;
}
);
unicode = 98;
},
{
glyphname = bstroke;
lastChange = "2024-08-23 01:43:07 +0000";
layers = (
{
layerId = "F786B9CF-2625-4E74-A523-7F1B392BEC63";
shapes = (
{
closed = 1;
nodes = (
(9,562,l),
(69,562,l),
(69,0,l),
(147,0,l),
(147,76,l),
(159,76,l),
(193,16,o),
(265,-14,o),
(329,-14,cs),
(455,-14,o),
(559,76,o),
(559,238,cs),
(559,258,ls),
(559,418,o),
(453,510,o),
(331,510,cs),
(259,510,o),
(193,478,o),
(159,418,c),
(147,418,l),
(147,562,l),
(325,562,l),
(325,634,l),
(147,634,l),
(147,700,l),
(69,700,l),
(69,634,l),
(9,634,l)
);
},
{
closed = 1;
nodes = (
(220,60,o),
(147,132,o),
(147,242,cs),
(147,254,ls),
(147,360,o),
(221,436,o),
(313,436,cs),
(407,436,o),
(479,364,o),
(479,258,cs),
(479,238,ls),
(479,128,o),
(408,60,o),
(313,60,cs)
);
}
);
width = 612;
}
);
unicode = 384;
},
{
glyphname = c;
layers = (
{
layerId = "F786B9CF-2625-4E74-A523-7F1B392BEC63";
shapes = (
{
closed = 1;
nodes = (
(473,194,l),
(463,126,o),
(413,60,o),
(315,60,cs),
(217,60,o),
(139,128,o),
(139,240,cs),
(139,252,ls),
(139,360,o),
(217,436,o),
(313,436,cs),
(411,436,o),
(463,372,o),
(471,302,c),
(549,320,l),
(531,430,o),
(441,510,o),
(315,510,cs),
(177,510,o),
(59,412,o),
(59,252,cs),
(59,240,ls),
(59,78,o),
(177,-14,o),
(315,-14,cs),
(445,-14,o),
(531,66,o),
(551,176,c)
);
}
);
width = 612;
}
);
unicode = 99;
},
{
glyphname = ccedilla;
layers = (
{
associatedMasterId = "F786B9CF-2625-4E74-A523-7F1B392BEC63";
layerId = "60B433FB-7962-4D91-9D7B-25075E58E57A";
name = img;
width = 612;
},
{
guides = (
{
angle = 90;
pos = (315,0);
}
);
layerId = "F786B9CF-2625-4E74-A523-7F1B392BEC63";
shapes = (
{
closed = 1;
nodes = (
(473,194,l),
(463,126,o),
(413,60,o),
(315,60,cs),
(217,60,o),
(139,128,o),
(139,240,cs),
(139,252,ls),
(139,360,o),
(217,436,o),
(313,436,cs),
(411,436,o),
(463,372,o),
(471,302,c),
(549,320,l),
(531,430,o),
(441,510,o),
(315,510,cs),
(177,510,o),
(59,412,o),
(59,252,cs),
(59,240,ls),
(59,100,o),
(146,12,o),
(259,-9,c),
(241,-92,l),
(241,-98,l),
(317,-98,l),
(321,-90,o),
(330,-84,o),
(342,-84,cs),
(361,-84,o),
(377,-98,o),
(377,-122,cs),
(377,-151,o),
(357,-164,o),
(337,-164,cs),
(308,-164,o),
(293,-144,o),
(289,-124,c),
(241,-142,l),
(251,-182,o),
(281,-212,o),
(338,-212,cs),
(390,-212,o),
(431,-176,o),
(431,-121,cs),
(431,-75,o),
(401,-36,o),
(355,-36,cs),
(327,-36,o),
(309,-48,o),
(301,-68,c),
(295,-68,l),
(307,-14,l),
(315,-14,ls),
(445,-14,o),
(531,66,o),
(551,176,c)
);
}
);
width = 612;
}
);
unicode = 231;
},
{
glyphname = d;
layers = (
{
layerId = "F786B9CF-2625-4E74-A523-7F1B392BEC63";
shapes = (
{
closed = 1;
nodes = (
(471,0,l),
(549,0,l),
(549,700,l),
(471,700,l),
(471,418,l),
(459,418,l),
(427,480,o),
(363,510,o),
(295,510,cs),
(167,510,o),
(59,417,o),
(59,256,cs),
(59,240,ls),
(59,77,o),
(165,-14,o),
(297,-14,cs),
(357,-14,o),
(427,14,o),
(459,76,c),
(471,76,l)
);
},
{
closed = 1;
nodes = (
(210,60,o),
(139,129,o),
(139,240,cs),
(139,256,ls),
(139,363,o),
(211,436,o),
(305,436,cs),
(397,436,o),
(471,360,o),
(471,254,cs),
(471,242,ls),
(471,132,o),
(398,60,o),
(305,60,cs)
);
}
);
width = 612;
}
);
unicode = 100;
},
{
glyphname = dcaron;
layers = (
{
layerId = "F786B9CF-2625-4E74-A523-7F1B392BEC63";
shapes = (
{
closed = 1;
nodes = (
(340,0,l),
(418,0,l),
(418,700,l),
(340,700,l),
(340,442,l),
(328,442,l),
(310,482,o),
(272,510,o),
(210,510,cs),
(108,510,o),
(24,426,o),
(24,256,cs),
(24,240,ls),
(24,74,o),
(104,-14,o),
(210,-14,cs),
(278,-14,o),
(314,16,o),
(328,58,c),
(340,58,l)
);
},
{
closed = 1;
nodes = (
(147,60,o),
(104,124,o),
(104,240,cs),
(104,256,ls),
(104,374,o),
(149,436,o),
(222,436,cs),
(313,436,o),
(340,354,o),
(340,254,cs),
(340,242,ls),
(340,138,o),
(311,60,o),
(220,60,cs)
);
},
{
closed = 1;
nodes = (
(454,592,o),
(486,560,o),
(523,560,cs),
(529,560,o),
(535,561,o),
(540,563,c),
(540,538,ls),
(540,519,o),
(532,508,o),
(513,508,cs),
(466,508,l),
(466,454,l),
(517,454,ls),
(562,454,o),
(594,487,o),
(594,532,cs),
(594,630,ls),
(594,668,o),
(562,700,o),
(524,700,cs),
(486,700,o),
(454,668,o),
(454,630,cs)
);
}
);
width = 612;
}
);
unicode = 271;
},
{
glyphname = dcroat;
layers = (
{
associatedMasterId = "F786B9CF-2625-4E74-A523-7F1B392BEC63";
layerId = "60B433FB-7962-4D91-9D7B-25075E58E57A";
name = img;
width = 612;
},
{
guides = (
{
angle = 90;
pos = (295,0);
}
);
layerId = "F786B9CF-2625-4E74-A523-7F1B392BEC63";
shapes = (
{
closed = 1;
nodes = (
(295,562,l),
(471,562,l),
(471,418,l),
(459,418,l),
(427,480,o),
(363,510,o),
(295,510,cs),
(167,510,o),
(59,417,o),
(59,256,cs),
(59,240,ls),
(59,77,o),
(165,-14,o),
(297,-14,cs),
(357,-14,o),
(427,14,o),
(459,76,c),
(471,76,l),
(471,0,l),
(549,0,l),
(549,562,l),
(609,562,l),
(609,634,l),
(549,634,l),
(549,700,l),
(471,700,l),
(471,634,l),
(295,634,l)
);
},
{
closed = 1;
nodes = (
(210,60,o),
(139,129,o),
(139,240,cs),
(139,256,ls),
(139,363,o),
(211,436,o),
(305,436,cs),
(397,436,o),
(471,360,o),
(471,254,cs),
(471,242,ls),
(471,132,o),
(398,60,o),
(305,60,cs)
);
}
);
width = 612;
}
);
unicode = 273;
},
{
glyphname = eth;
layers = (
{
layerId = "F786B9CF-2625-4E74-A523-7F1B392BEC63";
shapes = (
{
closed = 1;
nodes = (
(246,576,l),
(310,547,l),
(329,587,l),
(385,554,o),
(430,505,o),
(448,440,c),
(436,440,l),
(412,480,o),
(362,510,o),
(294,510,cs),
(174,510,o),
(57,416,o),
(57,254,cs),
(57,242,ls),
(57,78,o),
(174,-14,o),
(306,-14,cs),
(444,-14,o),
(555,80,o),
(555,271,cs),
(555,432,o),
(498,581,o),
(361,656,c),
(379,693,l),
(316,722,l),
(298,685,l),
(261,698,o),
(221,708,o),
(178,714,c),
(160,640,l),
(195,636,o),
(231,628,o),
(265,616,c)
);
},
{
closed = 1;
nodes = (
(211,60,o),
(137,130,o),
(137,242,cs),
(137,254,ls),
(137,362,o),
(212,436,o),
(306,436,cs),
(400,436,o),
(475,362,o),
(475,254,cs),
(475,130,o),
(401,60,o),
(306,60,cs)
);
}
);
width = 612;
}
);
unicode = 240;
},
{
glyphname = e;
layers = (
{
guides = (
{
pos = (0,176);
}
);
layerId = "F786B9CF-2625-4E74-A523-7F1B392BEC63";
shapes = (
{
closed = 1;
nodes = (
(544,224,l),
(544,288,ls),
(544,376,o),
(473,510,o),
(310,510,cs),
(171,510,o),
(66,406,o),
(66,266,cs),
(66,242,ls),
(66,90,o),
(166,-14,o),
(308,-14,cs),
(436,-14,o),
(510,50,o),
(538,142,c),
(464,162,l),
(446,106,o),
(404,60,o),
(310,60,cs),
(208,60,o),
(148,126,o),
(144,224,c)
);
},
{
closed = 1;
nodes = (
(388,436,o),
(462,382,o),
(466,296,c),
(146,296,l),
(156,376,o),
(222,436,o),
(310,436,cs)
);
}
);
width = 612;
}
);
unicode = 101;
},
{
glyphname = ecircumflexhookabove;
lastChange = "2024-08-23 01:43:07 +0000";
layers = (
{
layerId = "F786B9CF-2625-4E74-A523-7F1B392BEC63";
shapes = (
{
closed = 1;
nodes = (
(427,658,l),
(407,750,l),
(407,756,l),
(483,756,l),
(487,748,o),
(496,742,o),
(508,742,cs),
(527,742,o),
(543,756,o),
(543,780,cs),
(543,809,o),
(523,822,o),
(503,822,cs),
(474,822,o),
(459,802,o),
(455,782,c),
(407,800,l),
(417,840,o),
(447,870,o),
(504,870,cs),
(556,870,o),
(597,834,o),
(597,779,cs),
(597,733,o),
(567,694,o),
(521,694,cs),
(493,694,o),
(475,706,o),
(467,726,c),
(461,726,l),
(476,658,l)
);
},
{
alignment = -1;
pos = (-1,0);
ref = e;
},
{
alignment = -1;
pos = (3,0);
ref = circumflex;
}
);
width = 612;
}
);
unicode = 7875;
},
{
glyphname = ehookabove;
lastChange = "2024-08-23 01:43:07 +0000";
layers = (
{
guides = (
{
pos = (0,546);
},
{
angle = 90;
pos = (309,0);
}
);
layerId = "F786B9CF-2625-4E74-A523-7F1B392BEC63";
shapes = (
{
closed = 1;
nodes = (
(260,546,l),
(240,638,l),
(240,644,l),
(316,644,l),
(320,636,o),
(329,630,o),
(341,630,cs),
(360,630,o),
(376,644,o),
(376,668,cs),
(376,697,o),
(356,710,o),
(336,710,cs),
(307,710,o),
(292,690,o),
(288,670,c),
(240,688,l),
(250,728,o),
(280,758,o),
(337,758,cs),
(389,758,o),
(430,722,o),
(430,667,cs),
(430,621,o),
(400,582,o),
(354,582,cs),
(326,582,o),
(308,594,o),
(300,614,c),
(294,614,l),
(309,546,l)
);
},
{
alignment = -1;
pos = (-1,0);
ref = e;
}
);
width = 612;
}
);
unicode = 7867;
},
{
glyphname = eogonek;
layers = (
{
associatedMasterId = "F786B9CF-2625-4E74-A523-7F1B392BEC63";
layerId = "60B433FB-7962-4D91-9D7B-25075E58E57A";
name = img;
width = 612;
},
{
guides = (
{
angle = 90;
pos = (307,0);
}
);
layerId = "F786B9CF-2625-4E74-A523-7F1B392BEC63";
shapes = (
{
closed = 1;
nodes = (
(543,224,l),
(543,288,ls),
(543,376,o),
(472,510,o),
(309,510,cs),
(170,510,o),
(65,406,o),
(65,266,cs),
(65,242,ls),
(65,103,o),
(148,4,o),
(271,-12,c),
(259,-66,ls),
(257,-76,o),
(256,-83,o),
(256,-90,cs),
(256,-139,o),
(295,-164,o),
(334,-164,cs),
(390,-164,l),
(390,-98,l),
(348,-98,ls),
(334,-98,o),
(325,-90,o),
(325,-76,cs),
(325,-75,o),
(325,-73,o),
(326,-68,cs),
(339,-12,l),
(447,-2,o),
(511,58,o),
(537,142,c),
(463,162,l),
(445,106,o),
(403,60,o),
(309,60,cs),
(207,60,o),
(147,126,o),
(143,224,c)
);
},
{
closed = 1;
nodes = (
(387,436,o),
(461,382,o),
(465,296,c),
(145,296,l),
(155,376,o),
(221,436,o),
(309,436,cs)
);
}
);
width = 612;
}
);
unicode = 281;
},
{
glyphname = schwa;
lastChange = "2024-08-23 01:43:07 +0000";
layers = (
{
layerId = "F786B9CF-2625-4E74-A523-7F1B392BEC63";
shapes = (
{
closed = 1;
nodes = (
(66,272,l),
(66,214,ls),
(66,120,o),
(135,-14,o),
(300,-14,cs),
(441,-14,o),
(544,92,o),
(544,232,cs),
(544,256,ls),
(544,412,o),
(440,510,o),
(300,510,cs),
(191,510,o),
(117,454,o),
(77,362,c),
(147,332,l),
(168,384,o),
(211,436,o),
(299,436,cs),
(399,436,o),
(462,370,o),
(466,272,c)
);
},
{
closed = 1;
nodes = (
(222,60,o),
(148,114,o),
(144,200,c),
(464,200,l),
(454,120,o),
(388,60,o),
(300,60,cs)
);
}
);
width = 612;
}
);
unicode = 601;
},
{
glyphname = f;
layers = (
{
layerId = "F786B9CF-2625-4E74-A523-7F1B392BEC63";
shapes = (
{
closed = 1;
nodes = (
(82,424,l),
(235,424,l),
(235,0,l),
(313,0,l),
(313,424,l),
(520,424,l),
(520,496,l),
(313,496,l),
(313,598,ls),
(313,617,o),
(321,628,o),
(340,628,cs),
(508,628,l),
(508,700,l),
(312,700,ls),
(267,700,o),
(235,667,o),
(235,622,cs),
(235,496,l),
(82,496,l)
);
}
);
width = 612;
}
);
unicode = 102;
},
{
glyphname = g;
layers = (
{
layerId = "F786B9CF-2625-4E74-A523-7F1B392BEC63";
shapes = (
{
closed = 1;
nodes = (
(464,-98,ls),
(464,-117,o),
(456,-128,o),
(437,-128,cs),
(142,-128,l),
(142,-200,l),
(465,-200,ls),
(510,-200,o),
(542,-167,o),
(542,-122,cs),
(542,496,l),
(464,496,l),
(464,418,l),
(452,418,l),
(422,478,o),
(366,510,o),
(294,510,cs),
(166,510,o),
(52,417,o),
(52,256,cs),
(52,240,ls),
(52,77,o),
(164,-14,o),
(296,-14,cs),
(361,-14,o),
(420,16,o),
(452,76,c),
(464,76,l)
);
},
{
closed = 1;
nodes = (
(203,60,o),
(132,129,o),
(132,240,cs),
(132,256,ls),
(132,363,o),
(204,436,o),
(298,436,cs),
(390,436,o),
(464,360,o),
(464,254,cs),
(464,242,ls),
(464,132,o),
(391,60,o),
(298,60,cs)
);
}
);
width = 612;
}
);
unicode = 103;
},
{
glyphname = gcaron;
lastChange = "2024-08-23 01:43:07 +0000";
layers = (
{
guides = (
{
angle = 90;
pos = (294,0);
}
);
layerId = "F786B9CF-2625-4E74-A523-7F1B392BEC63";
shapes = (
{
closed = 1;
nodes = (
(464,-98,ls),
(464,-117,o),
(456,-128,o),
(437,-128,cs),
(142,-128,l),
(142,-200,l),
(465,-200,ls),
(510,-200,o),
(542,-167,o),
(542,-122,cs),
(542,496,l),
(464,496,l),
(464,418,l),
(452,418,l),
(422,478,o),
(366,510,o),
(294,510,cs),
(166,510,o),
(52,417,o),
(52,256,cs),
(52,240,ls),
(52,77,o),
(164,-14,o),
(296,-14,cs),
(361,-14,o),
(420,16,o),
(452,76,c),
(464,76,l)
);
},
{
closed = 1;
nodes = (
(203,60,o),
(132,129,o),
(132,240,cs),
(132,256,ls),
(132,363,o),
(204,436,o),
(298,436,cs),
(390,436,o),
(464,360,o),
(464,254,cs),
(464,242,ls),
(464,132,o),
(391,60,o),
(298,60,cs)
);
},
{
alignment = -1;
pos = (-12,0);
ref = caron;
}
);
width = 612;
}
);
unicode = 487;
},
{
glyphname = h;
layers = (
{
layerId = "F786B9CF-2625-4E74-A523-7F1B392BEC63";
shapes = (
{
closed = 1;
nodes = (
(165,258,ls),
(165,366,o),
(223,436,o),
(317,436,cs),
(397,436,o),
(447,384,o),
(447,280,cs),
(447,0,l),
(525,0,l),
(525,296,ls),
(525,438,o),
(451,510,o),
(343,510,cs),
(263,510,o),
(207,470,o),
(177,406,c),
(165,406,l),
(165,700,l),
(87,700,l),
(87,0,l),
(165,0,l)
);
}
);
width = 612;
}
);
unicode = 104;
},
{
glyphname = hbar;
layers = (
{
associatedMasterId = "F786B9CF-2625-4E74-A523-7F1B392BEC63";
layerId = "60B433FB-7962-4D91-9D7B-25075E58E57A";
name = img;
width = 612;
},
{
layerId = "F786B9CF-2625-4E74-A523-7F1B392BEC63";
shapes = (
{
closed = 1;
nodes = (
(27,562,l),
(87,562,l),
(87,0,l),
(165,0,l),
(165,258,ls),
(165,366,o),
(223,436,o),
(317,436,cs),
(397,436,o),
(447,384,o),
(447,280,cs),
(447,0,l),
(525,0,l),
(525,296,ls),
(525,438,o),
(451,510,o),
(343,510,cs),
(263,510,o),
(207,470,o),
(177,406,c),
(165,406,l),
(165,562,l),
(343,562,l),
(343,634,l),
(165,634,l),
(165,700,l),
(87,700,l),
(87,634,l),
(27,634,l)
);
}
);
width = 612;
}
);
unicode = 295;
},
{
glyphname = hturned;
lastChange = "2024-08-23 01:43:07 +0000";
layers = (
{
layerId = "F786B9CF-2625-4E74-A523-7F1B392BEC63";
shapes = (
{
closed = 1;
nodes = (
(446,238,ls),
(446,130,o),
(388,60,o),
(294,60,cs),
(214,60,o),
(164,112,o),
(164,216,cs),
(164,496,l),
(86,496,l),
(86,200,ls),
(86,58,o),
(160,-14,o),
(268,-14,cs),
(348,-14,o),
(404,26,o),
(434,90,c),
(446,90,l),
(446,-200,l),
(524,-200,l),
(524,496,l),
(446,496,l)
);
}
);
width = 612;
}
);
unicode = 613;
},
{
glyphname = i;
layers = (
{
layerId = "F786B9CF-2625-4E74-A523-7F1B392BEC63";
shapes = (
{
closed = 1;
nodes = (
(241,606,o),
(273,574,o),
(311,574,cs),
(349,574,o),
(381,606,o),
(381,644,cs),
(381,682,o),
(349,714,o),
(311,714,cs),
(273,714,o),
(241,682,o),
(241,644,cs)
);
},
{
closed = 1;
nodes = (
(99,0,l),
(513,0,l),
(513,72,l),
(351,72,l),
(351,496,l),
(117,496,l),
(117,424,l),
(273,424,l),
(273,72,l),
(99,72,l)
);
}
);
width = 612;
}
);
unicode = 105;
},
{
glyphname = idotless;
lastChange = "2024-08-23 01:43:07 +0000";
layers = (
{
layerId = "F786B9CF-2625-4E74-A523-7F1B392BEC63";
shapes = (
{
closed = 1;
nodes = (
(99,0,l),
(513,0,l),
(513,72,l),
(351,72,l),
(351,496,l),
(117,496,l),
(117,424,l),
(273,424,l),
(273,72,l),
(99,72,l)
);
}
);
width = 612;
}
);
unicode = 305;
},
{
glyphname = ihookabove;
lastChange = "2024-08-23 01:43:07 +0000";
layers = (
{
guides = (
{
angle = 90;
pos = (273,0);
},
{
angle = 90;
pos = (351,0);
},
{
angle = 90;
pos = (306,0);
}
);
layerId = "F786B9CF-2625-4E74-A523-7F1B392BEC63";
shapes = (
{
closed = 1;
nodes = (
(281,546,l),
(261,638,l),
(261,644,l),
(337,644,l),
(341,636,o),
(350,630,o),
(362,630,cs),
(381,630,o),
(397,644,o),
(397,668,cs),
(397,697,o),
(377,710,o),
(357,710,cs),
(328,710,o),
(313,690,o),
(309,670,c),
(261,688,l),
(271,728,o),
(301,758,o),
(358,758,cs),
(410,758,o),
(451,722,o),
(451,667,cs),
(451,621,o),
(421,582,o),
(375,582,cs),
(347,582,o),
(329,594,o),
(321,614,c),
(315,614,l),
(330,546,l)
);
},
{
alignment = -1;
ref = idotless;
}
);
width = 612;
}
);
unicode = 7881;
},
{
glyphname = imacron;
layers = (
{
associatedMasterId = "F786B9CF-2625-4E74-A523-7F1B392BEC63";
layerId = "60B433FB-7962-4D91-9D7B-25075E58E57A";
name = img;
width = 612;
},
{
guides = (
{
angle = 90;
pos = (117,0);
},
{
angle = 90;
pos = (351,0);
}
);
layerId = "F786B9CF-2625-4E74-A523-7F1B392BEC63";
shapes = (
{
closed = 1;
nodes = (
(351,636,l),
(117,636,l),
(117,570,l),
(351,570,l)
);
},
{
alignment = -1;
ref = idotless;
}
);
width = 612;
}
);
unicode = 299;
},
{
glyphname = iogonek;
layers = (
{
associatedMasterId = "F786B9CF-2625-4E74-A523-7F1B392BEC63";
layerId = "60B433FB-7962-4D91-9D7B-25075E58E57A";
name = img;
width = 612;
},
{
guides = (
{
angle = 90;
pos = (312,0);
}
);
layerId = "F786B9CF-2625-4E74-A523-7F1B392BEC63";
shapes = (
{
closed = 1;
nodes = (
(99,0,l),
(444,0,l),
(430,-66,ls),
(428,-76,o),
(427,-83,o),
(427,-90,cs),
(427,-139,o),
(465,-164,o),
(505,-164,cs),
(561,-164,l),
(561,-98,l),
(519,-98,ls),
(505,-98,o),
(496,-90,o),
(496,-76,cs),
(496,-75,o),
(496,-73,o),
(497,-68,cs),
(513,0,l),
(513,72,l),
(351,72,l),
(351,496,l),
(117,496,l),
(117,424,l),
(273,424,l),
(273,72,l),
(99,72,l)
);
},
{
closed = 1;
nodes = (
(241,606,o),
(273,574,o),
(311,574,cs),
(349,574,o),
(381,606,o),
(381,644,cs),
(381,682,o),
(349,714,o),
(311,714,cs),
(273,714,o),
(241,682,o),
(241,644,cs)
);
}
);
width = 612;
}
);
unicode = 303;
},
{
glyphname = ij;
layers = (
{
guides = (
{
angle = 90;
pos = (87,0);
},
{
angle = 90;
pos = (165,0);
},
{
angle = 90;
pos = (447,0);
},
{
angle = 90;
pos = (525,0);
}
);
layerId = "F786B9CF-2625-4E74-A523-7F1B392BEC63";
shapes = (
{
closed = 1;
nodes = (
(416,606,o),
(448,574,o),
(486,574,cs),
(524,574,o),
(556,606,o),
(556,644,cs),
(556,682,o),
(524,714,o),
(486,714,cs),
(448,714,o),
(416,682,o),
(416,644,cs)
);
},
{
closed = 1;
nodes = (
(56,606,o),
(88,574,o),
(126,574,cs),
(164,574,o),
(196,606,o),
(196,644,cs),
(196,682,o),
(164,714,o),
(126,714,cs),
(88,714,o),
(56,682,o),
(56,644,cs)
);
},
{
closed = 1;
nodes = (
(447,-98,ls),
(447,-117,o),
(439,-128,o),
(420,-128,cs),
(225,-128,l),
(225,-200,l),
(448,-200,ls),
(493,-200,o),
(525,-167,o),
(525,-122,cs),
(525,496,l),
(447,496,l),
(447,238,ls),
(447,130,o),
(389,60,o),
(295,60,cs),
(207,60,o),
(165,106,o),
(165,210,cs),
(165,496,l),
(87,496,l),
(87,200,ls),
(87,58,o),
(163,-14,o),
(273,-14,cs),
(353,-14,o),
(403,26,o),
(435,90,c),
(447,90,l)
);
}
);
width = 612;
}
);
unicode = 307;
},
{
glyphname = j;
layers = (
{
layerId = "F786B9CF-2625-4E74-A523-7F1B392BEC63";
shapes = (
{
closed = 1;
nodes = (
(307,606,o),
(339,574,o),
(377,574,cs),
(415,574,o),
(447,606,o),
(447,644,cs),
(447,682,o),
(415,714,o),
(377,714,cs),
(339,714,o),
(307,682,o),
(307,644,cs)
);
},
{
closed = 1;
nodes = (
(141,424,l),
(339,424,l),
(339,-98,ls),
(339,-117,o),
(331,-128,o),
(312,-128,cs),
(117,-128,l),
(117,-200,l),
(340,-200,ls),
(385,-200,o),
(417,-167,o),
(417,-122,cs),
(417,496,l),
(141,496,l)
);
}
);
width = 612;
}
);
unicode = 106;
},
{
glyphname = jdotless;
lastChange = "2024-08-23 01:43:07 +0000";
layers = (
{
layerId = "F786B9CF-2625-4E74-A523-7F1B392BEC63";
shapes = (
{
closed = 1;
nodes = (
(141,424,l),
(339,424,l),
(339,-98,ls),
(339,-117,o),
(331,-128,o),
(312,-128,cs),
(117,-128,l),
(117,-200,l),
(340,-200,ls),
(385,-200,o),
(417,-167,o),
(417,-122,cs),
(417,496,l),
(141,496,l)
);
}
);
width = 612;
}
);
unicode = 567;
},
{
glyphname = jcircumflex;
layers = (
{
associatedMasterId = "F786B9CF-2625-4E74-A523-7F1B392BEC63";
layerId = "60B433FB-7962-4D91-9D7B-25075E58E57A";
name = img;
width = 612;
},
{
guides = (
{
angle = 90;
pos = (158,0);
},
{
angle = 90;
pos = (434,0);
}
);
layerId = "F786B9CF-2625-4E74-A523-7F1B392BEC63";
shapes = (
{
closed = 1;
nodes = (
(158,424,l),
(356,424,l),
(356,-98,ls),
(356,-117,o),
(348,-128,o),
(329,-128,cs),
(134,-128,l),
(134,-200,l),
(357,-200,ls),
(402,-200,o),
(434,-167,o),
(434,-122,cs),
(434,496,l),
(158,496,l)
);
},
{
alignment = -1;
pos = (-10,0);
ref = circumflex;
}
);
width = 612;
}
);
unicode = 309;
},
{
glyphname = k;
layers = (
{
guides = (
{
angle = 90;
pos = (227,0);
}
);
layerId = "F786B9CF-2625-4E74-A523-7F1B392BEC63";
shapes = (
{
closed = 1;
nodes = (
(215,700,l),
(137,700,l),
(137,0,l),
(215,0,l),
(215,218,l),
(234,218,l),
(445,0,l),
(541,0,l),
(541,6,l),
(311,245,l),
(311,263,l),
(517,490,l),
(517,496,l),
(421,496,l),
(232,290,l),
(215,290,l)
);
}
);
width = 612;
}
);
unicode = 107;
},
{
glyphname = kgreenlandic;
layers = (
{
associatedMasterId = "F786B9CF-2625-4E74-A523-7F1B392BEC63";
layerId = "60B433FB-7962-4D91-9D7B-25075E58E57A";
name = img;
width = 612;
},
{
layerId = "F786B9CF-2625-4E74-A523-7F1B392BEC63";
shapes = (
{
closed = 1;
nodes = (
(215,496,l),
(137,496,l),
(137,0,l),
(215,0,l),
(215,218,l),
(234,218,l),
(445,0,l),
(541,0,l),
(541,6,l),
(311,245,l),
(311,263,l),
(517,490,l),
(517,496,l),
(421,496,l),
(232,290,l),
(215,290,l)
);
}
);
width = 612;
}
);
unicode = 312;
},
{
glyphname = kturned;
lastChange = "2024-08-23 01:43:07 +0000";
layers = (
{
layerId = "F786B9CF-2625-4E74-A523-7F1B392BEC63";
shapes = (
{
closed = 1;
nodes = (
(397,-200,l),
(475,-200,l),
(475,496,l),
(397,496,l),
(397,278,l),
(378,278,l),
(167,496,l),
(71,496,l),
(71,490,l),
(301,251,l),
(301,233,l),
(95,6,l),
(95,0,l),
(191,0,l),
(380,206,l),
(397,206,l)
);
}
);
width = 612;
}
);
unicode = 670;
},
{
glyphname = l;
layers = (
{
layerId = "F786B9CF-2625-4E74-A523-7F1B392BEC63";
shapes = (
{
closed = 1;
nodes = (
(87,0,l),
(525,0,l),
(525,72,l),
(345,72,l),
(345,700,l),
(93,700,l),
(93,628,l),
(267,628,l),
(267,72,l),
(87,72,l)
);
}
);
width = 612;
}
);
unicode = 108;
},
{
glyphname = ldotbelowmacron;
lastChange = "2024-08-23 01:43:07 +0000";
layers = (
{
guides = (
{
angle = 90;
pos = (93,0);
},
{
angle = 90;
pos = (345,0);
}
);
layerId = "F786B9CF-2625-4E74-A523-7F1B392BEC63";
shapes = (
{
closed = 1;
nodes = (
(345,840,l),
(93,840,l),
(93,774,l),
(345,774,l)
);
},
{
alignment = -1;
ref = l;
},
{
alignment = -1;
pos = (0,-190);
ref = period;
}
);
width = 612;
}
);
unicode = 7737;
},
{
glyphname = lslash;
layers = (
{
guides = (
{
pos = (0,350);
},
{
angle = 90;
pos = (267,0);
},
{
angle = 90;
pos = (306,0);
}
);
layerId = "F786B9CF-2625-4E74-A523-7F1B392BEC63";
shapes = (
{
closed = 1;
nodes = (
(87,0,l),
(525,0,l),
(525,72,l),
(345,72,l),
(345,315,l),
(444,366,l),
(410,433,l),
(345,400,l),
(345,700,l),
(93,700,l),
(93,628,l),
(267,628,l),
(267,360,l),
(169,311,l),
(204,243,l),
(267,275,l),
(267,72,l),
(87,72,l)
);
}
);
width = 612;
}
);
unicode = 322;
},
{
glyphname = m;
layers = (
{
layerId = "F786B9CF-2625-4E74-A523-7F1B392BEC63";
shapes = (
{
closed = 1;
nodes = (
(564,382,ls),
(564,458,o),
(521,510,o),
(447,510,cs),
(397,510,o),
(361,486,o),
(339,442,c),
(327,442,l),
(315,482,o),
(283,510,o),
(235,510,cs),
(190,510,o),
(155,488,o),
(138,442,c),
(126,442,l),
(126,496,l),
(48,496,l),
(48,0,l),
(126,0,l),
(126,342,ls),
(126,398,o),
(153,436,o),
(201,436,cs),
(241,436,o),
(267,404,o),
(267,360,cs),
(267,0,l),
(345,0,l),
(345,336,ls),
(345,403,o),
(375,436,o),
(419,436,cs),
(465,436,o),
(486,402,o),
(486,356,cs),
(486,0,l),
(564,0,l)
);
}
);
width = 612;
}
);
unicode = 109;
},
{
glyphname = n;
layers = (
{
layerId = "F786B9CF-2625-4E74-A523-7F1B392BEC63";
shapes = (
{
closed = 1;
nodes = (
(165,258,ls),
(165,366,o),
(223,436,o),
(317,436,cs),
(397,436,o),
(447,384,o),
(447,280,cs),
(447,0,l),
(525,0,l),
(525,296,ls),
(525,438,o),
(451,510,o),
(337,510,cs),
(261,510,o),
(207,476,o),
(177,412,c),
(165,412,l),
(165,496,l),
(87,496,l),
(87,0,l),
(165,0,l)
);
}
);
width = 612;
}
);
unicode = 110;
},
{
glyphname = napostrophe;
layers = (
{
associatedMasterId = "F786B9CF-2625-4E74-A523-7F1B392BEC63";
layerId = "60B433FB-7962-4D91-9D7B-25075E58E57A";
name = img;
width = 612;
},
{
guides = (
{
pos = (0,574);
},
{
angle = 90;
pos = (87,0);
},
{
angle = 90;
pos = (165,0);
},
{
angle = 90;
pos = (177,0);
}
);
layerId = "F786B9CF-2625-4E74-A523-7F1B392BEC63";
shapes = (
{
closed = 1;
nodes = (
(75,712,o),
(107,680,o),
(144,680,cs),
(150,680,o),
(156,681,o),
(161,683,c),
(161,658,ls),
(161,639,o),
(153,628,o),
(134,628,cs),
(87,628,l),
(87,574,l),
(138,574,ls),
(183,574,o),
(215,607,o),
(215,652,cs),
(215,750,ls),
(215,788,o),
(183,820,o),
(145,820,cs),
(107,820,o),
(75,788,o),
(75,750,cs)
);
},
{
alignment = -1;
ref = n;
}
);
width = 612;
}
);
unicode = 329;
},
{
glyphname = ncommaaccent;
lastChange = "2024-08-23 01:43:07 +0000";
layers = (
{
associatedMasterId = "F786B9CF-2625-4E74-A523-7F1B392BEC63";
layerId = "60B433FB-7962-4D91-9D7B-25075E58E57A";
name = img;
width = 612;
},
{
guides = (
{
pos = (0,-44);
},
{
angle = 90;
pos = (165,0);
},
{
angle = 90;
pos = (447,0);
},
{
angle = 90;
pos = (317,0);
},
{
angle = 90;
pos = (337,0);
}
);
layerId = "F786B9CF-2625-4E74-A523-7F1B392BEC63";
shapes = (
{
closed = 1;
nodes = (
(165,258,ls),
(165,366,o),
(223,436,o),
(317,436,cs),
(397,436,o),
(447,384,o),
(447,280,cs),
(447,0,l),
(525,0,l),
(525,296,ls),
(525,438,o),
(451,510,o),
(337,510,cs),
(261,510,o),
(207,476,o),
(177,412,c),
(165,412,l),
(165,496,l),
(87,496,l),
(87,0,l),
(165,0,l)
);
},
{
alignment = -1;
pos = (11,-170);
ref = comma;
}
);
width = 612;
}
);
unicode = 326;
},
{
glyphname = eng;
layers = (
{
associatedMasterId = "F786B9CF-2625-4E74-A523-7F1B392BEC63";
layerId = "60B433FB-7962-4D91-9D7B-25075E58E57A";
name = img;
width = 612;
},
{
guides = (
{
angle = 90;
pos = (317,0);
}
);
layerId = "F786B9CF-2625-4E74-A523-7F1B392BEC63";
shapes = (
{
closed = 1;
nodes = (
(165,258,ls),
(165,366,o),
(223,436,o),
(317,436,cs),
(397,436,o),
(447,384,o),
(447,280,cs),
(447,-98,ls),
(447,-117,o),
(439,-128,o),
(420,-128,cs),
(317,-128,l),
(317,-200,l),
(448,-200,ls),
(493,-200,o),
(525,-167,o),
(525,-122,cs),
(525,296,ls),
(525,438,o),
(451,510,o),
(337,510,cs),
(261,510,o),
(207,476,o),
(177,412,c),
(165,412,l),
(165,496,l),
(87,496,l),
(87,0,l),
(165,0,l)
);
}
);
width = 612;
}
);
unicode = 331;
},
{
glyphname = o;
layers = (
{
layerId = "F786B9CF-2625-4E74-A523-7F1B392BEC63";
shapes = (
{
closed = 1;
nodes = (
(555,254,ls),
(555,416,o),
(437,510,o),
(306,510,cs),
(175,510,o),
(57,416,o),
(57,254,cs),
(57,242,ls),
(57,78,o),
(174,-14,o),
(306,-14,cs),
(438,-14,o),
(555,78,o),
(555,242,cs)
);
},
{
closed = 1;
nodes = (
(211,60,o),
(137,130,o),
(137,242,cs),
(137,254,ls),
(137,362,o),
(212,436,o),
(306,436,cs),
(400,436,o),
(475,362,o),
(475,254,cs),
(475,242,ls),
(475,130,o),
(401,60,o),
(306,60,cs)
);
}
);
width = 612;
}
);
unicode = 111;
},
{
glyphname = ocircumflexhookabove;
lastChange = "2024-08-23 01:43:07 +0000";
layers = (
{
guides = (
{
angle = 90;
pos = (306,0);
}
);
layerId = "F786B9CF-2625-4E74-A523-7F1B392BEC63";
shapes = (
{
closed = 1;
nodes = (
(424,658,l),
(404,750,l),
(404,756,l),
(480,756,l),
(484,748,o),
(493,742,o),
(505,742,cs),
(524,742,o),
(540,756,o),
(540,780,cs),
(540,809,o),
(520,822,o),
(500,822,cs),
(471,822,o),
(456,802,o),
(452,782,c),
(404,800,l),
(414,840,o),
(444,870,o),
(501,870,cs),
(553,870,o),
(594,834,o),
(594,779,cs),
(594,733,o),
(564,694,o),
(518,694,cs),
(490,694,o),
(472,706,o),
(464,726,c),
(458,726,l),
(473,658,l)
);
},
{
alignment = -1;
ref = o;
},
{
alignment = -1;
ref = circumflex;
}
);
width = 612;
}
);
unicode = 7893;
},
{
glyphname = ohookabove;
lastChange = "2024-08-23 01:43:07 +0000";
layers = (
{
layerId = "F786B9CF-2625-4E74-A523-7F1B392BEC63";
shapes = (
{
closed = 1;
nodes = (
(272,546,l),
(252,638,l),
(252,644,l),
(328,644,l),
(332,636,o),
(341,630,o),
(353,630,cs),
(372,630,o),
(388,644,o),
(388,668,cs),
(388,697,o),
(368,710,o),
(348,710,cs),
(319,710,o),
(304,690,o),
(300,670,c),
(252,688,l),
(262,728,o),
(292,758,o),
(349,758,cs),
(401,758,o),
(442,722,o),
(442,667,cs),
(442,621,o),
(412,582,o),
(366,582,cs),
(338,582,o),
(320,594,o),
(312,614,c),
(306,614,l),
(321,546,l)
);
},
{
alignment = -1;
ref = o;
}
);
width = 612;
}
);
unicode = 7887;
},
{
glyphname = ohorn;
lastChange = "2024-08-23 01:43:07 +0000";
layers = (
{
layerId = "F786B9CF-2625-4E74-A523-7F1B392BEC63";
shapes = (
{
closed = 1;
nodes = (
(466,388,o),
(498,356,o),
(535,356,cs),
(541,356,o),
(547,357,o),
(552,359,c),
(552,334,ls),
(552,315,o),
(544,304,o),
(525,304,cs),
(463,304,l),
(447,434,o),
(366,510,o),
(253,510,cs),
(126,510,o),
(40,414,o),
(40,254,cs),
(40,242,ls),
(40,80,o),
(125,-14,o),
(253,-14,cs),
(381,-14,o),
(466,80,o),
(466,242,cs),
(466,250,l),
(529,250,ls),
(574,250,o),
(606,283,o),
(606,328,cs),
(606,426,ls),
(606,464,o),
(574,496,o),
(536,496,cs),
(498,496,o),
(466,464,o),
(466,426,cs)
);
},
{
closed = 1;
nodes = (
(164,60,o),
(120,130,o),
(120,242,cs),
(120,254,ls),
(120,362,o),
(165,436,o),
(253,436,cs),
(341,436,o),
(386,362,o),
(386,254,cs),
(386,242,ls),
(386,130,o),
(342,60,o),
(253,60,cs)
);
}
);
width = 612;
}
);
unicode = 417;
},
{
glyphname = oogonek;
lastChange = "2024-08-23 01:43:07 +0000";
layers = (
{
guides = (
{
angle = 90;
pos = (306,0);
}
);
layerId = "F786B9CF-2625-4E74-A523-7F1B392BEC63";
shapes = (
{
closed = 1;
nodes = (
(555,254,ls),
(555,416,o),
(437,510,o),
(306,510,cs),
(175,510,o),
(57,416,o),
(57,254,cs),
(57,242,ls),
(57,92,o),
(154,3,o),
(271,-12,c),
(259,-66,ls),
(257,-76,o),
(256,-83,o),
(256,-90,cs),
(256,-139,o),
(295,-164,o),
(334,-164,cs),
(390,-164,l),
(390,-98,l),
(348,-98,ls),
(334,-98,o),
(325,-90,o),
(325,-76,cs),
(325,-75,o),
(325,-73,o),
(326,-68,cs),
(339,-12,l),
(457,2,o),
(555,92,o),
(555,242,cs)
);
},
{
closed = 1;
nodes = (
(211,60,o),
(137,130,o),
(137,242,cs),
(137,254,ls),
(137,362,o),
(212,436,o),
(306,436,cs),
(400,436,o),
(475,362,o),
(475,254,cs),
(475,242,ls),
(475,130,o),
(401,60,o),
(306,60,cs)
);
}
);
width = 612;
}
);
unicode = 491;
},
{
glyphname = oslash;
layers = (
{
guides = (
{
pos = (0,248);
}
);
layerId = "F786B9CF-2625-4E74-A523-7F1B392BEC63";
shapes = (
{
closed = 1;
nodes = (
(555,254,ls),
(555,365,o),
(499,444,o),
(422,483,c),
(439,536,l),
(369,558,l),
(352,506,l),
(337,508,o),
(321,510,o),
(306,510,cs),
(175,510,o),
(57,416,o),
(57,254,cs),
(57,242,ls),
(57,129,o),
(112,50,o),
(190,12,c),
(171,-46,l),
(242,-68,l),
(261,-10,l),
(275,-13,o),
(290,-14,o),
(306,-14,cs),
(438,-14,o),
(555,78,o),
(555,242,cs)
);
},
{
closed = 1;
nodes = (
(137,254,ls),
(137,362,o),
(212,436,o),
(306,436,cs),
(313,436,o),
(321,436,o),
(328,435,c),
(214,86,l),
(167,116,o),
(137,170,o),
(137,242,c)
);
},
{
closed = 1;
nodes = (
(298,60,o),
(291,60,o),
(284,61,c),
(397,409,l),
(444,378,o),
(475,323,o),
(475,254,cs),
(475,242,ls),
(475,130,o),
(401,60,o),
(306,60,cs)
);
}
);
width = 612;
}
);
unicode = 248;
},
{
glyphname = oe;
layers = (
{
layerId = "F786B9CF-2625-4E74-A523-7F1B392BEC63";
shapes = (
{
closed = 1;
nodes = (
(443,-14,o),
(517,50,o),
(545,142,c),
(471,162,l),
(455,113,o),
(422,72,o),
(352,62,c),
(352,224,l),
(551,224,l),
(551,288,ls),
(551,376,o),
(480,510,o),
(317,510,cs),
(186,510,o),
(68,416,o),
(68,254,cs),
(68,242,ls),
(68,78,o),
(185,-14,o),
(317,-14,cs)
);
},
{
closed = 1;
nodes = (
(148,254,ls),
(148,345,o),
(201,411,o),
(274,430,c),
(274,65,l),
(200,83,o),
(148,147,o),
(148,242,c)
);
},
{
closed = 1;
nodes = (
(352,296,l),
(352,432,l),
(416,419,o),
(469,369,o),
(473,296,c)
);
}
);
width = 612;
}
);
unicode = 339;
},
{
glyphname = p;
layers = (
{
layerId = "F786B9CF-2625-4E74-A523-7F1B392BEC63";
shapes = (
{
closed = 1;
nodes = (
(147,76,l),
(159,76,l),
(193,16,o),
(265,-14,o),
(329,-14,cs),
(455,-14,o),
(559,76,o),
(559,238,cs),
(559,258,ls),
(559,418,o),
(453,510,o),
(331,510,cs),
(259,510,o),
(193,478,o),
(159,418,c),
(147,418,l),
(147,496,l),
(69,496,l),
(69,-200,l),
(147,-200,l)
);
},
{
closed = 1;
nodes = (
(220,60,o),
(147,132,o),
(147,242,cs),
(147,254,ls),
(147,360,o),
(221,436,o),
(313,436,cs),
(407,436,o),
(479,364,o),
(479,258,cs),
(479,238,ls),
(479,128,o),
(408,60,o),
(313,60,cs)
);
}
);
width = 612;
}
);
unicode = 112;
},
{
glyphname = thorn;
layers = (
{
layerId = "F786B9CF-2625-4E74-A523-7F1B392BEC63";
shapes = (
{
closed = 1;
nodes = (
(147,76,l),
(159,76,l),
(193,16,o),
(265,-14,o),
(329,-14,cs),
(455,-14,o),
(559,76,o),
(559,238,cs),
(559,258,ls),
(559,418,o),
(453,510,o),
(331,510,cs),
(259,510,o),
(193,478,o),
(159,418,c),
(147,418,l),
(147,700,l),
(69,700,l),
(69,-200,l),
(147,-200,l)
);
},
{
closed = 1;
nodes = (
(220,60,o),
(147,132,o),
(147,242,cs),
(147,254,ls),
(147,360,o),
(221,436,o),
(313,436,cs),
(407,436,o),
(479,364,o),
(479,258,cs),
(479,238,ls),
(479,128,o),
(408,60,o),
(313,60,cs)
);
}
);
width = 612;
}
);
unicode = 254;
},
{
glyphname = q;
layers = (
{
layerId = "F786B9CF-2625-4E74-A523-7F1B392BEC63";
shapes = (
{
closed = 1;
nodes = (
(467,-200,l),
(545,-200,l),
(545,496,l),
(467,496,l),
(467,418,l),
(455,418,l),
(421,478,o),
(359,510,o),
(291,510,cs),
(163,510,o),
(55,417,o),
(55,256,cs),
(55,240,ls),
(55,77,o),
(161,-14,o),
(293,-14,cs),
(353,-14,o),
(421,16,o),
(455,76,c),
(467,76,l)
);
},
{
closed = 1;
nodes = (
(206,60,o),
(135,129,o),
(135,240,cs),
(135,256,ls),
(135,363,o),
(207,436,o),
(301,436,cs),
(393,436,o),
(467,360,o),
(467,254,cs),
(467,242,ls),
(467,132,o),
(394,60,o),
(301,60,cs)
);
}
);
width = 612;
}
);
unicode = 113;
},
{
glyphname = r;
layers = (
{
layerId = "F786B9CF-2625-4E74-A523-7F1B392BEC63";
shapes = (
{
closed = 1;
nodes = (
(59,424,l),
(161,424,l),
(161,72,l),
(47,72,l),
(47,0,l),
(365,0,l),
(365,72,l),
(239,72,l),
(239,282,ls),
(239,368,o),
(277,436,o),
(359,436,cs),
(423,436,o),
(473,398,o),
(473,306,c),
(555,318,l),
(551,443,o),
(484,510,o),
(385,510,cs),
(326,510,o),
(276,484,o),
(251,430,c),
(239,430,l),
(239,496,l),
(59,496,l)
);
}
);
width = 612;
}
);
unicode = 114;
},
{
glyphname = rmacronbelow;
lastChange = "2024-08-23 01:43:07 +0000";
layers = (
{
guides = (
{
pos = (0,-64);
},
{
angle = 90;
pos = (161,0);
},
{
angle = 90;
pos = (239,0);
},
{
angle = 90;
pos = (200,0);
},
{
angle = 90;
pos = (365,0);
},
{
angle = 90;
pos = (47,0);
}
);
layerId = "F786B9CF-2625-4E74-A523-7F1B392BEC63";
shapes = (
{
closed = 1;
nodes = (
(365,-64,l),
(47,-64,l),
(47,-130,l),
(365,-130,l)
);
},
{
alignment = -1;
ref = r;
}
);
width = 612;
}
);
unicode = 7775;
},
{
glyphname = s;
layers = (
{
layerId = "F786B9CF-2625-4E74-A523-7F1B392BEC63";
shapes = (
{
closed = 1;
nodes = (
(190,416,o),
(242,440,o),
(298,440,cs),
(370,440,o),
(418,402,o),
(424,338,c),
(498,356,l),
(488,432,o),
(426,510,o),
(294,510,cs),
(202,510,o),
(114,462,o),
(114,368,cs),
(114,362,ls),
(114,276,o),
(178,231,o),
(292,223,cs),
(390,216,o),
(432,196,o),
(432,140,cs),
(432,88,o),
(383,58,o),
(310,58,cs),
(224,58,o),
(168,108,o),
(162,184,c),
(88,166,l),
(94,78,o),
(160,-14,o),
(314,-14,cs),
(430,-14,o),
(510,44,o),
(510,140,cs),
(510,146,ls),
(510,234,o),
(447,279,o),
(332,288,cs),
(224,296,o),
(190,320,o),
(190,368,cs)
);
}
);
width = 612;
}
);
unicode = 115;
},
{
glyphname = scedilla;
layers = (
{
associatedMasterId = "F786B9CF-2625-4E74-A523-7F1B392BEC63";
layerId = "60B433FB-7962-4D91-9D7B-25075E58E57A";
name = img;
width = 612;
},
{
guides = (
{
angle = 90;
pos = (321,0);
}
);
layerId = "F786B9CF-2625-4E74-A523-7F1B392BEC63";
shapes = (
{
closed = 1;
nodes = (
(190,416,o),
(242,440,o),
(298,440,cs),
(370,440,o),
(418,402,o),
(424,338,c),
(498,356,l),
(488,432,o),
(426,510,o),
(294,510,cs),
(202,510,o),
(114,462,o),
(114,368,cs),
(114,362,ls),
(114,276,o),
(178,231,o),
(292,223,cs),
(390,216,o),
(432,196,o),
(432,140,cs),
(432,88,o),
(383,58,o),
(310,58,cs),
(224,58,o),
(168,108,o),
(162,184,c),
(88,166,l),
(93,89,o),
(144,10,o),
(258,-9,c),
(240,-92,l),
(240,-98,l),
(316,-98,l),
(320,-90,o),
(329,-84,o),
(341,-84,cs),
(360,-84,o),
(376,-98,o),
(376,-122,cs),
(376,-151,o),
(356,-164,o),
(336,-164,cs),
(307,-164,o),
(292,-144,o),
(288,-124,c),
(240,-142,l),
(250,-182,o),
(280,-212,o),
(337,-212,cs),
(389,-212,o),
(430,-176,o),
(430,-121,cs),
(430,-75,o),
(400,-36,o),
(354,-36,cs),
(326,-36,o),
(308,-48,o),
(300,-68,c),
(294,-68,l),
(306,-14,l),
(314,-14,ls),
(430,-14,o),
(510,44,o),
(510,140,cs),
(510,146,ls),
(510,234,o),
(447,279,o),
(332,288,cs),
(224,296,o),
(190,320,o),
(190,368,cs)
);
}
);
width = 612;
}
);
unicode = 351;
},
{
glyphname = germandbls;
layers = (
{
layerId = "F786B9CF-2625-4E74-A523-7F1B392BEC63";
shapes = (
{
closed = 1;
nodes = (
(343,367,l),
(417,376,o),
(493,427,o),
(493,531,cs),
(493,537,ls),
(493,646,o),
(411,714,o),
(299,714,cs),
(183,714,o),
(98,638,o),
(98,510,cs),
(98,496,l),
(38,496,l),
(38,424,l),
(98,424,l),
(98,0,l),
(176,0,l),
(176,502,ls),
(176,590,o),
(225,642,o),
(299,642,cs),
(363,642,o),
(415,600,o),
(415,537,cs),
(415,532,ls),
(415,469,o),
(373,430,o),
(306,430,cs),
(284,430,l),
(284,283,l),
(338,283,ls),
(421,283,o),
(485,251,o),
(485,167,cs),
(485,91,o),
(441,58,o),
(382,58,cs),
(324,58,o),
(286,97,o),
(286,158,c),
(212,146,l),
(214,67,o),
(268,-14,o),
(386,-14,cs),
(490,-14,o),
(563,58,o),
(563,164,cs),
(563,170,ls),
(563,290,o),
(470,355,o),
(368,355,cs),
(343,355,l)
);
}
);
width = 612;
}
);
unicode = 223;
},
{
glyphname = longs;
layers = (
{
associatedMasterId = "F786B9CF-2625-4E74-A523-7F1B392BEC63";
layerId = "60B433FB-7962-4D91-9D7B-25075E58E57A";
name = img;
width = 612;
},
{
layerId = "F786B9CF-2625-4E74-A523-7F1B392BEC63";
shapes = (
{
closed = 1;
nodes = (
(180,424,l),
(240,424,l),
(240,0,l),
(318,0,l),
(318,598,ls),
(318,617,o),
(326,628,o),
(345,628,cs),
(513,628,l),
(513,700,l),
(317,700,ls),
(272,700,o),
(240,667,o),
(240,622,cs),
(240,496,l),
(180,496,l)
);
}
);
width = 612;
}
);
unicode = 383;
},
{
glyphname = t;
layers = (
{
layerId = "F786B9CF-2625-4E74-A523-7F1B392BEC63";
shapes = (
{
closed = 1;
nodes = (
(70,424,l),
(226,424,l),
(226,78,ls),
(226,33,o),
(258,0,o),
(303,0,cs),
(472,0,l),
(472,72,l),
(331,72,ls),
(312,72,o),
(304,83,o),
(304,102,cs),
(304,424,l),
(496,424,l),
(496,496,l),
(304,496,l),
(304,700,l),
(226,700,l),
(226,496,l),
(70,496,l)
);
}
);
width = 612;
}
);
unicode = 116;
},
{
glyphname = tbar;
layers = (
{
associatedMasterId = "F786B9CF-2625-4E74-A523-7F1B392BEC63";
layerId = "60B433FB-7962-4D91-9D7B-25075E58E57A";
name = img;
width = 612;
},
{
guides = (
{
pos = (0,350);
},
{
angle = 90;
pos = (70,0);
},
{
angle = 90;
pos = (496,0);
}
);
layerId = "F786B9CF-2625-4E74-A523-7F1B392BEC63";
shapes = (
{
closed = 1;
nodes = (
(70,424,l),
(226,424,l),
(226,350,l),
(106,350,l),
(106,278,l),
(226,278,l),
(226,78,ls),
(226,33,o),
(258,0,o),
(303,0,cs),
(472,0,l),
(472,72,l),
(331,72,ls),
(312,72,o),
(304,83,o),
(304,102,cs),
(304,278,l),
(460,278,l),
(460,350,l),
(304,350,l),
(304,424,l),
(496,424,l),
(496,496,l),
(304,496,l),
(304,700,l),
(226,700,l),
(226,496,l),
(70,496,l)
);
}
);
width = 612;
}
);
unicode = 359;
},
{
glyphname = tcaron;
layers = (
{
associatedMasterId = "F786B9CF-2625-4E74-A523-7F1B392BEC63";
layerId = "60B433FB-7962-4D91-9D7B-25075E58E57A";
name = img;
width = 612;
},
{
guides = (
{
angle = 90;
pos = (472,0);
}
);
layerId = "F786B9CF-2625-4E74-A523-7F1B392BEC63";
shapes = (
{
closed = 1;
nodes = (
(70,424,l),
(226,424,l),
(226,78,ls),
(226,33,o),
(258,0,o),
(303,0,cs),
(472,0,l),
(472,72,l),
(331,72,ls),
(312,72,o),
(304,83,o),
(304,102,cs),
(304,424,l),
(376,424,l),
(376,496,l),
(304,496,l),
(304,700,l),
(226,700,l),
(226,496,l),
(70,496,l)
);
},
{
closed = 1;
nodes = (
(394,592,o),
(426,560,o),
(463,560,cs),
(469,560,o),
(475,561,o),
(480,563,c),
(480,508,ls),
(480,489,o),
(472,478,o),
(453,478,cs),
(406,478,l),
(406,424,l),
(457,424,ls),
(502,424,o),
(534,457,o),
(534,502,cs),
(534,630,ls),
(534,668,o),
(502,700,o),
(464,700,cs),
(426,700,o),
(394,668,o),
(394,630,cs)
);
}
);
width = 612;
}
);
unicode = 357;
},
{
glyphname = tcedilla;
lastChange = "2024-08-23 01:43:07 +0000";
layers = (
{
associatedMasterId = "F786B9CF-2625-4E74-A523-7F1B392BEC63";
layerId = "60B433FB-7962-4D91-9D7B-25075E58E57A";
name = img;
width = 612;
},
{
guides = (
{
angle = 90;
pos = (226,0);
}
);
layerId = "F786B9CF-2625-4E74-A523-7F1B392BEC63";
shapes = (
{
closed = 1;
nodes = (
(283,-92,l),
(283,-98,l),
(359,-98,l),
(363,-90,o),
(372,-84,o),
(384,-84,cs),
(403,-84,o),
(419,-98,o),
(419,-122,cs),
(419,-151,o),
(399,-164,o),
(379,-164,cs),
(350,-164,o),
(335,-144,o),
(331,-124,c),
(283,-142,l),
(293,-182,o),
(323,-212,o),
(380,-212,cs),
(432,-212,o),
(473,-176,o),
(473,-121,cs),
(473,-75,o),
(443,-36,o),
(397,-36,cs),
(369,-36,o),
(351,-48,o),
(343,-68,c),
(337,-68,l),
(352,0,l),
(472,0,l),
(472,72,l),
(331,72,ls),
(312,72,o),
(304,83,o),
(304,102,cs),
(304,424,l),
(496,424,l),
(496,496,l),
(304,496,l),
(304,700,l),
(226,700,l),
(226,496,l),
(70,496,l),
(70,424,l),
(226,424,l),
(226,78,ls),
(226,33,o),
(258,0,o),
(303,0,c)
);
}
);
width = 612;
}
);
unicode = 355;
},
{
glyphname = tmacronbelow;
lastChange = "2024-08-23 01:43:07 +0000";
layers = (
{
guides = (
{
pos = (0,-64);
},
{
angle = 90;
pos = (472,0);
},
{
angle = 90;
pos = (226,0);
}
);
layerId = "F786B9CF-2625-4E74-A523-7F1B392BEC63";
shapes = (
{
closed = 1;
nodes = (
(472,-64,l),
(226,-64,l),
(226,-130,l),
(472,-130,l)
);
},
{
alignment = -1;
ref = t;
}
);
width = 612;
}
);
unicode = 7791;
},
{
glyphname = tturned;
lastChange = "2024-08-23 01:43:07 +0000";
layers = (
{
layerId = "F786B9CF-2625-4E74-A523-7F1B392BEC63";
shapes = (
{
closed = 1;
nodes = (
(528,72,l),
(372,72,l),
(372,418,ls),
(372,463,o),
(340,496,o),
(295,496,cs),
(126,496,l),
(126,424,l),
(267,424,ls),
(286,424,o),
(294,413,o),
(294,394,cs),
(294,72,l),
(102,72,l),
(102,0,l),
(294,0,l),
(294,-200,l),
(372,-200,l),
(372,0,l),
(528,0,l)
);
}
);
width = 612;
}
);
unicode = 647;
},
{
glyphname = u;
layers = (
{
layerId = "F786B9CF-2625-4E74-A523-7F1B392BEC63";
shapes = (
{
closed = 1;
nodes = (
(441,238,l),
(441,130,o),
(383,60,o),
(289,60,cs),
(201,60,o),
(159,106,o),
(159,210,cs),
(159,496,l),
(81,496,l),
(81,200,ls),
(81,58,o),
(157,-14,o),
(267,-14,cs),
(347,-14,o),
(397,26,o),
(429,90,c),
(441,90,l),
(441,0,l),
(519,0,l),
(519,496,l),
(441,496,l)
);
}
);
width = 612;
}
);
unicode = 117;
},
{
glyphname = udieresismacron;
lastChange = "2024-08-23 01:43:07 +0000";
layers = (
{
guides = (
{
angle = 90;
pos = (159,0);
},
{
angle = 90;
pos = (441,0);
},
{
angle = 90;
pos = (130,0);
},
{
angle = 90;
pos = (470,0);
}
);
layerId = "F786B9CF-2625-4E74-A523-7F1B392BEC63";
shapes = (
{
closed = 1;
nodes = (
(470,810,l),
(130,810,l),
(130,744,l),
(470,744,l)
);
},
{
alignment = -1;
ref = u;
},
{
alignment = -1;
pos = (-6,0);
ref = dieresis;
}
);
width = 612;
}
);
unicode = 470;
},
{
glyphname = uhookabove;
lastChange = "2024-08-23 01:43:07 +0000";
layers = (
{
guides = (
{
angle = 90;
pos = (300,0);
},
{
angle = 90;
pos = (289,0);
}
);
layerId = "F786B9CF-2625-4E74-A523-7F1B392BEC63";
shapes = (
{
closed = 1;
nodes = (
(266,546,l),
(246,638,l),
(246,644,l),
(322,644,l),
(326,636,o),
(335,630,o),
(347,630,cs),
(366,630,o),
(382,644,o),
(382,668,cs),
(382,697,o),
(362,710,o),
(342,710,cs),
(313,710,o),
(298,690,o),
(294,670,c),
(246,688,l),
(256,728,o),
(286,758,o),
(343,758,cs),
(395,758,o),
(436,722,o),
(436,667,cs),
(436,621,o),
(406,582,o),
(360,582,cs),
(332,582,o),
(314,594,o),
(306,614,c),
(300,614,l),
(315,546,l)
);
},
{
alignment = -1;
ref = u;
}
);
width = 612;
}
);
unicode = 7911;
},
{
glyphname = uhorn;
lastChange = "2024-08-23 01:43:07 +0000";
layers = (
{
layerId = "F786B9CF-2625-4E74-A523-7F1B392BEC63";
shapes = (
{
closed = 1;
nodes = (
(352,208,ls),
(352,118,o),
(312,60,o),
(226,60,cs),
(156,60,o),
(118,96,o),
(118,180,cs),
(118,496,l),
(40,496,l),
(40,166,ls),
(40,50,o),
(104,-14,o),
(208,-14,cs),
(282,-14,o),
(318,20,o),
(340,68,c),
(352,68,l),
(352,0,l),
(430,0,l),
(430,250,l),
(529,250,ls),
(574,250,o),
(606,283,o),
(606,328,cs),
(606,426,ls),
(606,464,o),
(574,496,o),
(536,496,cs),
(498,496,o),
(466,464,o),
(466,426,cs),
(466,388,o),
(498,356,o),
(535,356,cs),
(541,356,o),
(547,357,o),
(552,359,c),
(552,334,ls),
(552,315,o),
(544,304,o),
(525,304,cs),
(430,304,l),
(430,496,l),
(352,496,l)
);
}
);
width = 612;
}
);
unicode = 432;
},
{
glyphname = uogonek;
layers = (
{
associatedMasterId = "F786B9CF-2625-4E74-A523-7F1B392BEC63";
layerId = "60B433FB-7962-4D91-9D7B-25075E58E57A";
name = img;
width = 612;
},
{
guides = (
{
angle = 90;
pos = (519,0);
}
);
layerId = "F786B9CF-2625-4E74-A523-7F1B392BEC63";
shapes = (
{
closed = 1;
nodes = (
(441,238,ls),
(441,130,o),
(383,60,o),
(289,60,cs),
(201,60,o),
(159,106,o),
(159,210,cs),
(159,496,l),
(81,496,l),
(81,200,ls),
(81,58,o),
(157,-14,o),
(267,-14,cs),
(347,-14,o),
(397,26,o),
(429,90,c),
(441,90,l),
(407,-66,ls),
(405,-76,o),
(404,-83,o),
(404,-90,cs),
(404,-139,o),
(443,-164,o),
(482,-164,cs),
(538,-164,l),
(538,-98,l),
(496,-98,ls),
(482,-98,o),
(473,-90,o),
(473,-76,cs),
(473,-75,o),
(473,-73,o),
(474,-68,cs),
(490,0,l),
(519,0,l),
(519,496,l),
(441,496,l)
);
}
);
width = 612;
}
);
unicode = 371;
},
{
glyphname = v;
layers = (
{
layerId = "F786B9CF-2625-4E74-A523-7F1B392BEC63";
shapes = (
{
closed = 1;
nodes = (
(555,496,l),
(463,496,l),
(311,36,l),
(299,36,l),
(147,496,l),
(55,496,l),
(228,0,l),
(382,0,l)
);
}
);
width = 612;
}
);
unicode = 118;
},
{
glyphname = w;
layers = (
{
layerId = "F786B9CF-2625-4E74-A523-7F1B392BEC63";
shapes = (
{
closed = 1;
nodes = (
(594,496,l),
(514,496,l),
(448,36,l),
(436,36,l),
(378,496,l),
(234,496,l),
(176,36,l),
(164,36,l),
(98,496,l),
(18,496,l),
(96,0,l),
(240,0,l),
(300,460,l),
(312,460,l),
(372,0,l),
(516,0,l)
);
}
);
width = 612;
}
);
unicode = 119;
},
{
glyphname = x;
layers = (
{
guides = (
{
pos = (0,254);
}
);
layerId = "F786B9CF-2625-4E74-A523-7F1B392BEC63";
shapes = (
{
closed = 1;
nodes = (
(315,290,l),
(297,290,l),
(172,496,l),
(83,496,l),
(229,260,l),
(229,248,l),
(71,0,l),
(162,0,l),
(297,218,l),
(315,218,l),
(450,0,l),
(541,0,l),
(383,248,l),
(383,260,l),
(529,496,l),
(440,496,l)
);
}
);
width = 612;
}
);
unicode = 120;
},
{
glyphname = y;
layers = (
{
layerId = "F786B9CF-2625-4E74-A523-7F1B392BEC63";
shapes = (
{
closed = 1;
nodes = (
(447,-98,ls),
(447,-117,o),
(439,-128,o),
(420,-128,cs),
(165,-128,l),
(165,-200,l),
(448,-200,ls),
(493,-200,o),
(525,-167,o),
(525,-122,cs),
(525,496,l),
(447,496,l),
(447,238,ls),
(447,130,o),
(389,60,o),
(295,60,cs),
(207,60,o),
(165,106,o),
(165,210,cs),
(165,496,l),
(87,496,l),
(87,200,ls),
(87,58,o),
(163,-14,o),
(273,-14,cs),
(353,-14,o),
(403,26,o),
(435,90,c),
(447,90,l)
);
}
);
width = 612;
}
);
unicode = 121;
},
{
glyphname = ydotbelow;
lastChange = "2024-08-23 01:43:07 +0000";
layers = (
{
guides = (
{
pos = (0,-134);
},
{
angle = 90;
pos = (556,0);
},
{
angle = 90;
pos = (464,0);
},
{
angle = 90;
pos = (375,0);
},
{
angle = 90;
pos = (87,0);
},
{
angle = 90;
pos = (267,0);
}
);
layerId = "F786B9CF-2625-4E74-A523-7F1B392BEC63";
shapes = (
{
closed = 1;
nodes = (
(447,-68,ls),
(447,-87,o),
(439,-98,o),
(420,-98,cs),
(275,-98,l),
(275,-170,l),
(448,-170,ls),
(493,-170,o),
(525,-137,o),
(525,-92,cs),
(525,496,l),
(447,496,l),
(447,238,ls),
(447,130,o),
(389,60,o),
(295,60,cs),
(207,60,o),
(165,106,o),
(165,210,cs),
(165,496,l),
(87,496,l),
(87,200,ls),
(87,58,o),
(163,-14,o),
(273,-14,cs),
(353,-14,o),
(403,26,o),
(435,90,c),
(447,90,l)
);
},
{
alignment = -1;
pos = (-149,-190);
ref = period;
}
);
width = 612;
}
);
unicode = 7925;
},
{
glyphname = yhookabove;
lastChange = "2024-08-23 01:43:07 +0000";
layers = (
{
guides = (
{
pos = (0,570);
},
{
pos = (0,546);
},
{
angle = 90;
pos = (295,0);
},
{
angle = 90;
pos = (273,0);
}
);
layerId = "F786B9CF-2625-4E74-A523-7F1B392BEC63";
shapes = (
{
closed = 1;
nodes = (
(267,546,l),
(247,638,l),
(247,644,l),
(323,644,l),
(327,636,o),
(336,630,o),
(348,630,cs),
(367,630,o),
(383,644,o),
(383,668,cs),
(383,697,o),
(363,710,o),
(343,710,cs),
(314,710,o),
(299,690,o),
(295,670,c),
(247,688,l),
(257,728,o),
(287,758,o),
(344,758,cs),
(396,758,o),
(437,722,o),
(437,667,cs),
(437,621,o),
(407,582,o),
(361,582,cs),
(333,582,o),
(315,594,o),
(307,614,c),
(301,614,l),
(316,546,l)
);
},
{
alignment = -1;
ref = y;
}
);
width = 612;
}
);
unicode = 7927;
},
{
glyphname = yturned;
lastChange = "2024-08-23 01:43:07 +0000";
layers = (
{
layerId = "F786B9CF-2625-4E74-A523-7F1B392BEC63";
shapes = (
{
closed = 1;
nodes = (
(56,0,l),
(148,0,l),
(300,436,l),
(312,436,l),
(464,0,l),
(556,0,l),
(375,496,l),
(345,496,l),
(345,598,ls),
(345,617,o),
(353,628,o),
(372,628,cs),
(538,628,l),
(538,700,l),
(344,700,ls),
(299,700,o),
(267,667,o),
(267,622,cs),
(267,496,l),
(237,496,l)
);
}
);
width = 612;
}
);
unicode = 654;
},
{
glyphname = z;
layers = (
{
layerId = "F786B9CF-2625-4E74-A523-7F1B392BEC63";
shapes = (
{
closed = 1;
nodes = (
(155,72,l),
(155,84,l),
(511,376,l),
(511,496,l),
(97,496,l),
(97,424,l),
(445,424,l),
(445,412,l),
(91,124,l),
(91,0,l),
(523,0,l),
(523,72,l)
);
}
);
width = 612;
}
);
unicode = 122;
},
{
glyphname = a.alt;
layers = (
{
layerId = "F786B9CF-2625-4E74-A523-7F1B392BEC63";
shapes = (
{
closed = 1;
nodes = (
(420,78,ls),
(420,33,o),
(452,0,o),
(497,0,cs),
(550,0,l),
(550,72,l),
(525,72,ls),
(506,72,o),
(498,83,o),
(498,102,cs),
(498,321,ls),
(498,430,o),
(414,510,o),
(292,510,cs),
(174,510,o),
(108,435,o),
(93,348,c),
(167,330,l),
(178,400,o),
(223,438,o),
(292,438,cs),
(382,438,o),
(420,378,o),
(420,320,cs),
(420,300,l),
(257,300,ls),
(157,300,o),
(81,242,o),
(81,148,cs),
(81,136,ls),
(81,54,o),
(145,-14,o),
(255,-14,cs),
(331,-14,o),
(382,24,o),
(408,84,c),
(420,84,l)
);
},
{
closed = 1;
nodes = (
(196,58,o),
(158,93,o),
(158,142,cs),
(158,200,o),
(199,228,o),
(266,228,cs),
(419,228,l),
(419,216,ls),
(419,122,o),
(364,58,o),
(262,58,cs)
);
}
);
width = 612;
}
);
},
{
glyphname = abrevehookabove.alt;
lastChange = "2024-08-23 01:43:07 +0000";
layers = (
{
guides = (
{
angle = 90;
pos = (292,0);
}
);
layerId = "F786B9CF-2625-4E74-A523-7F1B392BEC63";
shapes = (
{
closed = 1;
nodes = (
(267,718,l),
(247,810,l),
(247,816,l),
(323,816,l),
(327,808,o),
(336,802,o),
(348,802,cs),
(367,802,o),
(383,816,o),
(383,840,cs),
(383,869,o),
(363,882,o),
(343,882,cs),
(314,882,o),
(299,862,o),
(295,842,c),
(247,860,l),
(257,900,o),
(287,930,o),
(344,930,cs),
(396,930,o),
(437,894,o),
(437,839,cs),
(437,793,o),
(407,754,o),
(361,754,cs),
(333,754,o),
(315,766,o),
(307,786,c),
(301,786,l),
(316,718,l)
);
},
{
alignment = -1;
ref = a.alt;
},
{
alignment = -1;
pos = (-14,0);
ref = breve;
}
);
width = 612;
}
);
},
{
glyphname = acircumflexhookabove.alt;
lastChange = "2024-08-23 01:43:07 +0000";
layers = (
{
guides = (
{
angle = 90;
pos = (292,0);
}
);
layerId = "F786B9CF-2625-4E74-A523-7F1B392BEC63";
shapes = (
{
closed = 1;
nodes = (
(411,658,l),
(391,750,l),
(391,756,l),
(467,756,l),
(471,748,o),
(480,742,o),
(492,742,cs),
(511,742,o),
(527,756,o),
(527,780,cs),
(527,809,o),
(507,822,o),
(487,822,cs),
(458,822,o),
(443,802,o),
(439,782,c),
(391,800,l),
(401,840,o),
(431,870,o),
(488,870,cs),
(540,870,o),
(581,834,o),
(581,779,cs),
(581,733,o),
(551,694,o),
(505,694,cs),
(477,694,o),
(459,706,o),
(451,726,c),
(445,726,l),
(460,658,l)
);
},
{
alignment = -1;
ref = a.alt;
},
{
alignment = -1;
pos = (-14,0);
ref = circumflex;
}
);
width = 612;
}
);
},
{
glyphname = ahookabove.alt;
lastChange = "2024-08-23 01:43:07 +0000";
layers = (
{
guides = (
{
pos = (0,546);
},
{
angle = 90;
pos = (292,0);
}
);
layerId = "F786B9CF-2625-4E74-A523-7F1B392BEC63";
shapes = (
{
closed = 1;
nodes = (
(258,546,l),
(238,638,l),
(238,644,l),
(314,644,l),
(318,636,o),
(327,630,o),
(339,630,cs),
(358,630,o),
(374,644,o),
(374,668,cs),
(374,697,o),
(354,710,o),
(334,710,cs),
(305,710,o),
(290,690,o),
(286,670,c),
(238,688,l),
(248,728,o),
(278,758,o),
(335,758,cs),
(387,758,o),
(428,722,o),
(428,667,cs),
(428,621,o),
(398,582,o),
(352,582,cs),
(324,582,o),
(306,594,o),
(298,614,c),
(292,614,l),
(307,546,l)
);
},
{
alignment = -1;
ref = a.alt;
}
);
width = 612;
}
);
},
{
glyphname = aogonek.alt;
layers = (
{
layerId = "F786B9CF-2625-4E74-A523-7F1B392BEC63";
shapes = (
{
closed = 1;
nodes = (
(420,78,ls),
(420,57,o),
(427,38,o),
(439,25,c),
(419,-66,ls),
(417,-76,o),
(416,-83,o),
(416,-90,cs),
(416,-139,o),
(455,-164,o),
(494,-164,cs),
(550,-164,l),
(550,-98,l),
(508,-98,ls),
(494,-98,o),
(485,-90,o),
(485,-76,cs),
(485,-75,o),
(485,-73,o),
(486,-68,cs),
(502,0,l),
(550,0,l),
(550,72,l),
(525,72,ls),
(506,72,o),
(498,83,o),
(498,102,cs),
(498,321,ls),
(498,430,o),
(414,510,o),
(292,510,cs),
(174,510,o),
(108,435,o),
(93,348,c),
(167,330,l),
(178,400,o),
(223,438,o),
(292,438,cs),
(382,438,o),
(420,378,o),
(420,320,cs),
(420,300,l),
(257,300,ls),
(157,300,o),
(81,242,o),
(81,148,cs),
(81,136,ls),
(81,54,o),
(145,-14,o),
(255,-14,cs),
(331,-14,o),
(382,24,o),
(408,84,c),
(420,84,l)
);
},
{
closed = 1;
nodes = (
(196,58,o),
(158,93,o),
(158,142,cs),
(158,200,o),
(199,228,o),
(266,228,cs),
(419,228,l),
(419,216,ls),
(419,122,o),
(364,58,o),
(262,58,cs)
);
}
);
width = 612;
}
);
},
{
glyphname = g.alt;
layers = (
{
guides = (
{
pos = (0,-188);
},
{
pos = (0,216);
}
);
layerId = "F786B9CF-2625-4E74-A523-7F1B392BEC63";
shapes = (
{
closed = 1;
nodes = (
(256,72,ls),
(208,72,o),
(180,86,o),
(180,126,cs),
(180,142,o),
(189,159,o),
(199,165,c),
(229,148,o),
(259,138,o),
(307,138,cs),
(418,138,o),
(496,212,o),
(496,310,cs),
(496,354,o),
(479,394,o),
(449,411,c),
(449,423,l),
(533,423,l),
(533,496,l),
(378,496,l),
(360,504,o),
(330,510,o),
(305,510,cs),
(197,510,o),
(113,437,o),
(113,330,cs),
(113,318,ls),
(113,268,o),
(136,222,o),
(163,196,c),
(163,184,l),
(141,175,o),
(106,150,o),
(106,103,cs),
(106,60,o),
(130,40,o),
(154,29,c),
(154,17,l),
(124,4,o),
(98,-33,o),
(98,-77,cs),
(98,-150,o),
(150,-200,o),
(251,-200,cs),
(378,-200,ls),
(480,-200,o),
(533,-140,o),
(533,-68,cs),
(533,-62,ls),
(533,14,o),
(480,72,o),
(378,72,cs)
);
},
{
closed = 1;
nodes = (
(368,437,o),
(422,396,o),
(422,327,cs),
(422,321,ls),
(422,253,o),
(372,211,o),
(305,211,cs),
(239,211,o),
(188,253,o),
(188,321,cs),
(188,327,ls),
(188,396,o),
(243,437,o),
(305,437,cs)
);
},
{
closed = 1;
nodes = (
(380,0,ls),
(424,0,o),
(455,-23,o),
(455,-64,cs),
(455,-105,o),
(424,-128,o),
(380,-128,cs),
(251,-128,ls),
(207,-128,o),
(176,-105,o),
(176,-64,cs),
(176,-23,o),
(207,0,o),
(251,0,cs)
);
}
);
width = 612;
}
);
},
{
glyphname = i.alt;
layers = (
{
layerId = "F786B9CF-2625-4E74-A523-7F1B392BEC63";
shapes = (
{
closed = 1;
nodes = (
(258,606,o),
(290,574,o),
(328,574,cs),
(366,574,o),
(398,606,o),
(398,644,cs),
(398,682,o),
(366,714,o),
(328,714,cs),
(290,714,o),
(258,682,o),
(258,644,cs)
);
},
{
closed = 1;
nodes = (
(368,0,l),
(368,496,l),
(120,496,l),
(120,424,l),
(290,424,l),
(290,0,l)
);
}
);
width = 612;
}
);
},
{
glyphname = idotless.alt;
lastChange = "2024-08-23 01:43:07 +0000";
layers = (
{
layerId = "F786B9CF-2625-4E74-A523-7F1B392BEC63";
shapes = (
{
closed = 1;
nodes = (
(368,0,l),
(368,496,l),
(120,496,l),
(120,424,l),
(290,424,l),
(290,0,l)
);
}
);
width = 612;
}
);
},
{
glyphname = ihookabove.alt;
lastChange = "2024-08-23 01:43:07 +0000";
layers = (
{
guides = (
{
angle = 90;
pos = (273,0);
},
{
angle = 90;
pos = (351,0);
}
);
layerId = "F786B9CF-2625-4E74-A523-7F1B392BEC63";
shapes = (
{
closed = 1;
nodes = (
(304,546,l),
(284,638,l),
(284,644,l),
(360,644,l),
(364,636,o),
(373,630,o),
(385,630,cs),
(404,630,o),
(420,644,o),
(420,668,cs),
(420,697,o),
(400,710,o),
(380,710,cs),
(351,710,o),
(336,690,o),
(332,670,c),
(284,688,l),
(294,728,o),
(324,758,o),
(381,758,cs),
(433,758,o),
(474,722,o),
(474,667,cs),
(474,621,o),
(444,582,o),
(398,582,cs),
(370,582,o),
(352,594,o),
(344,614,c),
(338,614,l),
(353,546,l)
);
},
{
alignment = -1;
ref = idotless.alt;
}
);
width = 612;
}
);
},
{
glyphname = imacron.alt;
layers = (
{
guides = (
{
angle = 90;
pos = (120,0);
},
{
angle = 90;
pos = (368,0);
}
);
layerId = "F786B9CF-2625-4E74-A523-7F1B392BEC63";
shapes = (
{
closed = 1;
nodes = (
(368,636,l),
(120,636,l),
(120,570,l),
(368,570,l)
);
},
{
alignment = -1;
ref = idotless.alt;
}
);
width = 612;
}
);
},
{
glyphname = iogonek.alt;
layers = (
{
guides = (
{
pos = (0,6);
}
);
layerId = "F786B9CF-2625-4E74-A523-7F1B392BEC63";
shapes = (
{
closed = 1;
nodes = (
(350,0,l),
(368,0,l),
(368,496,l),
(120,496,l),
(120,424,l),
(290,424,l),
(290,42,l),
(267,-66,ls),
(265,-76,o),
(264,-83,o),
(264,-90,cs),
(264,-139,o),
(303,-164,o),
(342,-164,cs),
(398,-164,l),
(398,-98,l),
(356,-98,ls),
(342,-98,o),
(333,-90,o),
(333,-76,cs),
(333,-75,o),
(333,-73,o),
(334,-68,cs)
);
},
{
closed = 1;
nodes = (
(258,606,o),
(290,574,o),
(328,574,cs),
(366,574,o),
(398,606,o),
(398,644,cs),
(398,682,o),
(366,714,o),
(328,714,cs),
(290,714,o),
(258,682,o),
(258,644,cs)
);
}
);
width = 612;
}
);
},
{
glyphname = j.alt;
layers = (
{
layerId = "F786B9CF-2625-4E74-A523-7F1B392BEC63";
shapes = (
{
closed = 1;
nodes = (
(307,606,o),
(339,574,o),
(377,574,cs),
(415,574,o),
(447,606,o),
(447,644,cs),
(447,682,o),
(415,714,o),
(377,714,cs),
(339,714,o),
(307,682,o),
(307,644,cs)
);
},
{
closed = 1;
nodes = (
(129,424,l),
(339,424,l),
(339,-200,l),
(417,-200,l),
(417,496,l),
(129,496,l)
);
}
);
width = 612;
}
);
},
{
glyphname = jcircumflex.alt;
layers = (
{
guides = (
{
angle = 90;
pos = (273,0);
},
{
angle = 90;
pos = (339,0);
},
{
angle = 90;
pos = (417,0);
}
);
layerId = "F786B9CF-2625-4E74-A523-7F1B392BEC63";
shapes = (
{
closed = 1;
nodes = (
(129,424,l),
(339,424,l),
(339,-200,l),
(417,-200,l),
(417,496,l),
(129,496,l)
);
},
{
alignment = -1;
pos = (72,0);
ref = circumflex;
}
);
width = 612;
}
);
},
{
glyphname = l.alt;
layers = (
{
layerId = "F786B9CF-2625-4E74-A523-7F1B392BEC63";
shapes = (
{
closed = 1;
nodes = (
(348,0,l),
(348,700,l),
(100,700,l),
(100,628,l),
(270,628,l),
(270,0,l)
);
}
);
width = 612;
}
);
},
{
glyphname = ldotbelowmacron.alt;
lastChange = "2024-08-23 01:43:07 +0000";
layers = (
{
guides = (
{
angle = 90;
pos = (100,0);
},
{
angle = 90;
pos = (348,0);
}
);
layerId = "F786B9CF-2625-4E74-A523-7F1B392BEC63";
shapes = (
{
closed = 1;
nodes = (
(348,840,l),
(100,840,l),
(100,774,l),
(348,774,l)
);
},
{
alignment = -1;
ref = l.alt;
}
);
width = 612;
}
);
},
{
glyphname = lslash.alt;
layers = (
{
layerId = "F786B9CF-2625-4E74-A523-7F1B392BEC63";
shapes = (
{
closed = 1;
nodes = (
(348,0,l),
(348,315,l),
(447,366,l),
(413,433,l),
(348,400,l),
(348,700,l),
(100,700,l),
(100,628,l),
(270,628,l),
(270,360,l),
(172,311,l),
(207,243,l),
(270,275,l),
(270,0,l)
);
}
);
width = 612;
}
);
},
{
glyphname = r.alt;
layers = (
{
layerId = "F786B9CF-2625-4E74-A523-7F1B392BEC63";
shapes = (
{
closed = 1;
nodes = (
(44,424,l),
(146,424,l),
(146,0,l),
(224,0,l),
(224,282,ls),
(224,368,o),
(262,436,o),
(344,436,cs),
(408,436,o),
(458,398,o),
(458,306,c),
(540,318,l),
(536,443,o),
(469,510,o),
(370,510,cs),
(311,510,o),
(261,484,o),
(236,430,c),
(224,430,l),
(224,496,l),
(44,496,l)
);
}
);
width = 612;
}
);
},
{
glyphname = y.alt;
layers = (
{
layerId = "F786B9CF-2625-4E74-A523-7F1B392BEC63";
shapes = (
{
closed = 1;
nodes = (
(556,496,l),
(464,496,l),
(312,60,l),
(300,60,l),
(148,496,l),
(56,496,l),
(237,0,l),
(267,0,l),
(267,-98,ls),
(267,-117,o),
(259,-128,o),
(240,-128,cs),
(74,-128,l),
(74,-200,l),
(268,-200,ls),
(313,-200,o),
(345,-167,o),
(345,-122,cs),
(345,0,l),
(375,0,l)
);
}
);
width = 612;
}
);
},
{
glyphname = yhookabove.alt;
lastChange = "2024-08-23 01:43:07 +0000";
layers = (
{
guides = (
{
pos = (0,546);
},
{
angle = 90;
pos = (306,0);
}
);
layerId = "F786B9CF-2625-4E74-A523-7F1B392BEC63";
shapes = (
{
closed = 1;
nodes = (
(272,546,l),
(252,638,l),
(252,644,l),
(328,644,l),
(332,636,o),
(341,630,o),
(353,630,cs),
(372,630,o),
(388,644,o),
(388,668,cs),
(388,697,o),
(368,710,o),
(348,710,cs),
(319,710,o),
(304,690,o),
(300,670,c),
(252,688,l),
(262,728,o),
(292,758,o),
(349,758,cs),
(401,758,o),
(442,722,o),
(442,667,cs),
(442,621,o),
(412,582,o),
(366,582,cs),
(338,582,o),
(320,594,o),
(312,614,c),
(306,614,l),
(321,546,l)
);
},
{
alignment = -1;
ref = y.alt;
}
);
width = 612;
}
);
},
{
glyphname = fi;
layers = (
{
layerId = "F786B9CF-2625-4E74-A523-7F1B392BEC63";
shapes = (
{
closed = 1;
nodes = (
(384,606,o),
(416,574,o),
(454,574,cs),
(492,574,o),
(524,606,o),
(524,644,cs),
(524,682,o),
(492,714,o),
(454,714,cs),
(416,714,o),
(384,682,o),
(384,644,cs)
);
},
{
closed = 1;
nodes = (
(494,0,l),
(494,496,l),
(243,496,l),
(243,578,ls),
(243,597,o),
(251,608,o),
(270,608,cs),
(348,608,l),
(348,680,l),
(242,680,ls),
(197,680,o),
(165,647,o),
(165,602,cs),
(165,496,l),
(48,496,l),
(48,424,l),
(165,424,l),
(165,0,l),
(243,0,l),
(243,424,l),
(416,424,l),
(416,0,l)
);
}
);
width = 612;
}
);
unicode = 64257;
},
{
glyphname = fl;
layers = (
{
layerId = "F786B9CF-2625-4E74-A523-7F1B392BEC63";
shapes = (
{
closed = 1;
nodes = (
(416,0,l),
(494,0,l),
(494,700,l),
(242,700,ls),
(197,700,o),
(165,667,o),
(165,622,cs),
(165,496,l),
(48,496,l),
(48,424,l),
(165,424,l),
(165,0,l),
(243,0,l),
(243,424,l),
(368,424,l),
(368,496,l),
(243,496,l),
(243,598,ls),
(243,617,o),
(251,628,o),
(270,628,cs),
(416,628,l)
);
}
);
width = 612;
}
);
unicode = 64258;
},
{
glyphname = schwainferior;
lastChange = "2024-08-23 01:43:07 +0000";
layers = (
{
guides = (
{
pos = (0,46);
},
{
pos = (0,-158);
}
);
layerId = "F786B9CF-2625-4E74-A523-7F1B392BEC63";
shapes = (
{
closed = 1;
nodes = (
(169,-42,l),
(169,-74,ls),
(169,-130,o),
(209,-206,o),
(303,-206,cs),
(385,-206,o),
(443,-146,o),
(443,-65,cs),
(443,-51,ls),
(443,38,o),
(384,94,o),
(303,94,cs),
(242,94,o),
(198,62,o),
(177,9,c),
(224,-11,l),
(236,19,o),
(259,46,o),
(305,46,cs),
(350,46,o),
(387,13,o),
(389,-42,c)
);
},
{
closed = 1;
nodes = (
(255,-158,o),
(227,-125,o),
(223,-90,c),
(388,-90,l),
(380,-124,o),
(356,-158,o),
(303,-158,cs)
);
}
);
width = 612;
}
);
unicode = 8340;
},
{
glyphname = ordfeminine;
layers = (
{
guides = (
{
pos = (0,406);
}
);
layerId = "F786B9CF-2625-4E74-A523-7F1B392BEC63";
shapes = (
{
closed = 1;
nodes = (
(379,452,l),
(381,426,o),
(401,412,o),
(427,412,cs),
(475,412,l),
(475,472,l),
(461,472,ls),
(450,472,o),
(445,479,o),
(445,489,cs),
(445,698,l),
(379,698,l),
(379,666,l),
(373,666,l),
(358,692,o),
(331,706,o),
(291,706,cs),
(217,706,o),
(157,651,o),
(157,556,cs),
(157,460,o),
(217,406,o),
(289,406,cs),
(325,406,o),
(360,420,o),
(373,452,c)
);
},
{
closed = 1;
nodes = (
(253,466,o),
(223,498,o),
(223,556,cs),
(223,608,o),
(253,646,o),
(301,646,cs),
(348,646,o),
(379,616,o),
(379,556,cs),
(379,494,o),
(343,466,o),
(301,466,cs)
);
}
);
width = 612;
}
);
unicode = 170;
},
{
glyphname = ordmasculine;
layers = (
{
guides = (
{
pos = (0,406);
}
);
layerId = "F786B9CF-2625-4E74-A523-7F1B392BEC63";
shapes = (
{
closed = 1;
nodes = (
(157,458,o),
(230,406,o),
(306,406,cs),
(382,406,o),
(455,458,o),
(455,556,cs),
(455,654,o),
(382,706,o),
(306,706,cs),
(230,706,o),
(157,654,o),
(157,556,cs)
);
},
{
closed = 1;
nodes = (
(261,466,o),
(223,498,o),
(223,556,cs),
(223,614,o),
(261,646,o),
(306,646,cs),
(351,646,o),
(389,614,o),
(389,556,cs),
(389,498,o),
(351,466,o),
(306,466,cs)
);
}
);
width = 612;
}
);
unicode = 186;
},
{
glyphname = isuperior;
lastChange = "2024-08-23 01:46:57 +0000";
layers = (
{
guides = (
{
pos = (0,412);
},
{
angle = 90;
pos = (319,0);
}
);
layerId = "F786B9CF-2625-4E74-A523-7F1B392BEC63";
shapes = (
{
closed = 1;
nodes = (
(364,810,o),
(344,830,o),
(319,830,cs),
(294,830,o),
(274,810,o),
(274,785,cs),
(274,760,o),
(294,740,o),
(319,740,cs),
(344,740,o),
(364,760,o),
(364,785,cs)
);
},
{
closed = 1;
nodes = (
(196,412,l),
(436,412,l),
(436,460,l),
(346,460,l),
(346,700,l),
(204,700,l),
(204,652,l),
(292,652,l),
(292,460,l),
(196,460,l)
);
}
);
width = 612;
}
);
unicode = 8305;
},
{
glyphname = nsuperior;
lastChange = "2024-08-23 01:45:13 +0000";
layers = (
{
guides = (
{
pos = (0,412);
}
);
layerId = "F786B9CF-2625-4E74-A523-7F1B392BEC63";
shapes = (
{
closed = 1;
nodes = (
(240,566,ls),
(240,620,o),
(262,658,o),
(314,658,cs),
(360,658,o),
(384,630,o),
(384,576,cs),
(384,412,l),
(438,412,l),
(438,586,ls),
(438,666,o),
(398,706,o),
(330,706,cs),
(290,706,o),
(261,688,o),
(246,660,c),
(240,660,l),
(240,700,l),
(186,700,l),
(186,412,l),
(240,412,l)
);
}
);
width = 612;
}
);
unicode = 8319;
},
{
glyphname = pi;
layers = (
{
layerId = "F786B9CF-2625-4E74-A523-7F1B392BEC63";
shapes = (
{
closed = 1;
nodes = (
(218,0,l),
(218,424,l),
(396,424,l),
(396,78,ls),
(396,33,o),
(428,0,o),
(473,0,cs),
(546,0,l),
(546,72,l),
(501,72,ls),
(482,72,o),
(474,83,o),
(474,102,cs),
(474,424,l),
(546,424,l),
(546,496,l),
(68,496,l),
(68,424,l),
(140,424,l),
(140,0,l)
);
}
);
width = 612;
}
);
unicode = 960;
},
{
glyphname = zero;
layers = (
{
layerId = "F786B9CF-2625-4E74-A523-7F1B392BEC63";
shapes = (
{
closed = 1;
nodes = (
(60,272,ls),
(60,86,o),
(152,-14,o),
(306,-14,cs),
(460,-14,o),
(552,86,o),
(552,272,cs),
(552,428,ls),
(552,608,o),
(460,714,o),
(306,714,cs),
(152,714,o),
(60,608,o),
(60,428,cs)
);
},
{
closed = 1;
nodes = (
(198,62,o),
(144,142,o),
(144,278,cs),
(144,422,ls),
(144,550,o),
(198,638,o),
(306,638,cs),
(414,638,o),
(468,550,o),
(468,422,cs),
(468,278,ls),
(468,142,o),
(414,62,o),
(306,62,cs)
);
},
{
closed = 1;
nodes = (
(242,316,o),
(272,286,o),
(306,286,cs),
(340,286,o),
(370,316,o),
(370,350,cs),
(370,384,o),
(340,414,o),
(306,414,cs),
(272,414,o),
(242,384,o),
(242,350,cs)
);
}
);
width = 612;
}
);
unicode = 48;
},
{
glyphname = one;
layers = (
{
guides = (
{
pos = (0,860);
},
{
angle = 90;
pos = (-99,0);
}
);
layerId = "F786B9CF-2625-4E74-A523-7F1B392BEC63";
shapes = (
{
closed = 1;
nodes = (
(71,78,l),
(71,0,l),
(551,0,l),
(551,78,l),
(353,78,l),
(353,700,l),
(190,700,l),
(59,406,l),
(59,400,l),
(142,400,l),
(257,663,l),
(269,663,l),
(269,78,l)
);
}
);
width = 612;
}
);
unicode = 49;
},
{
glyphname = two;
layers = (
{
layerId = "F786B9CF-2625-4E74-A523-7F1B392BEC63";
shapes = (
{
closed = 1;
nodes = (
(154,78,l),
(154,108,ls),
(154,196,o),
(213,236,o),
(340,264,cs),
(486,296,o),
(550,375,o),
(550,481,cs),
(550,499,ls),
(550,606,o),
(472,714,o),
(310,714,cs),
(150,714,o),
(64,598,o),
(64,470,cs),
(64,420,l),
(148,420,l),
(148,464,ls),
(148,568,o),
(208,636,o),
(310,636,cs),
(420,636,o),
(466,562,o),
(466,490,cs),
(466,484,ls),
(466,413,o),
(416,362,o),
(298,336,cs),
(158,305,o),
(70,248,o),
(70,120,cs),
(70,0,l),
(544,0,l),
(544,78,l)
);
}
);
width = 612;
}
);
unicode = 50;
},
{
glyphname = three;
layers = (
{
layerId = "F786B9CF-2625-4E74-A523-7F1B392BEC63";
shapes = (
{
closed = 1;
nodes = (
(237,348,l),
(237,464,l),
(465,610,l),
(465,622,l),
(69,622,l),
(69,700,l),
(537,700,l),
(537,572,l),
(309,426,l),
(309,414,l),
(349,414,ls),
(455,414,o),
(555,344,o),
(555,217,cs),
(555,199,ls),
(555,78,o),
(453,-14,o),
(317,-14,cs),
(159,-14,o),
(63,90,o),
(63,218,cs),
(63,272,l),
(147,272,l),
(147,224,ls),
(147,124,o),
(219,64,o),
(315,64,cs),
(403,64,o),
(471,128,o),
(471,208,cs),
(471,214,ls),
(471,298,o),
(411,348,o),
(331,348,cs)
);
}
);
width = 612;
}
);
unicode = 51;
},
{
glyphname = four;
layers = (
{
layerId = "F786B9CF-2625-4E74-A523-7F1B392BEC63";
shapes = (
{
closed = 1;
nodes = (
(294,700,l),
(294,700,o),
(457,700,o),
(457,700,c),
(457,700,o),
(457,210,o),
(457,210,c),
(457,210,o),
(565,210,o),
(565,210,c),
(565,210,o),
(565,132,o),
(565,132,c),
(565,132,o),
(457,132,o),
(457,132,c),
(457,132,o),
(457,0,o),
(457,0,c),
(457,0,o),
(373,0,o),
(373,0,c),
(373,0,o),
(373,132,o),
(373,132,c),
(373,132,o),
(49,132,o),
(49,132,c),
(49,248,l)
);
},
{
closed = 1;
nodes = (
(121,222,l),
(121,210,l),
(121,210,o),
(373,210,o),
(373,210,c),
(373,210,o),
(373,664,o),
(373,664,c),
(373,664,o),
(361,664,o),
(361,664,c)
);
}
);
width = 612;
}
);
unicode = 52;
},
{
glyphname = five;
layers = (
{
layerId = "F786B9CF-2625-4E74-A523-7F1B392BEC63";
shapes = (
{
closed = 1;
nodes = (
(78,330,l),
(78,700,l),
(516,700,l),
(516,622,l),
(160,622,l),
(160,372,l),
(172,372,l),
(200,426,o),
(256,474,o),
(344,474,cs),
(472,474,o),
(564,386,o),
(564,252,cs),
(564,234,ls),
(564,102,o),
(478,-14,o),
(318,-14,cs),
(156,-14,o),
(66,88,o),
(66,224,cs),
(66,252,l),
(150,252,l),
(150,230,ls),
(150,120,o),
(218,64,o),
(318,64,cs),
(426,64,o),
(480,148,o),
(480,242,cs),
(480,248,ls),
(480,330,o),
(422,396,o),
(338,396,cs),
(282,396,o),
(244,360,o),
(236,330,c)
);
}
);
width = 612;
}
);
unicode = 53;
},
{
glyphname = six;
layers = (
{
guides = (
{
pos = (0,440);
},
{
pos = (0,462);
}
);
layerId = "F786B9CF-2625-4E74-A523-7F1B392BEC63";
shapes = (
{
closed = 1;
nodes = (
(537,496,l),
(537,630,o),
(438,714,o),
(304,714,cs),
(172,714,o),
(63,620,o),
(63,472,cs),
(63,217,ls),
(63,81,o),
(168,-14,o),
(306,-14,cs),
(444,-14,o),
(549,82,o),
(549,220,cs),
(549,232,ls),
(549,376,o),
(456,462,o),
(327,462,cs),
(254,462,o),
(191,426,o),
(159,368,c),
(147,368,l),
(147,472,ls),
(147,572,o),
(212,640,o),
(302,640,cs),
(396,640,o),
(453,582,o),
(453,496,c)
);
},
{
closed = 1;
nodes = (
(209,60,o),
(147,126,o),
(147,215,cs),
(147,234,ls),
(147,320,o),
(216,388,o),
(306,388,cs),
(398,388,o),
(465,323,o),
(465,230,cs),
(465,218,ls),
(465,126,o),
(403,60,o),
(306,60,cs)
);
}
);
width = 612;
}
);
unicode = 54;
},
{
glyphname = seven;
layers = (
{
layerId = "F786B9CF-2625-4E74-A523-7F1B392BEC63";
shapes = (
{
closed = 1;
nodes = (
(72,622,l),
(468,622,l),
(468,610,l),
(181,180,ls),
(139,117,o),
(120,84,o),
(120,36,cs),
(120,0,l),
(202,0,l),
(202,30,ls),
(202,62,o),
(217,90,o),
(245,132,cs),
(540,578,l),
(540,700,l),
(72,700,l)
);
}
);
width = 612;
}
);
unicode = 55;
},
{
glyphname = eight;
layers = (
{
guides = (
{
pos = (0,350);
}
);
layerId = "F786B9CF-2625-4E74-A523-7F1B392BEC63";
shapes = (
{
closed = 1;
nodes = (
(297,-14,o),
(315,-14,o),
(315,-14,c),
(456,-14,o),
(549,68,o),
(549,176,cs),
(549,188,ls),
(549,284,o),
(485,338,o),
(419,357,c),
(419,369,l),
(479,389,o),
(531,442,o),
(531,520,cs),
(531,532,ls),
(531,638,o),
(441,714,o),
(309,714,c),
(309,714,o),
(303,714,o),
(303,714,c),
(171,714,o),
(81,638,o),
(81,532,cs),
(81,520,ls),
(81,442,o),
(133,389,o),
(193,369,c),
(193,357,l),
(127,338,o),
(63,284,o),
(63,188,cs),
(63,176,ls),
(63,68,o),
(156,-14,o),
(297,-14,c)
);
},
{
closed = 1;
nodes = (
(300,62,ls),
(210,62,o),
(147,114,o),
(147,188,cs),
(147,194,ls),
(147,276,o),
(211,324,o),
(303,324,c),
(303,324,o),
(309,324,o),
(309,324,c),
(401,324,o),
(465,276,o),
(465,194,cs),
(465,188,ls),
(465,114,o),
(402,62,o),
(312,62,cs)
);
},
{
closed = 1;
nodes = (
(223,402,o),
(165,452,o),
(165,518,cs),
(165,524,ls),
(165,592,o),
(221,638,o),
(306,638,cs),
(391,638,o),
(447,592,o),
(447,524,cs),
(447,518,ls),
(447,452,o),
(389,402,o),
(306,402,cs)
);
}
);
width = 612;
}
);
unicode = 56;
},
{
glyphname = nine;
layers = (
{
layerId = "F786B9CF-2625-4E74-A523-7F1B392BEC63";
shapes = (
{
closed = 1;
nodes = (
(75,204,l),
(75,70,o),
(171,-14,o),
(308,-14,cs),
(443,-14,o),
(549,80,o),
(549,228,cs),
(549,480,ls),
(549,616,o),
(447,714,o),
(306,714,cs),
(165,714,o),
(63,615,o),
(63,477,cs),
(63,465,ls),
(63,321,o),
(157,238,o),
(287,238,cs),
(363,238,o),
(423,274,o),
(453,332,c),
(465,332,l),
(465,228,ls),
(465,128,o),
(400,60,o),
(310,60,cs),
(216,60,o),
(159,118,o),
(159,204,c)
);
},
{
closed = 1;
nodes = (
(403,640,o),
(465,571,o),
(465,482,cs),
(465,463,ls),
(465,377,o),
(396,312,o),
(306,312,cs),
(214,312,o),
(147,374,o),
(147,467,cs),
(147,479,ls),
(147,571,o),
(209,640,o),
(306,640,cs)
);
}
);
width = 612;
}
);
unicode = 57;
},
{
glyphname = zero.tosf;
lastChange = "2024-08-23 01:50:27 +0000";
layers = (
{
layerId = "F786B9CF-2625-4E74-A523-7F1B392BEC63";
shapes = (
{
closed = 1;
nodes = (
(242,214,o),
(272,184,o),
(306,184,cs),
(340,184,o),
(370,214,o),
(370,248,cs),
(370,282,o),
(340,312,o),
(306,312,cs),
(272,312,o),
(242,282,o),
(242,248,cs)
);
},
{
closed = 1;
nodes = (
(555,260,l),
(555,418,o),
(440,510,o),
(306,510,cs),
(172,510,o),
(57,418,o),
(57,260,cs),
(57,236,ls),
(57,78,o),
(172,-14,o),
(306,-14,cs),
(440,-14,o),
(555,78,o),
(555,236,c)
);
},
{
closed = 1;
nodes = (
(212,60,o),
(137,126,o),
(137,236,cs),
(137,260,ls),
(137,370,o),
(212,436,o),
(306,436,cs),
(400,436,o),
(475,370,o),
(475,260,cs),
(475,236,ls),
(475,126,o),
(400,60,o),
(306,60,cs)
);
}
);
width = 612;
}
);
},
{
glyphname = one.tosf;
lastChange = "2024-08-23 01:50:27 +0000";
layers = (
{
layerId = "F786B9CF-2625-4E74-A523-7F1B392BEC63";
shapes = (
{
closed = 1;
nodes = (
(81,78,l),
(81,0,l),
(537,0,l),
(537,78,l),
(363,78,l),
(363,496,l),
(200,496,l),
(75,286,l),
(75,280,l),
(164,280,l),
(267,459,l),
(279,459,l),
(279,78,l)
);
}
);
width = 612;
}
);
},
{
glyphname = two.tosf;
lastChange = "2024-08-23 01:50:27 +0000";
layers = (
{
layerId = "F786B9CF-2625-4E74-A523-7F1B392BEC63";
shapes = (
{
closed = 1;
nodes = (
(172,88,l),
(172,148,o),
(206,171,o),
(334,189,cs),
(482,210,o),
(532,260,o),
(532,348,cs),
(532,432,o),
(466,510,o),
(318,510,cs),
(174,510,o),
(100,428,o),
(84,330,c),
(164,312,l),
(176,390,o),
(230,432,o),
(318,432,cs),
(414,432,o),
(448,388,o),
(448,351,cs),
(448,298,o),
(410,277,o),
(292,261,cs),
(148,241,o),
(88,192,o),
(88,86,cs),
(88,0,l),
(526,0,l),
(526,78,l),
(172,78,l)
);
}
);
width = 612;
}
);
},
{
glyphname = three.tosf;
lastChange = "2024-08-23 01:50:27 +0000";
layers = (
{
layerId = "F786B9CF-2625-4E74-A523-7F1B392BEC63";
shapes = (
{
closed = 1;
nodes = (
(228,162,l),
(228,278,l),
(438,406,l),
(438,418,l),
(76,418,l),
(76,496,l),
(510,496,l),
(510,368,l),
(300,240,l),
(300,228,l),
(334,228,ls),
(437,228,o),
(528,157,o),
(528,30,cs),
(528,18,ls),
(528,-104,o),
(440,-200,o),
(304,-200,cs),
(144,-200,o),
(66,-98,o),
(58,28,c),
(142,42,l),
(148,-62,o),
(202,-122,o),
(300,-122,cs),
(388,-122,o),
(444,-64,o),
(444,25,cs),
(444,112,o),
(396,162,o),
(316,162,cs)
);
}
);
width = 612;
}
);
},
{
glyphname = four.tosf;
lastChange = "2024-08-23 01:50:27 +0000";
layers = (
{
layerId = "F786B9CF-2625-4E74-A523-7F1B392BEC63";
shapes = (
{
closed = 1;
nodes = (
(296,496,l),
(296,496,o),
(456,496,o),
(456,496,c),
(456,496,o),
(456,78,o),
(456,78,c),
(456,78,o),
(558,78,o),
(558,78,c),
(558,78,o),
(558,0,o),
(558,0,c),
(558,0,o),
(456,0,o),
(456,0,c),
(456,0,o),
(456,-194,o),
(456,-194,c),
(456,-194,o),
(372,-194,o),
(372,-194,c),
(372,-194,o),
(372,0,o),
(372,0,c),
(372,0,o),
(60,0,o),
(60,0,c),
(60,114,l)
);
},
{
closed = 1;
nodes = (
(132,90,l),
(132,78,l),
(132,78,o),
(372,78,o),
(372,78,c),
(372,78,o),
(372,460,o),
(372,460,c),
(372,460,o),
(360,460,o),
(360,460,c)
);
}
);
width = 612;
}
);
},
{
glyphname = five.tosf;
lastChange = "2024-08-23 01:50:27 +0000";
layers = (
{
layerId = "F786B9CF-2625-4E74-A523-7F1B392BEC63";
shapes = (
{
closed = 1;
nodes = (
(84,156,l),
(84,496,l),
(516,496,l),
(516,418,l),
(166,418,l),
(166,198,l),
(178,198,l),
(203,253,o),
(254,300,o),
(345,300,cs),
(474,300,o),
(558,200,o),
(558,68,cs),
(558,56,ls),
(558,-80,o),
(480,-200,o),
(318,-200,cs),
(158,-200,o),
(76,-100,o),
(70,30,c),
(154,42,l),
(158,-64,o),
(218,-122,o),
(320,-122,cs),
(428,-122,o),
(474,-34,o),
(474,60,cs),
(474,152,o),
(428,222,o),
(341,222,cs),
(282,222,o),
(251,185,o),
(242,156,c)
);
}
);
width = 612;
}
);
},
{
glyphname = six.tosf;
lastChange = "2024-08-23 01:50:27 +0000";
layers = (
{
layerId = "F786B9CF-2625-4E74-A523-7F1B392BEC63";
shapes = (
{
closed = 1;
nodes = (
(538,508,l),
(526,632,o),
(438,714,o),
(306,714,cs),
(172,714,o),
(63,620,o),
(63,472,cs),
(63,217,ls),
(63,81,o),
(168,-14,o),
(306,-14,cs),
(444,-14,o),
(549,82,o),
(549,220,cs),
(549,232,ls),
(549,376,o),
(456,462,o),
(327,462,cs),
(254,462,o),
(191,426,o),
(159,368,c),
(147,368,l),
(147,472,ls),
(147,572,o),
(214,640,o),
(302,640,cs),
(398,640,o),
(452,582,o),
(458,498,c)
);
},
{
closed = 1;
nodes = (
(209,60,o),
(147,126,o),
(147,215,cs),
(147,234,ls),
(147,320,o),
(216,388,o),
(306,388,cs),
(398,388,o),
(465,323,o),
(465,230,cs),
(465,218,ls),
(465,126,o),
(403,60,o),
(306,60,cs)
);
}
);
width = 612;
}
);
},
{
glyphname = seven.tosf;
lastChange = "2024-08-23 01:50:27 +0000";
layers = (
{
layerId = "F786B9CF-2625-4E74-A523-7F1B392BEC63";
shapes = (
{
closed = 1;
nodes = (
(70,418,l),
(460,418,l),
(460,406,l),
(179,-14,ls),
(137,-77,o),
(118,-110,o),
(118,-158,cs),
(118,-194,l),
(200,-194,l),
(200,-164,ls),
(200,-132,o),
(215,-104,o),
(243,-62,cs),
(532,374,l),
(532,496,l),
(70,496,l)
);
}
);
width = 612;
}
);
},
{
glyphname = eight.tosf;
lastChange = "2024-08-23 01:50:27 +0000";
layers = (
{
layerId = "F786B9CF-2625-4E74-A523-7F1B392BEC63";
shapes = (
{
closed = 1;
nodes = (
(297,-14,o),
(315,-14,o),
(315,-14,c),
(454,-14,o),
(543,68,o),
(543,176,cs),
(543,188,ls),
(543,284,o),
(479,338,o),
(413,357,c),
(413,369,l),
(473,389,o),
(525,442,o),
(525,520,cs),
(525,532,ls),
(525,638,o),
(439,714,o),
(309,714,c),
(309,714,o),
(303,714,o),
(303,714,c),
(173,714,o),
(87,638,o),
(87,532,cs),
(87,520,ls),
(87,442,o),
(139,389,o),
(199,369,c),
(199,357,l),
(133,338,o),
(69,284,o),
(69,188,cs),
(69,176,ls),
(69,68,o),
(158,-14,o),
(297,-14,c)
);
},
{
closed = 1;
nodes = (
(300,62,ls),
(211,62,o),
(153,114,o),
(153,188,cs),
(153,194,ls),
(153,276,o),
(214,324,o),
(303,324,c),
(303,324,o),
(309,324,o),
(309,324,c),
(398,324,o),
(459,276,o),
(459,194,cs),
(459,188,ls),
(459,114,o),
(398,62,o),
(312,62,cs)
);
},
{
closed = 1;
nodes = (
(224,402,o),
(171,452,o),
(171,518,cs),
(171,524,ls),
(171,592,o),
(224,638,o),
(306,638,cs),
(388,638,o),
(441,592,o),
(441,524,cs),
(441,518,ls),
(441,452,o),
(388,402,o),
(306,402,cs)
);
}
);
width = 612;
}
);
},
{
glyphname = nine.tosf;
lastChange = "2024-08-23 01:50:27 +0000";
layers = (
{
layerId = "F786B9CF-2625-4E74-A523-7F1B392BEC63";
shapes = (
{
closed = 1;
nodes = (
(84,-13,l),
(98,-124,o),
(176,-200,o),
(310,-200,cs),
(450,-200,o),
(549,-112,o),
(549,36,cs),
(549,276,ls),
(549,412,o),
(447,510,o),
(306,510,cs),
(165,510,o),
(63,411,o),
(63,273,cs),
(63,261,ls),
(63,117,o),
(157,34,o),
(287,34,cs),
(363,34,o),
(423,70,o),
(453,128,c),
(465,128,l),
(465,36,ls),
(465,-66,o),
(402,-126,o),
(310,-126,cs),
(220,-126,o),
(172,-78,o),
(163,0,c)
);
},
{
closed = 1;
nodes = (
(403,436,o),
(465,367,o),
(465,278,cs),
(465,259,ls),
(465,173,o),
(396,108,o),
(306,108,cs),
(214,108,o),
(147,170,o),
(147,263,cs),
(147,275,ls),
(147,367,o),
(209,436,o),
(306,436,cs)
);
}
);
width = 612;
}
);
},
{
glyphname = fraction;
layers = (
{
guides = (
{
pos = (0,350);
}
);
layerId = "F786B9CF-2625-4E74-A523-7F1B392BEC63";
shapes = (
{
closed = 1;
nodes = (
(58,253,l),
(82,207,l),
(555,448,l),
(531,494,l)
);
}
);
width = 612;
}
);
unicode = 8260;
},
{
glyphname = zerosuperior;
lastChange = "2024-08-23 01:44:47 +0000";
layers = (
{
guides = (
{
pos = (0,406);
}
);
layerId = "F786B9CF-2625-4E74-A523-7F1B392BEC63";
shapes = (
{
closed = 1;
nodes = (
(410,601,ls),
(410,662,o),
(374,706,o),
(307,706,cs),
(242,706,o),
(202,662,o),
(202,601,cs),
(202,511,ls),
(202,450,o),
(241,406,o),
(307,406,cs),
(374,406,o),
(410,450,o),
(410,511,cs)
);
},
{
closed = 1;
nodes = (
(276,454,o),
(256,476,o),
(256,505,cs),
(256,607,ls),
(256,636,o),
(276,658,o),
(307,658,cs),
(338,658,o),
(356,636,o),
(356,607,cs),
(356,505,ls),
(356,476,o),
(338,454,o),
(307,454,cs)
);
},
{
closed = 1;
nodes = (
(274,538,o),
(289,525,o),
(306,525,cs),
(324,525,o),
(337,538,o),
(337,556,cs),
(337,574,o),
(324,588,o),
(306,588,cs),
(289,588,o),
(274,574,o),
(274,556,cs)
);
}
);
width = 612;
}
);
unicode = 8304;
},
{
glyphname = onesuperior;
layers = (
{
guides = (
{
pos = (0,412);
}
);
layerId = "F786B9CF-2625-4E74-A523-7F1B392BEC63";
shapes = (
{
closed = 1;
nodes = (
(215,460,l),
(215,412,l),
(418,412,l),
(418,460,l),
(347,460,l),
(347,700,l),
(241,700,l),
(209,577,l),
(262,577,l),
(284,670,l),
(293,670,l),
(293,460,l)
);
}
);
width = 612;
}
);
unicode = 185;
},
{
glyphname = twosuperior;
layers = (
{
layerId = "F786B9CF-2625-4E74-A523-7F1B392BEC63";
shapes = (
{
closed = 1;
nodes = (
(264,460,l),
(264,466,ls),
(264,492,o),
(276,508,o),
(324,518,cs),
(388,531,o),
(408,568,o),
(408,616,cs),
(408,662,o),
(374,706,o),
(310,706,cs),
(242,706,o),
(204,660,o),
(204,604,cs),
(204,586,l),
(258,586,l),
(258,604,ls),
(258,638,o),
(278,658,o),
(308,658,cs),
(340,658,o),
(354,636,o),
(354,614,cs),
(354,595,o),
(350,574,o),
(306,564,cs),
(242,550,o),
(210,522,o),
(210,466,cs),
(210,412,l),
(405,412,l),
(405,460,l)
);
}
);
width = 612;
}
);
unicode = 178;
},
{
glyphname = threesuperior;
layers = (
{
guides = (
{
pos = (0,406);
}
);
layerId = "F786B9CF-2625-4E74-A523-7F1B392BEC63";
shapes = (
{
closed = 1;
nodes = (
(276,542,l),
(276,618,l),
(358,646,l),
(358,652,l),
(213,652,l),
(213,700,l),
(400,700,l),
(400,616,l),
(318,588,l),
(318,582,l),
(324,582,ls),
(372,582,o),
(408,554,o),
(408,502,cs),
(408,445,o),
(368,406,o),
(308,406,cs),
(244,406,o),
(204,450,o),
(204,502,cs),
(204,518,l),
(258,518,l),
(258,504,ls),
(258,474,o),
(276,454,o),
(306,454,cs),
(336,454,o),
(354,472,o),
(354,498,cs),
(354,530,o),
(330,542,o),
(308,542,cs)
);
}
);
width = 612;
}
);
unicode = 179;
},
{
glyphname = foursuperior;
lastChange = "2024-08-23 01:44:47 +0000";
layers = (
{
guides = (
{
pos = (0,412);
}
);
layerId = "F786B9CF-2625-4E74-A523-7F1B392BEC63";
shapes = (
{
closed = 1;
nodes = (
(287,700,l),
(386,700,l),
(386,514,l),
(426,514,l),
(426,466,l),
(386,466,l),
(386,412,l),
(332,412,l),
(332,466,l),
(202,466,l),
(202,532,l)
);
},
{
closed = 1;
nodes = (
(250,520,l),
(250,514,l),
(332,514,l),
(332,670,l),
(326,670,l)
);
}
);
width = 612;
}
);
unicode = 8308;
},
{
glyphname = fivesuperior;
lastChange = "2024-08-23 01:44:47 +0000";
layers = (
{
guides = (
{
pos = (0,406);
}
);
layerId = "F786B9CF-2625-4E74-A523-7F1B392BEC63";
shapes = (
{
closed = 1;
nodes = (
(212,539,l),
(212,700,l),
(400,700,l),
(400,652,l),
(266,652,l),
(266,572,l),
(272,572,l),
(283,594,o),
(305,607,o),
(334,607,cs),
(384,607,o),
(418,572,o),
(418,514,cs),
(418,452,o),
(384,406,o),
(312,406,cs),
(236,406,o),
(206,452,o),
(206,499,cs),
(206,505,l),
(260,505,l),
(260,472,o),
(279,454,o),
(314,454,cs),
(346,454,o),
(364,476,o),
(364,514,cs),
(364,544,o),
(346,559,o),
(326,559,cs),
(309,559,o),
(299,549,o),
(296,539,c)
);
}
);
width = 612;
}
);
unicode = 8309;
},
{
glyphname = sixsuperior;
lastChange = "2024-08-23 01:44:47 +0000";
layers = (
{
guides = (
{
pos = (0,406);
}
);
layerId = "F786B9CF-2625-4E74-A523-7F1B392BEC63";
shapes = (
{
closed = 1;
nodes = (
(401,616,l),
(401,672,o),
(362,706,o),
(304,706,cs),
(247,706,o),
(206,670,o),
(206,610,cs),
(206,502,ls),
(206,444,o),
(247,406,o),
(306,406,cs),
(363,406,o),
(406,444,o),
(406,506,cs),
(406,560,o),
(373,602,o),
(321,602,cs),
(288,602,o),
(273,588,o),
(266,572,c),
(260,572,l),
(260,610,ls),
(260,639,o),
(275,658,o),
(303,658,cs),
(332,658,o),
(347,640,o),
(347,616,c)
);
},
{
closed = 1;
nodes = (
(334,554,o),
(352,534,o),
(352,504,cs),
(352,474,o),
(334,454,o),
(306,454,cs),
(278,454,o),
(260,474,o),
(260,504,cs),
(260,534,o),
(278,554,o),
(306,554,cs)
);
}
);
width = 612;
}
);
unicode = 8310;
},
{
glyphname = sevensuperior;
lastChange = "2024-08-23 01:44:47 +0000";
layers = (
{
guides = (
{
pos = (0,412);
}
);
layerId = "F786B9CF-2625-4E74-A523-7F1B392BEC63";
shapes = (
{
closed = 1;
nodes = (
(220,650,l),
(370,650,l),
(370,644,l),
(264,486,ls),
(248,462,o),
(239,448,o),
(239,427,cs),
(239,412,l),
(298,412,l),
(298,424,ls),
(298,438,o),
(304,448,o),
(314,463,cs),
(412,612,l),
(412,700,l),
(220,700,l)
);
}
);
width = 612;
}
);
unicode = 8311;
},
{
glyphname = eightsuperior;
lastChange = "2024-08-23 01:44:47 +0000";
layers = (
{
guides = (
{
pos = (0,406);
}
);
layerId = "F786B9CF-2625-4E74-A523-7F1B392BEC63";
shapes = (
{
closed = 1;
nodes = (
(358,406,o),
(406,432,o),
(406,490,cs),
(406,530,o),
(379,552,o),
(353,558,c),
(353,564,l),
(376,570,o),
(400,590,o),
(400,630,cs),
(400,676,o),
(360,706,o),
(306,706,cs),
(252,706,o),
(212,676,o),
(212,630,cs),
(212,590,o),
(236,570,o),
(259,564,c),
(259,558,l),
(233,552,o),
(206,530,o),
(206,490,cs),
(206,432,o),
(254,406,o),
(306,406,cs)
);
},
{
closed = 1;
nodes = (
(280,454,o),
(260,470,o),
(260,496,cs),
(260,522,o),
(280,538,o),
(306,538,cs),
(332,538,o),
(352,522,o),
(352,496,c),
(352,470,o),
(332,454,o),
(306,454,cs)
);
},
{
closed = 1;
nodes = (
(281,586,o),
(260,598,o),
(260,622,cs),
(260,646,o),
(281,658,o),
(306,658,cs),
(331,658,o),
(352,646,o),
(352,622,cs),
(352,598,o),
(331,586,o),
(306,586,cs)
);
}
);
width = 612;
}
);
unicode = 8312;
},
{
glyphname = ninesuperior;
lastChange = "2024-08-23 01:44:47 +0000";
layers = (
{
guides = (
{
pos = (0,406);
},
{
pos = (0,556);
}
);
layerId = "F786B9CF-2625-4E74-A523-7F1B392BEC63";
shapes = (
{
closed = 1;
nodes = (
(211,496,l),
(211,440,o),
(250,406,o),
(308,406,cs),
(365,406,o),
(406,442,o),
(406,502,cs),
(406,610,ls),
(406,668,o),
(365,706,o),
(306,706,cs),
(249,706,o),
(206,668,o),
(206,606,cs),
(206,552,o),
(239,510,o),
(291,510,cs),
(324,510,o),
(339,524,o),
(346,540,c),
(352,540,l),
(352,502,ls),
(352,473,o),
(337,454,o),
(309,454,cs),
(280,454,o),
(265,472,o),
(265,496,c)
);
},
{
closed = 1;
nodes = (
(278,558,o),
(260,578,o),
(260,608,cs),
(260,638,o),
(278,658,o),
(306,658,cs),
(334,658,o),
(352,638,o),
(352,608,cs),
(352,578,o),
(334,558,o),
(306,558,cs)
);
}
);
width = 612;
}
);
unicode = 8313;
},
{
glyphname = period;
layers = (
{
layerId = "F786B9CF-2625-4E74-A523-7F1B392BEC63";
shapes = (
{
closed = 1;
nodes = (
(236,18,o),
(268,-14,o),
(306,-14,cs),
(344,-14,o),
(376,18,o),
(376,56,cs),
(376,94,o),
(344,126,o),
(306,126,cs),
(268,126,o),
(236,94,o),
(236,56,cs)
);
}
);
width = 612;
}
);
unicode = 46;
},
{
glyphname = comma;
layers = (
{
layerId = "F786B9CF-2625-4E74-A523-7F1B392BEC63";
shapes = (
{
closed = 1;
nodes = (
(236,18,o),
(268,-14,o),
(305,-14,cs),
(311,-14,o),
(317,-13,o),
(322,-11,c),
(322,-36,ls),
(322,-55,o),
(314,-66,o),
(295,-66,cs),
(248,-66,l),
(248,-120,l),
(299,-120,ls),
(344,-120,o),
(376,-87,o),
(376,-42,cs),
(376,56,ls),
(376,94,o),
(344,126,o),
(306,126,cs),
(268,126,o),
(236,94,o),
(236,56,cs)
);
}
);
width = 612;
}
);
unicode = 44;
},
{
glyphname = colon;
layers = (
{
layerId = "F786B9CF-2625-4E74-A523-7F1B392BEC63";
shapes = (
{
closed = 1;
nodes = (
(236,18,o),
(268,-14,o),
(306,-14,cs),
(344,-14,o),
(376,18,o),
(376,56,cs),
(376,94,o),
(344,126,o),
(306,126,cs),
(268,126,o),
(236,94,o),
(236,56,cs)
);
},
{
closed = 1;
nodes = (
(236,402,o),
(268,370,o),
(306,370,cs),
(344,370,o),
(376,402,o),
(376,440,cs),
(376,478,o),
(344,510,o),
(306,510,cs),
(268,510,o),
(236,478,o),
(236,440,cs)
);
}
);
width = 612;
}
);
unicode = 58;
},
{
glyphname = semicolon;
layers = (
{
layerId = "F786B9CF-2625-4E74-A523-7F1B392BEC63";
shapes = (
{
closed = 1;
nodes = (
(236,18,o),
(268,-14,o),
(305,-14,cs),
(311,-14,o),
(317,-13,o),
(322,-11,c),
(322,-36,ls),
(322,-55,o),
(314,-66,o),
(295,-66,cs),
(248,-66,l),
(248,-120,l),
(299,-120,ls),
(344,-120,o),
(376,-87,o),
(376,-42,cs),
(376,56,ls),
(376,94,o),
(344,126,o),
(306,126,cs),
(268,126,o),
(236,94,o),
(236,56,cs)
);
},
{
closed = 1;
nodes = (
(236,402,o),
(268,370,o),
(306,370,cs),
(344,370,o),
(376,402,o),
(376,440,cs),
(376,478,o),
(344,510,o),
(306,510,cs),
(268,510,o),
(236,478,o),
(236,440,cs)
);
}
);
width = 612;
}
);
unicode = 59;
},
{
glyphname = ellipsis;
layers = (
{
layerId = "F786B9CF-2625-4E74-A523-7F1B392BEC63";
shapes = (
{
closed = 1;
nodes = (
(60,18,o),
(92,-14,o),
(130,-14,cs),
(168,-14,o),
(200,18,o),
(200,56,cs),
(200,94,o),
(168,126,o),
(130,126,cs),
(92,126,o),
(60,94,o),
(60,56,cs)
);
},
{
closed = 1;
nodes = (
(236,18,o),
(268,-14,o),
(306,-14,cs),
(344,-14,o),
(376,18,o),
(376,56,cs),
(376,94,o),
(344,126,o),
(306,126,cs),
(268,126,o),
(236,94,o),
(236,56,cs)
);
},
{
closed = 1;
nodes = (
(412,18,o),
(444,-14,o),
(482,-14,cs),
(520,-14,o),
(552,18,o),
(552,56,cs),
(552,94,o),
(520,126,o),
(482,126,cs),
(444,126,o),
(412,94,o),
(412,56,cs)
);
}
);
width = 612;
}
);
unicode = 8230;
},
{
glyphname = exclam;
layers = (
{
layerId = "F786B9CF-2625-4E74-A523-7F1B392BEC63";
shapes = (
{
closed = 1;
nodes = (
(236,18,o),
(268,-14,o),
(306,-14,cs),
(344,-14,o),
(376,18,o),
(376,56,cs),
(376,94,o),
(344,126,o),
(306,126,cs),
(268,126,o),
(236,94,o),
(236,56,cs)
);
},
{
closed = 1;
nodes = (
(266,700,l),
(266,186,l),
(346,186,l),
(346,700,l)
);
}
);
width = 612;
}
);
unicode = 33;
},
{
glyphname = question;
layers = (
{
layerId = "F786B9CF-2625-4E74-A523-7F1B392BEC63";
shapes = (
{
closed = 1;
nodes = (
(326,366,ls),
(276,366,o),
(240,330,o),
(240,280,cs),
(240,186,l),
(320,186,l),
(320,260,ls),
(320,280,o),
(328,290,o),
(348,290,cs),
(362,290,ls),
(464,290,o),
(540,378,o),
(540,483,cs),
(540,501,ls),
(540,616,o),
(446,714,o),
(312,714,cs),
(154,714,o),
(72,604,o),
(72,482,cs),
(72,434,l),
(156,434,l),
(156,476,ls),
(156,572,o),
(214,636,o),
(310,636,cs),
(398,636,o),
(456,572,o),
(456,492,cs),
(456,486,ls),
(456,414,o),
(412,366,o),
(352,366,cs)
);
},
{
closed = 1;
nodes = (
(211,18,o),
(243,-14,o),
(281,-14,cs),
(319,-14,o),
(351,18,o),
(351,56,cs),
(351,94,o),
(319,126,o),
(281,126,cs),
(243,126,o),
(211,94,o),
(211,56,cs)
);
}
);
width = 612;
}
);
unicode = 63;
},
{
glyphname = periodcentered;
layers = (
{
layerId = "F786B9CF-2625-4E74-A523-7F1B392BEC63";
shapes = (
{
closed = 1;
nodes = (
(236,312,o),
(268,280,o),
(306,280,cs),
(344,280,o),
(376,312,o),
(376,350,cs),
(376,388,o),
(344,420,o),
(306,420,cs),
(268,420,o),
(236,388,o),
(236,350,cs)
);
}
);
width = 612;
}
);
unicode = 183;
},
{
glyphname = bullet;
layers = (
{
guides = (
{
angle = 90;
pos = (426,0);
}
);
layerId = "F786B9CF-2625-4E74-A523-7F1B392BEC63";
shapes = (
{
closed = 1;
nodes = (
(188,286,o),
(242,232,o),
(306,232,cs),
(370,232,o),
(424,286,o),
(424,350,cs),
(424,414,o),
(370,468,o),
(306,468,cs),
(242,468,o),
(188,414,o),
(188,350,cs)
);
}
);
width = 612;
}
);
unicode = 8226;
},
{
glyphname = asterisk;
layers = (
{
guides = (
{
pos = (0,314);
}
);
layerId = "F786B9CF-2625-4E74-A523-7F1B392BEC63";
shapes = (
{
closed = 1;
nodes = (
(456,551,l),
(368,463,l),
(340,413,l),
(328,418,l),
(342,463,l),
(342,598,l),
(270,598,l),
(270,463,l),
(284,418,l),
(272,413,l),
(244,463,l),
(156,551,l),
(105,500,l),
(193,412,l),
(243,384,l),
(238,372,l),
(193,386,l),
(58,386,l),
(58,314,l),
(193,314,l),
(238,328,l),
(243,316,l),
(193,288,l),
(105,200,l),
(156,149,l),
(244,237,l),
(272,287,l),
(284,282,l),
(270,237,l),
(270,102,l),
(342,102,l),
(342,237,l),
(328,282,l),
(340,287,l),
(368,237,l),
(456,149,l),
(507,200,l),
(419,288,l),
(369,316,l),
(374,328,l),
(419,314,l),
(554,314,l),
(554,386,l),
(419,386,l),
(374,372,l),
(369,384,l),
(419,412,l),
(507,500,l)
);
}
);
width = 612;
}
);
unicode = 42;
},
{
glyphname = numbersign;
layers = (
{
layerId = "F786B9CF-2625-4E74-A523-7F1B392BEC63";
shapes = (
{
closed = 1;
nodes = (
(432,102,l),
(432,224,l),
(542,224,l),
(542,296,l),
(432,296,l),
(432,404,l),
(542,404,l),
(542,476,l),
(432,476,l),
(432,598,l),
(360,598,l),
(360,476,l),
(252,476,l),
(252,598,l),
(180,598,l),
(180,476,l),
(70,476,l),
(70,404,l),
(180,404,l),
(180,296,l),
(70,296,l),
(70,224,l),
(180,224,l),
(180,102,l),
(252,102,l),
(252,224,l),
(360,224,l),
(360,102,l)
);
},
{
closed = 1;
nodes = (
(360,296,l),
(252,296,l),
(252,404,l),
(360,404,l)
);
}
);
width = 612;
}
);
unicode = 35;
},
{
glyphname = slash;
layers = (
{
layerId = "F786B9CF-2625-4E74-A523-7F1B392BEC63";
shapes = (
{
closed = 1;
nodes = (
(125,-84,l),
(196,-106,l),
(487,784,l),
(417,806,l)
);
}
);
width = 612;
}
);
unicode = 47;
},
{
glyphname = backslash;
layers = (
{
layerId = "F786B9CF-2625-4E74-A523-7F1B392BEC63";
shapes = (
{
closed = 1;
nodes = (
(195,806,l),
(125,784,l),
(416,-106,l),
(487,-84,l)
);
}
);
width = 612;
}
);
unicode = 92;
},
{
glyphname = asterisk.case;
lastChange = "2024-08-23 01:51:22 +0000";
layers = (
{
guides = (
{
pos = (0,350);
}
);
layerId = "F786B9CF-2625-4E74-A523-7F1B392BEC63";
shapes = (
{
closed = 1;
nodes = (
(456,667,l),
(368,579,l),
(340,529,l),
(328,534,l),
(342,579,l),
(342,714,l),
(270,714,l),
(270,579,l),
(284,534,l),
(272,529,l),
(244,579,l),
(156,667,l),
(105,616,l),
(193,528,l),
(243,500,l),
(238,488,l),
(193,502,l),
(58,502,l),
(58,430,l),
(193,430,l),
(238,444,l),
(243,432,l),
(193,404,l),
(105,316,l),
(156,265,l),
(244,353,l),
(272,403,l),
(284,398,l),
(270,353,l),
(270,218,l),
(342,218,l),
(342,353,l),
(328,398,l),
(340,403,l),
(368,353,l),
(456,265,l),
(507,316,l),
(419,404,l),
(369,432,l),
(374,444,l),
(419,430,l),
(554,430,l),
(554,502,l),
(419,502,l),
(374,488,l),
(369,500,l),
(419,528,l),
(507,616,l)
);
}
);
width = 612;
}
);
},
{
glyphname = numbersign.case;
lastChange = "2024-08-23 01:51:22 +0000";
layers = (
{
layerId = "F786B9CF-2625-4E74-A523-7F1B392BEC63";
shapes = (
{
closed = 1;
nodes = (
(452,0,l),
(452,204,l),
(584,204,l),
(584,276,l),
(452,276,l),
(452,424,l),
(584,424,l),
(584,496,l),
(452,496,l),
(452,700,l),
(380,700,l),
(380,496,l),
(232,496,l),
(232,700,l),
(160,700,l),
(160,496,l),
(28,496,l),
(28,424,l),
(160,424,l),
(160,276,l),
(28,276,l),
(28,204,l),
(160,204,l),
(160,0,l),
(232,0,l),
(232,204,l),
(380,204,l),
(380,0,l)
);
},
{
closed = 1;
nodes = (
(380,276,l),
(232,276,l),
(232,424,l),
(380,424,l)
);
}
);
width = 612;
}
);
},
{
glyphname = hyphen;
layers = (
{
guides = (
{
angle = 90;
pos = (424,0);
}
);
layerId = "F786B9CF-2625-4E74-A523-7F1B392BEC63";
shapes = (
{
closed = 1;
nodes = (
(156,224,l),
(456,224,l),
(456,296,l),
(156,296,l)
);
}
);
width = 612;
}
);
unicode = 45;
},
{
glyphname = endash;
layers = (
{
layerId = "F786B9CF-2625-4E74-A523-7F1B392BEC63";
shapes = (
{
closed = 1;
nodes = (
(73,224,l),
(539,224,l),
(539,296,l),
(73,296,l)
);
}
);
width = 612;
}
);
unicode = 8211;
},
{
glyphname = emdash;
layers = (
{
layerId = "F786B9CF-2625-4E74-A523-7F1B392BEC63";
shapes = (
{
closed = 1;
nodes = (
(12,224,l),
(600,224,l),
(600,296,l),
(12,296,l)
);
}
);
width = 612;
}
);
unicode = 8212;
},
{
glyphname = underscore;
layers = (
{
layerId = "F786B9CF-2625-4E74-A523-7F1B392BEC63";
shapes = (
{
closed = 1;
nodes = (
(73,-120,l),
(539,-120,l),
(539,-48,l),
(73,-48,l)
);
}
);
width = 612;
}
);
unicode = 95;
},
{
glyphname = parenleftinferior;
kernLeft = 208D;
lastChange = "2024-08-28 01:54:48 +0000";
layers = (
{
layerId = "F786B9CF-2625-4E74-A523-7F1B392BEC63";
shapes = (
{
closed = 1;
nodes = (
(386,-261,ls),
(314,-261,o),
(256,-202,o),
(256,-117,cs),
(256,5,ls),
(256,90,o),
(314,149,o),
(386,149,cs),
(404,149,l),
(404,197,l),
(386,197,ls),
(290,197,o),
(208,126,o),
(208,7,cs),
(208,-119,ls),
(208,-238,o),
(290,-309,o),
(386,-309,cs),
(404,-309,l),
(404,-261,l)
);
}
);
width = 612;
}
);
unicode = 8333;
},
{
glyphname = parenrightinferior;
lastChange = "2024-08-28 01:54:59 +0000";
layers = (
{
layerId = "F786B9CF-2625-4E74-A523-7F1B392BEC63";
shapes = (
{
closed = 1;
nodes = (
(208,-261,l),
(208,-309,l),
(226,-309,ls),
(322,-309,o),
(404,-238,o),
(404,-119,cs),
(404,7,ls),
(404,126,o),
(322,197,o),
(226,197,cs),
(208,197,l),
(208,149,l),
(226,149,ls),
(298,149,o),
(356,90,o),
(356,5,cs),
(356,-117,ls),
(356,-202,o),
(298,-261,o),
(226,-261,cs)
);
}
);
width = 612;
}
);
unicode = 8334;
},
{
glyphname = parenleft;
layers = (
{
layerId = "F786B9CF-2625-4E74-A523-7F1B392BEC63";
shapes = (
{
closed = 1;
nodes = (
(510,-82,l),
(366,-82,o),
(234,36,o),
(234,228,cs),
(234,472,ls),
(234,664,o),
(366,782,o),
(510,782,cs),
(546,782,l),
(546,856,l),
(510,856,ls),
(324,856,o),
(156,712,o),
(156,476,cs),
(156,224,ls),
(156,-12,o),
(324,-156,o),
(510,-156,cs),
(546,-156,l),
(546,-82,l)
);
}
);
width = 612;
}
);
unicode = 40;
},
{
glyphname = parenright;
layers = (
{
layerId = "F786B9CF-2625-4E74-A523-7F1B392BEC63";
shapes = (
{
closed = 1;
nodes = (
(66,-82,l),
(66,-156,l),
(102,-156,ls),
(288,-156,o),
(456,-12,o),
(456,224,cs),
(456,476,ls),
(456,712,o),
(288,856,o),
(102,856,cs),
(66,856,l),
(66,782,l),
(102,782,ls),
(246,782,o),
(378,664,o),
(378,472,cs),
(378,228,ls),
(378,36,o),
(246,-82,o),
(102,-82,cs)
);
}
);
width = 612;
}
);
unicode = 41;
},
{
glyphname = braceleft;
layers = (
{
layerId = "F786B9CF-2625-4E74-A523-7F1B392BEC63";
shapes = (
{
closed = 1;
nodes = (
(278,433,ls),
(278,414,o),
(270,404,o),
(251,404,cs),
(200,404,l),
(200,296,l),
(251,296,ls),
(270,296,o),
(278,286,o),
(278,267,cs),
(278,-78,ls),
(278,-123,o),
(310,-156,o),
(355,-156,cs),
(452,-156,l),
(452,-84,l),
(383,-84,ls),
(364,-84,o),
(356,-73,o),
(356,-54,cs),
(356,266,ls),
(356,311,o),
(325,344,o),
(278,344,c),
(266,344,l),
(266,356,l),
(278,356,l),
(325,356,o),
(356,389,o),
(356,434,cs),
(356,754,ls),
(356,773,o),
(364,784,o),
(383,784,cs),
(452,784,l),
(452,856,l),
(355,856,ls),
(310,856,o),
(278,823,o),
(278,778,cs)
);
}
);
width = 612;
}
);
unicode = 123;
},
{
glyphname = braceright;
layers = (
{
layerId = "F786B9CF-2625-4E74-A523-7F1B392BEC63";
shapes = (
{
closed = 1;
nodes = (
(334,778,l),
(334,823,o),
(302,856,o),
(257,856,cs),
(160,856,l),
(160,784,l),
(229,784,ls),
(248,784,o),
(256,773,o),
(256,754,cs),
(256,434,ls),
(256,389,o),
(287,356,o),
(334,356,cs),
(346,356,l),
(346,344,l),
(334,344,ls),
(287,344,o),
(256,311,o),
(256,266,cs),
(256,-54,ls),
(256,-73,o),
(248,-84,o),
(229,-84,cs),
(160,-84,l),
(160,-156,l),
(257,-156,ls),
(302,-156,o),
(334,-123,o),
(334,-78,cs),
(334,267,ls),
(334,286,o),
(342,296,o),
(361,296,cs),
(412,296,l),
(412,404,l),
(361,404,ls),
(342,404,o),
(334,414,o),
(334,433,cs)
);
}
);
width = 612;
}
);
unicode = 125;
},
{
glyphname = bracketleft;
layers = (
{
guides = (
{
angle = 90;
pos = (424,0);
}
);
layerId = "F786B9CF-2625-4E74-A523-7F1B392BEC63";
shapes = (
{
closed = 1;
nodes = (
(264,-78,ls),
(264,-123,o),
(296,-156,o),
(341,-156,cs),
(438,-156,l),
(438,-84,l),
(369,-84,ls),
(350,-84,o),
(342,-73,o),
(342,-54,cs),
(342,754,ls),
(342,773,o),
(350,784,o),
(369,784,cs),
(438,784,l),
(438,856,l),
(341,856,ls),
(296,856,o),
(264,823,o),
(264,778,cs)
);
}
);
width = 612;
}
);
unicode = 91;
},
{
glyphname = bracketright;
layers = (
{
layerId = "F786B9CF-2625-4E74-A523-7F1B392BEC63";
shapes = (
{
closed = 1;
nodes = (
(348,778,l),
(348,823,o),
(316,856,o),
(271,856,cs),
(174,856,l),
(174,784,l),
(243,784,ls),
(262,784,o),
(270,773,o),
(270,754,cs),
(270,-54,ls),
(270,-73,o),
(262,-84,o),
(243,-84,cs),
(174,-84,l),
(174,-156,l),
(271,-156,ls),
(316,-156,o),
(348,-123,o),
(348,-78,cs)
);
}
);
width = 612;
}
);
unicode = 93;
},
{
glyphname = parenleftsuperior;
lastChange = "2024-08-23 01:45:13 +0000";
layers = (
{
layerId = "F786B9CF-2625-4E74-A523-7F1B392BEC63";
shapes = (
{
closed = 1;
nodes = (
(386,351,ls),
(314,351,o),
(256,410,o),
(256,495,cs),
(256,617,ls),
(256,702,o),
(314,761,o),
(386,761,cs),
(404,761,l),
(404,809,l),
(386,809,ls),
(290,809,o),
(208,738,o),
(208,619,cs),
(208,493,ls),
(208,374,o),
(290,303,o),
(386,303,cs),
(404,303,l),
(404,351,l)
);
}
);
width = 612;
}
);
unicode = 8317;
},
{
glyphname = parenrightsuperior;
lastChange = "2024-08-23 01:45:13 +0000";
layers = (
{
layerId = "F786B9CF-2625-4E74-A523-7F1B392BEC63";
shapes = (
{
closed = 1;
nodes = (
(208,351,l),
(208,303,l),
(226,303,ls),
(322,303,o),
(404,374,o),
(404,493,cs),
(404,619,ls),
(404,738,o),
(322,809,o),
(226,809,cs),
(208,809,l),
(208,761,l),
(226,761,ls),
(298,761,o),
(356,702,o),
(356,617,cs),
(356,495,ls),
(356,410,o),
(298,351,o),
(226,351,cs)
);
}
);
width = 612;
}
);
unicode = 8318;
},
{
glyphname = quotesinglbase;
layers = (
{
layerId = "F786B9CF-2625-4E74-A523-7F1B392BEC63";
shapes = (
{
closed = 1;
nodes = (
(236,32,o),
(268,0,o),
(305,0,cs),
(311,0,o),
(317,1,o),
(322,3,c),
(322,-22,ls),
(322,-41,o),
(314,-52,o),
(295,-52,cs),
(248,-52,l),
(248,-106,l),
(299,-106,ls),
(344,-106,o),
(376,-73,o),
(376,-28,cs),
(376,70,ls),
(376,108,o),
(344,140,o),
(306,140,cs),
(268,140,o),
(236,108,o),
(236,70,cs)
);
}
);
width = 612;
}
);
unicode = 8218;
},
{
glyphname = quotedblbase;
layers = (
{
layerId = "F786B9CF-2625-4E74-A523-7F1B392BEC63";
shapes = (
{
closed = 1;
nodes = (
(327,32,o),
(359,0,o),
(396,0,cs),
(402,0,o),
(408,1,o),
(413,3,c),
(413,-22,ls),
(413,-41,o),
(405,-52,o),
(386,-52,cs),
(339,-52,l),
(339,-106,l),
(390,-106,ls),
(435,-106,o),
(467,-73,o),
(467,-28,cs),
(467,70,ls),
(467,108,o),
(435,140,o),
(397,140,cs),
(359,140,o),
(327,108,o),
(327,70,cs)
);
},
{
closed = 1;
nodes = (
(145,32,o),
(177,0,o),
(214,0,cs),
(220,0,o),
(226,1,o),
(231,3,c),
(231,-22,ls),
(231,-41,o),
(223,-52,o),
(204,-52,cs),
(157,-52,l),
(157,-106,l),
(208,-106,ls),
(253,-106,o),
(285,-73,o),
(285,-28,cs),
(285,70,ls),
(285,108,o),
(253,140,o),
(215,140,cs),
(177,140,o),
(145,108,o),
(145,70,cs)
);
}
);
width = 612;
}
);
unicode = 8222;
},
{
glyphname = quotedblleft;
layers = (
{
layerId = "F786B9CF-2625-4E74-A523-7F1B392BEC63";
shapes = (
{
closed = 1;
nodes = (
(285,576,o),
(253,608,o),
(216,608,cs),
(210,608,o),
(204,607,o),
(199,605,c),
(199,630,ls),
(199,649,o),
(207,660,o),
(226,660,cs),
(273,660,l),
(273,714,l),
(222,714,ls),
(177,714,o),
(145,681,o),
(145,636,cs),
(145,538,ls),
(145,500,o),
(177,468,o),
(215,468,cs),
(253,468,o),
(285,500,o),
(285,538,cs)
);
},
{
closed = 1;
nodes = (
(467,576,o),
(435,608,o),
(398,608,cs),
(392,608,o),
(386,607,o),
(381,605,c),
(381,630,ls),
(381,649,o),
(389,660,o),
(408,660,cs),
(455,660,l),
(455,714,l),
(404,714,ls),
(359,714,o),
(327,681,o),
(327,636,cs),
(327,538,ls),
(327,500,o),
(359,468,o),
(397,468,cs),
(435,468,o),
(467,500,o),
(467,538,cs)
);
}
);
width = 612;
}
);
unicode = 8220;
},
{
glyphname = quotedblright;
layers = (
{
layerId = "F786B9CF-2625-4E74-A523-7F1B392BEC63";
shapes = (
{
closed = 1;
nodes = (
(327,606,o),
(359,574,o),
(396,574,cs),
(402,574,o),
(408,575,o),
(413,577,c),
(413,552,ls),
(413,533,o),
(405,522,o),
(386,522,cs),
(339,522,l),
(339,468,l),
(390,468,ls),
(435,468,o),
(467,501,o),
(467,546,cs),
(467,644,ls),
(467,682,o),
(435,714,o),
(397,714,cs),
(359,714,o),
(327,682,o),
(327,644,cs)
);
},
{
closed = 1;
nodes = (
(145,606,o),
(177,574,o),
(214,574,cs),
(220,574,o),
(226,575,o),
(231,577,c),
(231,552,ls),
(231,533,o),
(223,522,o),
(204,522,cs),
(157,522,l),
(157,468,l),
(208,468,ls),
(253,468,o),
(285,501,o),
(285,546,cs),
(285,644,ls),
(285,682,o),
(253,714,o),
(215,714,cs),
(177,714,o),
(145,682,o),
(145,644,cs)
);
}
);
width = 612;
}
);
unicode = 8221;
},
{
glyphname = quoteleft;
layers = (
{
layerId = "F786B9CF-2625-4E74-A523-7F1B392BEC63";
shapes = (
{
closed = 1;
nodes = (
(376,576,o),
(344,608,o),
(307,608,cs),
(301,608,o),
(295,607,o),
(290,605,c),
(290,630,ls),
(290,649,o),
(298,660,o),
(317,660,cs),
(364,660,l),
(364,714,l),
(313,714,ls),
(268,714,o),
(236,681,o),
(236,636,cs),
(236,538,ls),
(236,500,o),
(268,468,o),
(306,468,cs),
(344,468,o),
(376,500,o),
(376,538,cs)
);
}
);
width = 612;
}
);
unicode = 8216;
},
{
glyphname = quoteright;
layers = (
{
guides = (
{
pos = (0,1000);
},
{
angle = 90;
pos = (-937,0);
}
);
layerId = "F786B9CF-2625-4E74-A523-7F1B392BEC63";
shapes = (
{
closed = 1;
nodes = (
(236,606,o),
(268,574,o),
(305,574,cs),
(311,574,o),
(317,575,o),
(322,577,c),
(322,552,ls),
(322,533,o),
(314,522,o),
(295,522,cs),
(248,522,l),
(248,468,l),
(299,468,ls),
(344,468,o),
(376,501,o),
(376,546,cs),
(376,644,ls),
(376,682,o),
(344,714,o),
(306,714,cs),
(268,714,o),
(236,682,o),
(236,644,cs)
);
}
);
width = 612;
}
);
unicode = 8217;
},
{
glyphname = guillemetleft;
lastChange = "2024-08-23 01:43:07 +0000";
layers = (
{
layerId = "F786B9CF-2625-4E74-A523-7F1B392BEC63";
shapes = (
{
closed = 1;
nodes = (
(318,12,l),
(318,100,l),
(108,242,l),
(108,254,l),
(318,396,l),
(318,484,l),
(312,484,l),
(78,326,l),
(78,170,l),
(312,12,l)
);
},
{
closed = 1;
nodes = (
(534,12,l),
(534,100,l),
(324,242,l),
(324,254,l),
(534,396,l),
(534,484,l),
(528,484,l),
(294,326,l),
(294,170,l),
(528,12,l)
);
}
);
width = 612;
}
);
unicode = 171;
},
{
glyphname = guillemetright;
lastChange = "2024-08-23 01:43:07 +0000";
layers = (
{
layerId = "F786B9CF-2625-4E74-A523-7F1B392BEC63";
shapes = (
{
closed = 1;
nodes = (
(300,12,l),
(534,170,l),
(534,326,l),
(300,484,l),
(294,484,l),
(294,396,l),
(504,254,l),
(504,242,l),
(294,100,l),
(294,12,l)
);
},
{
closed = 1;
nodes = (
(84,12,l),
(318,170,l),
(318,326,l),
(84,484,l),
(78,484,l),
(78,396,l),
(288,254,l),
(288,242,l),
(78,100,l),
(78,12,l)
);
}
);
width = 612;
}
);
unicode = 187;
},
{
glyphname = guilsinglleft;
layers = (
{
layerId = "F786B9CF-2625-4E74-A523-7F1B392BEC63";
shapes = (
{
closed = 1;
nodes = (
(426,12,l),
(426,100,l),
(216,242,l),
(216,254,l),
(426,396,l),
(426,484,l),
(420,484,l),
(186,326,l),
(186,170,l),
(420,12,l)
);
}
);
width = 612;
}
);
unicode = 8249;
},
{
glyphname = guilsinglright;
layers = (
{
layerId = "F786B9CF-2625-4E74-A523-7F1B392BEC63";
shapes = (
{
closed = 1;
nodes = (
(192,12,l),
(426,170,l),
(426,326,l),
(192,484,l),
(186,484,l),
(186,396,l),
(396,254,l),
(396,242,l),
(186,100,l),
(186,12,l)
);
}
);
width = 612;
}
);
unicode = 8250;
},
{
glyphname = quotedbl;
layers = (
{
layerId = "F786B9CF-2625-4E74-A523-7F1B392BEC63";
shapes = (
{
closed = 1;
nodes = (
(327,615,o),
(345,590,o),
(370,579,c),
(370,468,l),
(424,468,l),
(424,579,l),
(449,590,o),
(467,615,o),
(467,644,cs),
(467,682,o),
(435,714,o),
(397,714,cs),
(359,714,o),
(327,682,o),
(327,644,cs)
);
},
{
closed = 1;
nodes = (
(145,615,o),
(163,590,o),
(188,579,c),
(188,468,l),
(242,468,l),
(242,579,l),
(267,590,o),
(285,615,o),
(285,644,cs),
(285,682,o),
(253,714,o),
(215,714,cs),
(177,714,o),
(145,682,o),
(145,644,cs)
);
}
);
width = 612;
}
);
unicode = 34;
},
{
glyphname = quotesingle;
layers = (
{
layerId = "F786B9CF-2625-4E74-A523-7F1B392BEC63";
shapes = (
{
closed = 1;
nodes = (
(236,615,o),
(254,590,o),
(279,579,c),
(279,468,l),
(333,468,l),
(333,579,l),
(358,590,o),
(376,615,o),
(376,644,cs),
(376,682,o),
(344,714,o),
(306,714,cs),
(268,714,o),
(236,682,o),
(236,644,cs)
);
}
);
width = 612;
}
);
unicode = 39;
},
{
glyphname = florin;
layers = (
{
layerId = "F786B9CF-2625-4E74-A523-7F1B392BEC63";
shapes = (
{
closed = 1;
nodes = (
(177,438,l),
(177,366,l),
(267,366,l),
(267,204,ls),
(267,185,o),
(259,174,o),
(240,174,cs),
(126,174,l),
(126,102,l),
(268,102,ls),
(313,102,o),
(345,135,o),
(345,180,cs),
(345,366,l),
(435,366,l),
(435,438,l),
(345,438,l),
(345,496,ls),
(345,515,o),
(353,526,o),
(372,526,cs),
(486,526,l),
(486,598,l),
(344,598,ls),
(299,598,o),
(267,565,o),
(267,520,cs),
(267,438,l)
);
}
);
width = 612;
}
);
unicode = 402;
},
{
glyphname = florin.case;
lastChange = "2024-08-23 01:51:22 +0000";
layers = (
{
layerId = "F786B9CF-2625-4E74-A523-7F1B392BEC63";
shapes = (
{
closed = 1;
nodes = (
(129,438,l),
(129,366,l),
(264,366,l),
(264,102,ls),
(264,83,o),
(256,72,o),
(237,72,cs),
(93,72,l),
(93,0,l),
(265,0,ls),
(310,0,o),
(342,33,o),
(342,78,cs),
(342,366,l),
(483,366,l),
(483,438,l),
(342,438,l),
(342,598,ls),
(342,617,o),
(350,628,o),
(369,628,cs),
(519,628,l),
(519,700,l),
(341,700,ls),
(296,700,o),
(264,667,o),
(264,622,cs),
(264,438,l)
);
}
);
width = 612;
}
);
},
{
glyphname = at;
layers = (
{
guides = (
{
pos = (0,424);
}
);
layerId = "F786B9CF-2625-4E74-A523-7F1B392BEC63";
shapes = (
{
closed = 1;
nodes = (
(360,510,ls),
(446,510,o),
(486,464,o),
(486,378,cs),
(486,102,ls),
(486,83,o),
(478,72,o),
(459,72,cs),
(435,72,ls),
(416,72,o),
(408,83,o),
(408,102,cs),
(408,424,l),
(330,424,l),
(330,370,l),
(318,370,l),
(295,414,o),
(267,438,o),
(206,438,cs),
(112,438,o),
(38,354,o),
(38,221,cs),
(38,203,ls),
(38,69,o),
(110,-14,o),
(208,-14,cs),
(270,-14,o),
(308,16,o),
(324,66,c),
(336,66,l),
(336,30,o),
(358,0,o),
(407,0,cs),
(487,0,ls),
(532,0,o),
(564,33,o),
(564,78,cs),
(564,386,ls),
(564,518,o),
(490,582,o),
(368,582,cs),
(78,582,l),
(78,510,l)
);
},
{
closed = 1;
nodes = (
(156,60,o),
(116,119,o),
(116,203,cs),
(116,221,ls),
(116,301,o),
(156,364,o),
(223,364,cs),
(304,364,o),
(330,297,o),
(330,221,cs),
(330,203,ls),
(330,123,o),
(304,60,o),
(223,60,cs)
);
}
);
width = 612;
}
);
unicode = 64;
},
{
glyphname = ampersand;
layers = (
{
layerId = "F786B9CF-2625-4E74-A523-7F1B392BEC63";
shapes = (
{
closed = 1;
nodes = (
(580,390,l),
(483,390,l),
(483,496,l),
(399,496,l),
(399,390,l),
(262,390,ls),
(182,390,o),
(132,434,o),
(132,506,cs),
(132,512,ls),
(132,580,o),
(187,622,o),
(265,622,cs),
(387,622,l),
(387,700,l),
(259,700,ls),
(125,700,o),
(52,622,o),
(52,518,cs),
(52,506,ls),
(52,430,o),
(104,375,o),
(170,357,c),
(170,345,l),
(104,327,o),
(52,270,o),
(52,195,cs),
(52,183,ls),
(52,78,o),
(125,0,o),
(259,0,cs),
(483,0,l),
(483,312,l),
(580,312,l)
);
},
{
closed = 1;
nodes = (
(265,78,ls),
(187,78,o),
(132,120,o),
(132,189,cs),
(132,195,ls),
(132,266,o),
(182,312,o),
(262,312,cs),
(399,312,l),
(399,78,l)
);
}
);
width = 612;
}
);
unicode = 38;
},
{
glyphname = paragraph;
layers = (
{
guides = (
{
pos = (0,218);
}
);
layerId = "F786B9CF-2625-4E74-A523-7F1B392BEC63";
shapes = (
{
closed = 1;
nodes = (
(269,218,l),
(341,218,l),
(341,642,l),
(377,642,l),
(377,218,l),
(449,218,l),
(449,714,l),
(269,714,ls),
(189,714,o),
(124,649,o),
(124,569,cs),
(124,489,o),
(189,424,o),
(269,424,c)
);
},
{
closed = 1;
nodes = (
(269,496,l),
(229,496,o),
(196,529,o),
(196,569,cs),
(196,609,o),
(229,642,o),
(269,642,c)
);
}
);
width = 612;
}
);
unicode = 182;
},
{
glyphname = section;
layers = (
{
layerId = "F786B9CF-2625-4E74-A523-7F1B392BEC63";
shapes = (
{
closed = 1;
nodes = (
(184,418,o),
(239,396,o),
(294,386,cs),
(358,374,o),
(375,358,o),
(375,331,cs),
(375,309,o),
(361,284,o),
(314,284,cs),
(264,284,o),
(240,316,o),
(240,353,cs),
(240,359,l),
(172,359,l),
(172,347,ls),
(172,274,o),
(220,218,o),
(312,218,cs),
(393,218,o),
(445,268,o),
(445,336,cs),
(445,358,o),
(440,378,o),
(428,395,c),
(437,412,o),
(445,428,o),
(445,448,cs),
(445,510,o),
(409,542,o),
(340,554,cs),
(272,566,o),
(254,581,o),
(254,605,cs),
(254,630,o),
(273,648,o),
(308,648,cs),
(347,648,o),
(371,622,o),
(371,594,cs),
(371,588,l),
(439,588,l),
(439,604,ls),
(439,660,o),
(396,714,o),
(312,714,cs),
(241,714,o),
(184,672,o),
(184,604,cs),
(184,580,o),
(193,560,o),
(202,545,c),
(192,531,o),
(184,515,o),
(184,494,cs)
);
},
{
closed = 1;
nodes = (
(272,453,o),
(254,471,o),
(254,493,cs),
(254,497,o),
(255,506,o),
(256,509,c),
(268,505,o),
(282,501,o),
(294,499,cs),
(358,487,o),
(375,469,o),
(375,445,cs),
(375,442,o),
(375,435,o),
(374,432,c),
(365,435,o),
(351,439,o),
(340,441,cs)
);
}
);
width = 612;
}
);
unicode = 167;
},
{
glyphname = copyright;
layers = (
{
layerId = "F786B9CF-2625-4E74-A523-7F1B392BEC63";
shapes = (
{
closed = 1;
nodes = (
(58,419,o),
(169,308,o),
(306,308,cs),
(443,308,o),
(554,419,o),
(554,556,cs),
(554,693,o),
(443,804,o),
(306,804,cs),
(169,804,o),
(58,693,o),
(58,556,cs)
);
},
{
closed = 1;
nodes = (
(106,667,o),
(195,756,o),
(306,756,cs),
(417,756,o),
(506,667,o),
(506,556,cs),
(506,445,o),
(417,356,o),
(306,356,cs),
(195,356,o),
(106,445,o),
(106,556,cs)
);
},
{
closed = 1;
nodes = (
(275,454,o),
(255,476,o),
(255,505,cs),
(255,607,ls),
(255,636,o),
(275,658,o),
(306,658,cs),
(337,658,o),
(355,636,o),
(355,607,cs),
(355,589,l),
(409,589,l),
(409,601,ls),
(409,662,o),
(373,706,o),
(306,706,cs),
(241,706,o),
(201,662,o),
(201,601,cs),
(201,511,ls),
(201,450,o),
(240,406,o),
(306,406,cs),
(373,406,o),
(409,450,o),
(409,511,cs),
(409,523,l),
(355,523,l),
(355,505,ls),
(355,476,o),
(337,454,o),
(306,454,cs)
);
}
);
width = 612;
}
);
unicode = 169;
},
{
glyphname = registered;
layers = (
{
guides = (
{
pos = (0,700);
},
{
pos = (0,204);
},
{
pos = (0,616);
},
{
pos = (0,266);
},
{
pos = (0,568);
},
{
pos = (0,254);
},
{
pos = (0,316);
}
);
layerId = "F786B9CF-2625-4E74-A523-7F1B392BEC63";
shapes = (
{
closed = 1;
nodes = (
(58,419,o),
(169,308,o),
(306,308,cs),
(443,308,o),
(554,419,o),
(554,556,cs),
(554,693,o),
(443,804,o),
(306,804,cs),
(169,804,o),
(58,693,o),
(58,556,cs)
);
},
{
closed = 1;
nodes = (
(106,667,o),
(195,756,o),
(306,756,cs),
(417,756,o),
(506,667,o),
(506,556,cs),
(506,445,o),
(417,356,o),
(306,356,cs),
(195,356,o),
(106,445,o),
(106,556,cs)
);
},
{
closed = 1;
nodes = (
(402,502,ls),
(402,521,o),
(392,541,o),
(368,543,c),
(368,549,l),
(398,562,o),
(408,586,o),
(408,620,c),
(408,662,o),
(378,700,o),
(318,700,cs),
(222,700,l),
(222,412,l),
(276,412,l),
(276,520,l),
(323,520,ls),
(339,520,o),
(348,509,o),
(348,495,cs),
(348,412,l),
(402,412,l)
);
},
{
closed = 1;
nodes = (
(276,653,l),
(308,653,ls),
(338,653,o),
(354,637,o),
(354,612,cs),
(354,587,o),
(338,568,o),
(308,568,cs),
(276,568,l)
);
}
);
width = 612;
}
);
unicode = 174;
},
{
glyphname = trademark;
layers = (
{
layerId = "F786B9CF-2625-4E74-A523-7F1B392BEC63";
shapes = (
{
closed = 1;
nodes = (
(62,652,l),
(137,652,l),
(137,412,l),
(191,412,l),
(191,652,l),
(266,652,l),
(266,700,l),
(62,700,l)
);
},
{
closed = 1;
nodes = (
(290,412,l),
(344,412,l),
(344,670,l),
(350,670,l),
(367,412,l),
(457,412,l),
(475,670,l),
(481,670,l),
(481,412,l),
(535,412,l),
(535,700,l),
(431,700,l),
(415,448,l),
(409,448,l),
(394,700,l),
(290,700,l)
);
}
);
width = 612;
}
);
unicode = 8482;
},
{
glyphname = degree;
layers = (
{
guides = (
{
pos = (0,496);
},
{
pos = (0,642);
}
);
layerId = "F786B9CF-2625-4E74-A523-7F1B392BEC63";
shapes = (
{
closed = 1;
nodes = (
(161,489,o),
(226,424,o),
(306,424,cs),
(386,424,o),
(451,489,o),
(451,569,cs),
(451,649,o),
(386,714,o),
(306,714,cs),
(226,714,o),
(161,649,o),
(161,569,cs)
);
},
{
closed = 1;
nodes = (
(233,609,o),
(266,642,o),
(306,642,cs),
(346,642,o),
(379,609,o),
(379,569,cs),
(379,529,o),
(346,496,o),
(306,496,cs),
(266,496,o),
(233,529,o),
(233,569,cs)
);
}
);
width = 612;
}
);
unicode = 176;
},
{
glyphname = minute;
lastChange = "2024-08-23 01:43:07 +0000";
layers = (
{
layerId = "F786B9CF-2625-4E74-A523-7F1B392BEC63";
shapes = (
{
closed = 1;
nodes = (
(242,620,o),
(255,598,o),
(274,585,c),
(250,479,l),
(303,468,l),
(326,575,l),
(358,582,o),
(382,611,o),
(382,644,cs),
(382,682,o),
(350,714,o),
(312,714,cs),
(274,714,o),
(242,682,o),
(242,644,cs)
);
}
);
width = 612;
}
);
unicode = 8242;
},
{
glyphname = second;
lastChange = "2024-08-23 01:43:07 +0000";
layers = (
{
layerId = "F786B9CF-2625-4E74-A523-7F1B392BEC63";
shapes = (
{
closed = 1;
nodes = (
(150,620,o),
(163,598,o),
(182,585,c),
(158,479,l),
(211,468,l),
(234,575,l),
(266,582,o),
(290,611,o),
(290,644,cs),
(290,682,o),
(258,714,o),
(220,714,cs),
(182,714,o),
(150,682,o),
(150,644,cs)
);
},
{
closed = 1;
nodes = (
(332,620,o),
(345,598,o),
(364,585,c),
(340,479,l),
(393,468,l),
(416,575,l),
(448,582,o),
(472,611,o),
(472,644,cs),
(472,682,o),
(440,714,o),
(402,714,cs),
(364,714,o),
(332,682,o),
(332,644,cs)
);
}
);
width = 612;
}
);
unicode = 8243;
},
{
glyphname = bar;
layers = (
{
layerId = "F786B9CF-2625-4E74-A523-7F1B392BEC63";
shapes = (
{
closed = 1;
nodes = (
(342,856,l),
(270,856,l),
(270,-156,l),
(342,-156,l)
);
}
);
width = 612;
}
);
unicode = 124;
},
{
glyphname = brokenbar;
layers = (
{
layerId = "F786B9CF-2625-4E74-A523-7F1B392BEC63";
shapes = (
{
closed = 1;
nodes = (
(270,314,l),
(270,-156,l),
(342,-156,l),
(342,314,l)
);
},
{
closed = 1;
nodes = (
(342,386,l),
(342,856,l),
(270,856,l),
(270,386,l)
);
}
);
width = 612;
}
);
unicode = 166;
},
{
glyphname = dagger;
layers = (
{
layerId = "F786B9CF-2625-4E74-A523-7F1B392BEC63";
shapes = (
{
closed = 1;
nodes = (
(156,534,l),
(270,534,l),
(270,218,l),
(342,218,l),
(342,534,l),
(456,534,l),
(456,604,l),
(342,604,l),
(342,714,l),
(270,714,l),
(270,604,l),
(156,604,l)
);
}
);
width = 612;
}
);
unicode = 8224;
},
{
glyphname = literSign;
lastChange = "2024-08-23 01:43:07 +0000";
layers = (
{
layerId = "F786B9CF-2625-4E74-A523-7F1B392BEC63";
shapes = (
{
closed = 1;
nodes = (
(308,228,l),
(431,270,o),
(512,368,o),
(512,522,cs),
(512,630,o),
(464,714,o),
(362,714,cs),
(278,714,o),
(230,654,o),
(230,576,cs),
(230,283,l),
(207,280,o),
(183,278,o),
(158,278,cs),
(74,278,l),
(74,206,l),
(158,206,ls),
(183,206,o),
(207,207,o),
(230,210,c),
(230,78,ls),
(230,33,o),
(262,0,o),
(307,0,cs),
(488,0,l),
(488,72,l),
(335,72,ls),
(316,72,o),
(308,83,o),
(308,102,c)
);
},
{
closed = 1;
nodes = (
(308,570,ls),
(308,618,o),
(329,642,o),
(362,642,cs),
(410,642,o),
(436,600,o),
(436,510,cs),
(436,414,o),
(390,343,o),
(308,306,c)
);
}
);
width = 612;
}
);
unicode = 8467;
},
{
glyphname = daggerdbl;
layers = (
{
layerId = "F786B9CF-2625-4E74-A523-7F1B392BEC63";
shapes = (
{
closed = 1;
nodes = (
(156,328,l),
(270,328,l),
(270,218,l),
(342,218,l),
(342,328,l),
(456,328,l),
(456,398,l),
(342,398,l),
(342,534,l),
(456,534,l),
(456,604,l),
(342,604,l),
(342,714,l),
(270,714,l),
(270,604,l),
(156,604,l),
(156,534,l),
(270,534,l),
(270,398,l),
(156,398,l)
);
}
);
width = 612;
}
);
unicode = 8225;
},
{
glyphname = estimated;
lastChange = "2024-08-23 01:43:07 +0000";
layers = (
{
guides = (
{
pos = (0,350);
},
{
angle = 90;
pos = (158,0);
},
{
angle = 90;
pos = (454,0);
}
);
layerId = "F786B9CF-2625-4E74-A523-7F1B392BEC63";
shapes = (
{
closed = 1;
nodes = (
(544,326,l),
(544,390,ls),
(544,478,o),
(473,612,o),
(310,612,cs),
(171,612,o),
(66,508,o),
(66,368,cs),
(66,344,ls),
(66,192,o),
(166,88,o),
(308,88,cs),
(436,88,o),
(510,152,o),
(538,244,c),
(470,262,l),
(452,206,o),
(410,156,o),
(310,156,cs),
(230,156,o),
(178,196,o),
(158,244,c),
(158,326,l)
);
},
{
closed = 1;
nodes = (
(377,544,o),
(432,508,o),
(454,462,c),
(454,392,l),
(158,392,l),
(158,455,l),
(176,500,o),
(234,544,o),
(310,544,cs)
);
}
);
width = 612;
}
);
unicode = 8494;
},
{
glyphname = servicemark;
lastChange = "2024-08-23 01:43:07 +0000";
layers = (
{
guides = (
{
pos = (0,406);
}
);
layerId = "F786B9CF-2625-4E74-A523-7F1B392BEC63";
shapes = (
{
closed = 1;
nodes = (
(304,412,l),
(358,412,l),
(358,670,l),
(364,670,l),
(381,412,l),
(471,412,l),
(489,670,l),
(495,670,l),
(495,412,l),
(549,412,l),
(549,700,l),
(445,700,l),
(429,448,l),
(423,448,l),
(408,700,l),
(304,700,l)
);
},
{
closed = 1;
nodes = (
(217,604,l),
(271,604,l),
(271,618,ls),
(271,668,o),
(235,706,o),
(169,706,cs),
(113,706,o),
(74,672,o),
(74,624,cs),
(74,564,o),
(114,544,o),
(168,535,cs),
(206,529,o),
(220,517,o),
(220,492,cs),
(220,472,o),
(206,454,o),
(174,454,cs),
(134,454,o),
(116,478,o),
(116,514,cs),
(116,522,l),
(62,522,l),
(62,512,ls),
(62,452,o),
(102,406,o),
(175,406,cs),
(242,406,o),
(274,441,o),
(274,496,cs),
(274,542,o),
(250,571,o),
(188,582,cs),
(139,591,o),
(128,602,o),
(128,624,cs),
(128,644,o),
(145,658,o),
(170,658,cs),
(198,658,o),
(217,642,o),
(217,614,cs)
);
}
);
width = 612;
}
);
unicode = 8480;
},
{
glyphname = at.case;
lastChange = "2024-08-23 01:51:22 +0000";
layers = (
{
layerId = "F786B9CF-2625-4E74-A523-7F1B392BEC63";
shapes = (
{
closed = 1;
nodes = (
(600,0,l),
(600,72,l),
(575,72,ls),
(556,72,o),
(548,83,o),
(548,102,cs),
(548,530,ls),
(548,654,o),
(478,714,o),
(358,714,cs),
(226,714,ls),
(104,714,o),
(28,648,o),
(28,516,cs),
(28,-2,ls),
(28,-136,o),
(102,-200,o),
(226,-200,cs),
(600,-200,l),
(600,-128,l),
(232,-128,ls),
(144,-128,o),
(106,-84,o),
(106,4,cs),
(106,510,ls),
(106,598,o),
(144,642,o),
(232,642,cs),
(350,642,ls),
(434,642,o),
(470,602,o),
(470,522,cs),
(470,442,l),
(458,442,l),
(440,482,o),
(402,510,o),
(340,510,cs),
(238,510,o),
(154,426,o),
(154,256,cs),
(154,240,ls),
(154,74,o),
(234,-14,o),
(342,-14,cs),
(410,-14,o),
(446,18,o),
(458,60,c),
(470,60,l),
(476,22,o),
(505,0,o),
(547,0,c)
);
},
{
closed = 1;
nodes = (
(277,60,o),
(234,124,o),
(234,240,cs),
(234,256,ls),
(234,374,o),
(279,436,o),
(352,436,cs),
(443,436,o),
(470,354,o),
(470,254,cs),
(470,242,ls),
(470,138,o),
(441,60,o),
(350,60,cs)
);
}
);
width = 612;
}
);
},
{
glyphname = paragraph.case;
lastChange = "2024-08-23 01:51:22 +0000";
layers = (
{
guides = (
{
pos = (0,498);
},
{
pos = (0,296);
}
);
layerId = "F786B9CF-2625-4E74-A523-7F1B392BEC63";
shapes = (
{
closed = 1;
nodes = (
(290,700,ls),
(148,700,o),
(72,610,o),
(72,504,cs),
(72,492,ls),
(72,386,o),
(148,296,o),
(290,296,cs),
(302,296,l),
(302,0,l),
(380,0,l),
(380,628,l),
(422,628,l),
(422,0,l),
(500,0,l),
(500,700,l)
);
},
{
closed = 1;
nodes = (
(150,501,l),
(150,574,o),
(198,628,o),
(292,628,cs),
(302,628,l),
(302,368,l),
(292,368,ls),
(198,368,o),
(150,422,o),
(150,495,c)
);
}
);
width = 612;
}
);
},
{
glyphname = section.case;
lastChange = "2024-08-23 01:51:22 +0000";
layers = (
{
layerId = "F786B9CF-2625-4E74-A523-7F1B392BEC63";
shapes = (
{
closed = 1;
nodes = (
(129,394,ls),
(129,300,o),
(199,255,o),
(306,239,cs),
(401,225,o),
(429,200,o),
(429,148,cs),
(429,92,o),
(389,58,o),
(319,58,cs),
(231,58,o),
(183,108,o),
(183,188,cs),
(183,204,l),
(105,204,l),
(105,184,ls),
(105,72,o),
(179,-14,o),
(319,-14,cs),
(441,-14,o),
(507,52,o),
(507,148,cs),
(507,156,ls),
(507,185,o),
(500,211,o),
(487,233,c),
(500,256,o),
(507,284,o),
(507,314,cs),
(507,320,ls),
(507,404,o),
(455,456,o),
(338,473,cs),
(243,487,o),
(207,510,o),
(207,564,cs),
(207,612,o),
(250,642,o),
(307,642,cs),
(372,642,o),
(423,606,o),
(423,546,cs),
(423,520,l),
(501,520,l),
(501,552,ls),
(501,638,o),
(433,714,o),
(307,714,cs),
(201,714,o),
(129,654,o),
(129,566,cs),
(129,560,ls),
(129,527,o),
(137,500,o),
(152,478,c),
(137,456,o),
(129,430,o),
(129,400,c)
);
},
{
closed = 1;
nodes = (
(243,323,o),
(207,346,o),
(207,398,cs),
(207,409,o),
(209,419,o),
(214,428,c),
(240,416,o),
(271,408,o),
(306,403,cs),
(401,389,o),
(429,364,o),
(429,312,cs),
(429,302,o),
(427,293,o),
(423,285,c),
(400,296,o),
(371,304,o),
(338,309,cs)
);
}
);
width = 612;
}
);
},
{
glyphname = copyright.case;
lastChange = "2024-08-23 01:51:22 +0000";
layers = (
{
layerId = "F786B9CF-2625-4E74-A523-7F1B392BEC63";
shapes = (
{
closed = 1;
nodes = (
(266,178,o),
(234,206,o),
(234,258,cs),
(234,438,ls),
(234,492,o),
(264,522,o),
(306,522,cs),
(356,522,o),
(378,488,o),
(378,446,cs),
(378,410,l),
(450,410,l),
(450,442,ls),
(450,528,o),
(398,588,o),
(308,588,cs),
(222,588,o),
(162,534,o),
(162,426,cs),
(162,270,ls),
(162,162,o),
(216,112,o),
(308,112,cs),
(404,112,o),
(450,172,o),
(450,258,cs),
(450,290,l),
(378,290,l),
(378,250,ls),
(378,208,o),
(354,178,o),
(306,178,cs)
);
},
{
closed = 1;
nodes = (
(582,516,ls),
(582,648,o),
(510,714,o),
(390,714,cs),
(222,714,ls),
(102,714,o),
(30,648,o),
(30,516,cs),
(30,184,ls),
(30,52,o),
(102,-14,o),
(222,-14,cs),
(390,-14,ls),
(510,-14,o),
(582,52,o),
(582,184,cs)
);
},
{
closed = 1;
nodes = (
(510,190,ls),
(510,104,o),
(474,58,o),
(390,58,cs),
(222,58,ls),
(138,58,o),
(102,104,o),
(102,190,cs),
(102,510,ls),
(102,596,o),
(138,642,o),
(222,642,cs),
(390,642,ls),
(474,642,o),
(510,596,o),
(510,510,cs)
);
}
);
width = 612;
}
);
},
{
glyphname = registered.case;
lastChange = "2024-08-23 01:51:22 +0000";
layers = (
{
layerId = "F786B9CF-2625-4E74-A523-7F1B392BEC63";
shapes = (
{
closed = 1;
nodes = (
(444,276,ls),
(444,310,o),
(428,330,o),
(396,334,c),
(396,340,l),
(438,360,o),
(456,400,o),
(456,448,cs),
(456,454,ls),
(456,526,o),
(406,582,o),
(314,582,cs),
(162,582,l),
(162,118,l),
(234,118,l),
(234,300,l),
(336,300,ls),
(362,300,o),
(372,284,o),
(372,262,cs),
(372,118,l),
(444,118,l)
);
},
{
closed = 1;
nodes = (
(234,516,l),
(302,516,ls),
(360,516,o),
(384,486,o),
(384,442,cs),
(384,396,o),
(360,366,o),
(302,366,cs),
(234,366,l)
);
},
{
closed = 1;
nodes = (
(582,516,l),
(582,648,o),
(510,714,o),
(390,714,cs),
(222,714,ls),
(102,714,o),
(30,648,o),
(30,516,cs),
(30,184,ls),
(30,52,o),
(102,-14,o),
(222,-14,cs),
(390,-14,ls),
(510,-14,o),
(582,52,o),
(582,184,c)
);
},
{
closed = 1;
nodes = (
(510,190,l),
(510,104,o),
(474,58,o),
(390,58,cs),
(222,58,ls),
(138,58,o),
(102,104,o),
(102,190,cs),
(102,510,ls),
(102,596,o),
(138,642,o),
(222,642,cs),
(390,642,ls),
(474,642,o),
(510,596,o),
(510,510,c)
);
}
);
width = 612;
}
);
},
{
glyphname = dagger.case;
lastChange = "2024-08-23 01:51:22 +0000";
layers = (
{
layerId = "F786B9CF-2625-4E74-A523-7F1B392BEC63";
shapes = (
{
closed = 1;
nodes = (
(96,438,l),
(271,438,l),
(271,0,l),
(343,0,l),
(343,438,l),
(516,438,l),
(516,510,l),
(343,510,l),
(343,700,l),
(271,700,l),
(271,510,l),
(96,510,l)
);
}
);
width = 612;
}
);
},
{
glyphname = daggerdbl.case;
lastChange = "2024-08-23 01:51:22 +0000";
layers = (
{
layerId = "F786B9CF-2625-4E74-A523-7F1B392BEC63";
shapes = (
{
closed = 1;
nodes = (
(96,190,l),
(271,190,l),
(271,0,l),
(343,0,l),
(343,190,l),
(516,190,l),
(516,262,l),
(343,262,l),
(343,438,l),
(516,438,l),
(516,510,l),
(343,510,l),
(343,700,l),
(271,700,l),
(271,510,l),
(96,510,l),
(96,438,l),
(271,438,l),
(271,262,l),
(96,262,l)
);
}
);
width = 612;
}
);
},
{
glyphname = cedi;
lastChange = "2024-08-23 01:43:07 +0000";
layers = (
{
guides = (
{
pos = (0,88);
},
{
pos = (0,612);
}
);
layerId = "F786B9CF-2625-4E74-A523-7F1B392BEC63";
shapes = (
{
closed = 1;
nodes = (
(344,672,l),
(272,672,l),
(272,609,l),
(182,594,o),
(129,521,o),
(129,406,cs),
(129,294,ls),
(129,174,o),
(181,104,o),
(272,90,c),
(272,28,l),
(344,28,l),
(344,91,l),
(438,106,o),
(483,177,o),
(483,262,cs),
(483,280,l),
(405,280,l),
(405,262,ls),
(405,217,o),
(385,178,o),
(344,165,c),
(344,535,l),
(385,521,o),
(405,482,o),
(405,438,cs),
(405,420,l),
(483,420,l),
(483,438,ls),
(483,522,o),
(437,594,o),
(344,609,c)
);
},
{
closed = 1;
nodes = (
(206,408,ls),
(206,475,o),
(228,519,o),
(272,534,c),
(272,165,l),
(228,178,o),
(206,219,o),
(206,292,c)
);
}
);
width = 612;
}
);
unicode = 8373;
},
{
glyphname = cent;
layers = (
{
layerId = "F786B9CF-2625-4E74-A523-7F1B392BEC63";
shapes = (
{
closed = 1;
nodes = (
(351,672,l),
(279,672,l),
(279,609,l),
(157,593,o),
(60,499,o),
(60,354,cs),
(60,342,ls),
(60,195,o),
(157,105,o),
(279,90,c),
(279,28,l),
(351,28,l),
(351,90,l),
(461,103,o),
(534,178,o),
(552,278,c),
(474,296,l),
(465,236,o),
(426,178,o),
(351,165,c),
(351,534,l),
(425,520,o),
(465,464,o),
(472,404,c),
(550,422,l),
(533,521,o),
(458,596,o),
(351,609,c)
);
},
{
closed = 1;
nodes = (
(140,354,ls),
(140,448,o),
(200,518,o),
(279,534,c),
(279,165,l),
(199,180,o),
(140,244,o),
(140,342,c)
);
}
);
width = 612;
}
);
unicode = 162;
},
{
glyphname = colonsign;
lastChange = "2024-08-23 01:43:07 +0000";
layers = (
{
associatedMasterId = "F786B9CF-2625-4E74-A523-7F1B392BEC63";
layerId = "60B433FB-7962-4D91-9D7B-25075E58E57A";
name = img;
width = 612;
},
{
guides = (
{
pos = (0,88);
},
{
pos = (0,612);
}
);
layerId = "F786B9CF-2625-4E74-A523-7F1B392BEC63";
shapes = (
{
closed = 1;
nodes = (
(468,296,l),
(459,238,o),
(422,182,o),
(351,166,c),
(422,496,l),
(447,472,o),
(462,438,o),
(466,404,c),
(544,422,l),
(533,489,o),
(495,544,o),
(439,578,c),
(456,657,l),
(386,672,l),
(372,605,l),
(361,607,o),
(349,609,o),
(337,610,c),
(347,657,l),
(277,672,l),
(263,608,l),
(146,588,o),
(54,495,o),
(54,354,cs),
(54,342,ls),
(54,244,o),
(97,172,o),
(161,130,c),
(143,43,l),
(213,28,l),
(228,99,l),
(239,96,o),
(251,93,o),
(262,91,c),
(252,43,l),
(322,28,l),
(335,89,l),
(451,98,o),
(527,175,o),
(546,278,c)
);
},
{
closed = 1;
nodes = (
(134,354,ls),
(134,437,o),
(180,502,o),
(246,527,c),
(180,215,l),
(151,246,o),
(134,289,o),
(134,342,c)
);
},
{
closed = 1;
nodes = (
(321,537,l),
(334,536,o),
(345,535,o),
(356,532,c),
(278,164,l),
(266,166,o),
(254,169,o),
(244,173,c)
);
}
);
width = 612;
}
);
unicode = 8353;
},
{
glyphname = currency;
layers = (
{
layerId = "F786B9CF-2625-4E74-A523-7F1B392BEC63";
shapes = (
{
closed = 1;
nodes = (
(56,295,o),
(73,245,o),
(103,204,c),
(44,145,l),
(101,88,l),
(160,147,l),
(201,117,o),
(251,100,o),
(306,100,cs),
(360,100,o),
(411,117,o),
(452,147,c),
(511,88,l),
(568,145,l),
(509,204,l),
(538,245,o),
(556,295,o),
(556,350,cs),
(556,404,o),
(538,455,o),
(509,496,c),
(568,555,l),
(511,612,l),
(452,553,l),
(411,582,o),
(360,600,o),
(306,600,cs),
(251,600,o),
(201,582,o),
(160,553,c),
(101,612,l),
(44,555,l),
(103,496,l),
(73,455,o),
(56,404,o),
(56,350,cs)
);
},
{
closed = 1;
nodes = (
(134,446,o),
(210,522,o),
(306,522,cs),
(402,522,o),
(478,446,o),
(478,350,cs),
(478,254,o),
(402,178,o),
(306,178,cs),
(210,178,o),
(134,254,o),
(134,350,cs)
);
}
);
width = 612;
}
);
unicode = 164;
},
{
glyphname = dollar;
layers = (
{
guides = (
{
pos = (0,598);
},
{
pos = (0,102);
}
);
layerId = "F786B9CF-2625-4E74-A523-7F1B392BEC63";
shapes = (
{
closed = 1;
nodes = (
(334,672,l),
(262,672,l),
(262,610,l),
(180,602,o),
(108,555,o),
(108,470,cs),
(108,464,ls),
(108,384,o),
(163,340,o),
(262,327,c),
(262,164,l),
(204,177,o),
(170,216,o),
(170,280,cs),
(170,292,l),
(94,292,l),
(94,268,ls),
(94,192,o),
(146,109,o),
(262,91,c),
(262,28,l),
(334,28,l),
(334,89,l),
(436,96,o),
(504,153,o),
(504,242,cs),
(504,248,ls),
(504,330,o),
(444,378,o),
(334,391,c),
(334,534,l),
(380,522,o),
(412,490,o),
(412,446,cs),
(412,434,l),
(488,434,l),
(488,452,ls),
(488,526,o),
(428,592,o),
(334,608,c)
);
},
{
closed = 1;
nodes = (
(426,197,o),
(391,168,o),
(334,161,c),
(334,319,l),
(398,309,o),
(426,288,o),
(426,242,cs)
);
},
{
closed = 1;
nodes = (
(186,509,o),
(220,531,o),
(262,538,c),
(262,399,l),
(205,409,o),
(186,433,o),
(186,470,cs)
);
}
);
width = 612;
}
);
unicode = 36;
},
{
glyphname = dong;
lastChange = "2024-08-23 01:43:07 +0000";
layers = (
{
layerId = "F786B9CF-2625-4E74-A523-7F1B392BEC63";
shapes = (
{
closed = 1;
nodes = (
(278,496,l),
(386,496,l),
(386,412,l),
(377,412,l),
(362,442,o),
(328,464,o),
(278,464,cs),
(186,464,o),
(110,395,o),
(110,281,cs),
(110,275,ls),
(110,155,o),
(180,90,o),
(274,90,cs),
(322,90,o),
(362,112,o),
(377,146,c),
(386,146,l),
(386,102,l),
(464,102,l),
(464,496,l),
(518,496,l),
(518,562,l),
(464,562,l),
(464,598,l),
(386,598,l),
(386,562,l),
(278,562,l)
);
},
{
closed = 1;
nodes = (
(347,392,o),
(386,347,o),
(386,277,cs),
(386,207,o),
(347,162,o),
(287,162,cs),
(227,162,o),
(188,207,o),
(188,277,cs),
(188,347,o),
(227,392,o),
(287,392,cs)
);
},
{
closed = 1;
nodes = (
(188,0,l),
(464,0,l),
(464,66,l),
(188,66,l)
);
}
);
width = 612;
}
);
unicode = 8363;
},
{
glyphname = euro;
lastChange = "2024-08-23 01:43:07 +0000";
layers = (
{
layerId = "F786B9CF-2625-4E74-A523-7F1B392BEC63";
shapes = (
{
closed = 1;
nodes = (
(36,366,l),
(84,366,l),
(84,330,l),
(36,330,l),
(36,258,l),
(96,258,l),
(129,148,o),
(228,88,o),
(340,88,cs),
(470,88,o),
(556,168,o),
(576,278,c),
(498,296,l),
(488,228,o),
(438,162,o),
(340,162,cs),
(269,162,o),
(210,197,o),
(181,258,c),
(326,258,l),
(326,330,l),
(164,330,l),
(164,366,l),
(326,366,l),
(326,438,l),
(182,438,l),
(210,499,o),
(269,538,o),
(338,538,cs),
(436,538,o),
(488,474,o),
(496,404,c),
(574,422,l),
(556,532,o),
(466,612,o),
(340,612,cs),
(228,612,o),
(129,547,o),
(96,438,c),
(36,438,l)
);
}
);
width = 612;
}
);
unicode = 8364;
},
{
glyphname = guarani;
lastChange = "2024-08-23 01:43:07 +0000";
layers = (
{
guides = (
{
pos = (0,88);
},
{
pos = (0,612);
}
);
layerId = "F786B9CF-2625-4E74-A523-7F1B392BEC63";
shapes = (
{
closed = 1;
nodes = (
(338,672,l),
(266,672,l),
(266,609,l),
(176,594,o),
(123,521,o),
(123,408,cs),
(123,292,ls),
(123,168,o),
(173,99,o),
(266,89,c),
(266,28,l),
(338,28,l),
(338,96,l),
(367,108,o),
(387,131,o),
(394,158,c),
(406,158,l),
(406,102,l),
(478,102,l),
(478,348,l),
(338,348,l),
(338,534,l),
(381,519,o),
(400,477,o),
(400,432,cs),
(400,420,l),
(478,420,l),
(478,432,ls),
(478,521,o),
(431,594,o),
(338,609,c)
);
},
{
closed = 1;
nodes = (
(201,412,ls),
(201,475,o),
(220,520,o),
(266,534,c),
(266,165,l),
(222,180,o),
(201,224,o),
(201,286,c)
);
},
{
closed = 1;
nodes = (
(405,276,l),
(405,270,ls),
(405,213,o),
(378,177,o),
(338,165,c),
(338,276,l)
);
}
);
width = 612;
}
);
unicode = 8370;
},
{
glyphname = lira;
lastChange = "2024-08-23 01:43:07 +0000";
layers = (
{
layerId = "F786B9CF-2625-4E74-A523-7F1B392BEC63";
shapes = (
{
closed = 1;
nodes = (
(110,222,l),
(170,222,l),
(170,174,l),
(110,174,l),
(110,102,l),
(490,102,l),
(490,174,l),
(248,174,l),
(248,222,l),
(337,222,l),
(337,294,l),
(248,294,l),
(248,330,l),
(338,330,l),
(338,402,l),
(248,402,l),
(248,440,ls),
(248,508,o),
(286,540,o),
(336,540,cs),
(386,540,o),
(424,508,o),
(424,440,cs),
(424,416,l),
(502,416,l),
(502,440,ls),
(502,550,o),
(436,612,o),
(336,612,cs),
(232,612,o),
(170,550,o),
(170,440,cs),
(170,402,l),
(110,402,l),
(110,330,l),
(170,330,l),
(170,294,l),
(110,294,l)
);
}
);
width = 612;
}
);
unicode = 8356;
},
{
glyphname = naira;
lastChange = "2024-08-23 01:43:07 +0000";
layers = (
{
guides = (
{
pos = (0,598);
},
{
pos = (0,102);
},
{
pos = (0,438);
},
{
pos = (0,366);
},
{
pos = (0,330);
},
{
pos = (0,258);
}
);
layerId = "F786B9CF-2625-4E74-A523-7F1B392BEC63";
shapes = (
{
closed = 1;
nodes = (
(80,366,l),
(140,366,l),
(140,330,l),
(80,330,l),
(80,258,l),
(140,258,l),
(140,102,l),
(218,102,l),
(218,258,l),
(285,258,l),
(314,102,l),
(470,102,l),
(470,258,l),
(530,258,l),
(530,330,l),
(470,330,l),
(470,366,l),
(530,366,l),
(530,438,l),
(470,438,l),
(470,598,l),
(392,598,l),
(392,438,l),
(325,438,l),
(296,598,l),
(140,598,l),
(140,438,l),
(80,438,l)
);
},
{
closed = 1;
nodes = (
(218,556,l),
(230,556,l),
(252,438,l),
(218,438,l)
);
},
{
closed = 1;
nodes = (
(380,144,l),
(359,258,l),
(392,258,l),
(392,144,l)
);
},
{
closed = 1;
nodes = (
(218,366,l),
(265,366,l),
(272,330,l),
(218,330,l)
);
},
{
closed = 1;
nodes = (
(339,366,l),
(392,366,l),
(392,330,l),
(345,330,l)
);
}
);
width = 612;
}
);
unicode = 8358;
},
{
glyphname = peseta;
lastChange = "2024-08-23 01:43:07 +0000";
layers = (
{
layerId = "F786B9CF-2625-4E74-A523-7F1B392BEC63";
shapes = (
{
closed = 1;
nodes = (
(86,407,l),
(146,407,l),
(146,102,l),
(224,102,l),
(224,288,l),
(318,288,ls),
(404,288,o),
(458,341,o),
(471,407,c),
(534,407,l),
(534,479,l),
(471,479,l),
(460,545,o),
(406,598,o),
(318,598,cs),
(146,598,l),
(146,479,l),
(86,479,l)
);
},
{
closed = 1;
nodes = (
(224,360,l),
(224,407,l),
(390,407,l),
(379,376,o),
(352,360,o),
(312,360,c)
);
},
{
closed = 1;
nodes = (
(224,526,l),
(312,526,ls),
(352,526,o),
(379,509,o),
(390,479,c),
(224,479,l)
);
}
);
width = 612;
}
);
unicode = 8359;
},
{
glyphname = peso;
lastChange = "2024-08-23 01:43:07 +0000";
layers = (
{
layerId = "F786B9CF-2625-4E74-A523-7F1B392BEC63";
shapes = (
{
closed = 1;
nodes = (
(86,407,l),
(146,407,l),
(146,360,l),
(86,360,l),
(86,288,l),
(146,288,l),
(146,102,l),
(224,102,l),
(224,288,l),
(534,288,l),
(534,360,l),
(441,360,l),
(441,366,l),
(456,373,o),
(469,392,o),
(471,407,c),
(534,407,l),
(534,479,l),
(471,479,l),
(460,545,o),
(406,598,o),
(318,598,cs),
(146,598,l),
(146,479,l),
(86,479,l)
);
},
{
closed = 1;
nodes = (
(224,360,l),
(224,407,l),
(390,407,l),
(379,376,o),
(352,360,o),
(312,360,c)
);
},
{
closed = 1;
nodes = (
(224,526,l),
(312,526,ls),
(352,526,o),
(379,509,o),
(390,479,c),
(224,479,l)
);
}
);
width = 612;
}
);
unicode = 8369;
},
{
glyphname = rupeeIndian;
lastChange = "2024-08-23 01:43:07 +0000";
layers = (
{
guides = (
{
pos = (0,102);
},
{
pos = (0,598);
}
);
layerId = "F786B9CF-2625-4E74-A523-7F1B392BEC63";
shapes = (
{
closed = 1;
nodes = (
(128,526,l),
(270,526,ls),
(311,526,o),
(338,511,o),
(349,485,c),
(128,485,l),
(128,413,l),
(349,413,l),
(338,387,o),
(311,372,o),
(270,372,cs),
(128,372,l),
(128,300,l),
(300,300,ls),
(329,300,o),
(338,286,o),
(338,262,cs),
(338,102,l),
(416,102,l),
(416,283,ls),
(416,314,o),
(398,332,o),
(370,336,c),
(370,348,l),
(401,361,o),
(421,385,o),
(429,413,c),
(494,413,l),
(494,485,l),
(432,485,l),
(430,500,o),
(424,511,o),
(415,520,c),
(415,526,l),
(494,526,l),
(494,598,l),
(128,598,l)
);
}
);
width = 612;
}
);
unicode = 8377;
},
{
glyphname = sterling;
layers = (
{
guides = (
{
pos = (0,598);
},
{
pos = (0,612);
},
{
angle = 90;
pos = (490,0);
}
);
layerId = "F786B9CF-2625-4E74-A523-7F1B392BEC63";
shapes = (
{
closed = 1;
nodes = (
(248,440,ls),
(248,508,o),
(286,540,o),
(336,540,cs),
(386,540,o),
(424,508,o),
(424,440,cs),
(424,416,l),
(502,416,l),
(502,440,ls),
(502,550,o),
(436,612,o),
(336,612,cs),
(232,612,o),
(170,550,o),
(170,440,cs),
(170,366,l),
(110,366,l),
(110,294,l),
(170,294,l),
(170,174,l),
(110,174,l),
(110,102,l),
(490,102,l),
(490,174,l),
(248,174,l),
(248,294,l),
(338,294,l),
(338,366,l),
(248,366,l)
);
}
);
width = 612;
}
);
unicode = 163;
},
{
glyphname = yen;
layers = (
{
guides = (
{
pos = (0,598);
},
{
pos = (0,102);
},
{
pos = (0,276);
},
{
angle = 90;
pos = (295,0);
}
);
layerId = "F786B9CF-2625-4E74-A523-7F1B392BEC63";
shapes = (
{
closed = 1;
nodes = (
(132,294,l),
(270,294,l),
(270,258,l),
(132,258,l),
(132,186,l),
(270,186,l),
(270,102,l),
(342,102,l),
(342,186,l),
(480,186,l),
(480,258,l),
(342,258,l),
(342,294,l),
(480,294,l),
(480,366,l),
(394,366,l),
(516,598,l),
(430,598,l),
(312,366,l),
(300,366,l),
(182,598,l),
(96,598,l),
(218,366,l),
(132,366,l)
);
}
);
width = 612;
}
);
unicode = 165;
},
{
glyphname = cedi.case;
lastChange = "2024-08-23 01:51:22 +0000";
layers = (
{
guides = (
{
angle = 90;
pos = (310,0);
}
);
layerId = "F786B9CF-2625-4E74-A523-7F1B392BEC63";
shapes = (
{
closed = 1;
nodes = (
(352,792,l),
(274,792,l),
(274,712,l),
(142,696,o),
(64,593,o),
(64,428,cs),
(64,272,ls),
(64,101,o),
(142,3,o),
(274,-12,c),
(274,-92,l),
(352,-92,l),
(352,-11,l),
(485,7,o),
(556,111,o),
(556,240,cs),
(556,252,l),
(472,252,l),
(472,240,ls),
(472,160,o),
(436,86,o),
(352,68,c),
(352,632,l),
(435,614,o),
(470,539,o),
(472,460,c),
(472,448,l),
(556,448,l),
(556,460,ls),
(556,589,o),
(485,693,o),
(352,711,c)
);
},
{
closed = 1;
nodes = (
(148,422,ls),
(148,535,o),
(190,616,o),
(274,633,c),
(274,67,l),
(190,83,o),
(148,158,o),
(148,278,c)
);
}
);
width = 612;
}
);
},
{
glyphname = colonsign.case;
lastChange = "2024-08-23 01:51:22 +0000";
layers = (
{
guides = (
{
pos = (0,350);
},
{
angle = 90;
pos = (302,0);
}
);
layerId = "F786B9CF-2625-4E74-A523-7F1B392BEC63";
shapes = (
{
closed = 1;
nodes = (
(229,-76,l),
(305,-92,l),
(322,-13,l),
(469,-4,o),
(548,104,o),
(548,240,cs),
(548,252,l),
(464,252,l),
(464,240,ls),
(464,159,o),
(426,84,o),
(339,67,c),
(443,553,l),
(457,525,o),
(463,493,o),
(464,460,c),
(464,448,l),
(548,448,l),
(548,460,ls),
(548,541,o),
(520,612,o),
(466,658,c),
(491,776,l),
(415,792,l),
(395,699,l),
(384,702,o),
(373,706,o),
(361,708,c),
(376,776,l),
(300,792,l),
(283,713,l),
(140,705,o),
(56,600,o),
(56,428,cs),
(56,272,ls),
(56,166,o),
(85,88,o),
(139,41,c),
(114,-76,l),
(190,-92,l),
(210,0,l),
(243,-9,l)
);
},
{
closed = 1;
nodes = (
(140,422,ls),
(140,534,o),
(182,615,o),
(265,632,c),
(162,151,l),
(147,185,o),
(140,227,o),
(140,278,c)
);
},
{
closed = 1;
nodes = (
(345,631,l),
(357,629,o),
(368,625,o),
(378,620,c),
(260,68,l),
(248,71,o),
(237,75,o),
(227,80,c)
);
}
);
width = 612;
}
);
},
{
glyphname = dollar.case;
lastChange = "2024-08-23 01:51:22 +0000";
layers = (
{
guides = (
{
pos = (0,350);
},
{
angle = 90;
pos = (306,0);
},
{
angle = 90;
pos = (320,0);
}
);
layerId = "F786B9CF-2625-4E74-A523-7F1B392BEC63";
shapes = (
{
closed = 1;
nodes = (
(471,462,l),
(555,462,l),
(555,504,ls),
(555,605,o),
(481,694,o),
(352,711,c),
(352,792,l),
(274,792,l),
(274,712,l),
(155,701,o),
(75,628,o),
(75,528,cs),
(75,516,ls),
(75,405,o),
(152,350,o),
(274,327,c),
(274,67,l),
(182,82,o),
(129,142,o),
(129,248,cs),
(129,272,l),
(45,272,l),
(45,242,ls),
(45,109,o),
(124,6,o),
(274,-11,c),
(274,-92,l),
(352,-92,l),
(352,-12,l),
(488,-2,o),
(561,77,o),
(561,190,cs),
(561,202,ls),
(561,307,o),
(494,371,o),
(352,393,c),
(352,631,l),
(419,617,o),
(471,572,o),
(471,498,cs)
);
},
{
closed = 1;
nodes = (
(477,190,ls),
(477,123,o),
(434,75,o),
(352,66,c),
(352,313,l),
(439,294,o),
(477,258,o),
(477,196,c)
);
},
{
closed = 1;
nodes = (
(159,525,ls),
(159,586,o),
(211,624,o),
(274,634,c),
(274,408,l),
(197,428,o),
(159,459,o),
(159,519,c)
);
}
);
width = 612;
}
);
},
{
glyphname = dong.case;
lastChange = "2024-08-23 01:51:22 +0000";
layers = (
{
guides = (
{
angle = 90;
pos = (79,0);
}
);
layerId = "F786B9CF-2625-4E74-A523-7F1B392BEC63";
shapes = (
{
closed = 1;
nodes = (
(272,556,l),
(448,556,l),
(448,424,l),
(436,424,l),
(403,486,o),
(340,510,o),
(272,510,cs),
(144,510,o),
(36,417,o),
(36,256,cs),
(36,240,ls),
(36,77,o),
(142,-14,o),
(274,-14,cs),
(334,-14,o),
(403,8,o),
(436,70,c),
(448,70,l),
(448,0,l),
(532,0,l),
(532,556,l),
(592,556,l),
(592,634,l),
(532,634,l),
(532,700,l),
(448,700,l),
(448,634,l),
(272,634,l)
);
},
{
closed = 1;
nodes = (
(190,64,o),
(120,129,o),
(120,240,cs),
(120,256,ls),
(120,363,o),
(191,432,o),
(285,432,cs),
(377,432,o),
(448,360,o),
(448,254,cs),
(448,242,ls),
(448,132,o),
(378,64,o),
(285,64,cs)
);
},
{
closed = 1;
nodes = (
(120,-128,l),
(532,-128,l),
(532,-50,l),
(120,-50,l)
);
}
);
width = 612;
}
);
},
{
glyphname = euro.case;
lastChange = "2024-08-23 01:51:22 +0000";
layers = (
{
layerId = "F786B9CF-2625-4E74-A523-7F1B392BEC63";
shapes = (
{
closed = 1;
nodes = (
(20,444,l),
(20,366,l),
(80,366,l),
(80,330,l),
(20,330,l),
(20,252,l),
(80,252,l),
(86,78,o),
(177,-14,o),
(326,-14,cs),
(486,-14,o),
(572,98,o),
(572,240,c),
(488,252,l),
(488,240,ls),
(488,148,o),
(440,64,o),
(326,64,cs),
(225,64,o),
(171,132,o),
(165,252,c),
(322,252,l),
(322,330,l),
(164,330,l),
(164,366,l),
(322,366,l),
(322,444,l),
(164,444,l),
(170,560,o),
(224,636,o),
(326,636,cs),
(440,636,o),
(486,552,o),
(488,460,c),
(488,448,l),
(572,460,l),
(572,602,o),
(486,714,o),
(326,714,cs),
(176,714,o),
(85,614,o),
(80,444,c)
);
}
);
width = 612;
}
);
},
{
glyphname = guarani.case;
lastChange = "2024-08-23 01:51:22 +0000";
layers = (
{
guides = (
{
angle = 90;
pos = (305,0);
}
);
layerId = "F786B9CF-2625-4E74-A523-7F1B392BEC63";
shapes = (
{
closed = 1;
nodes = (
(344,792,l),
(266,792,l),
(266,711,l),
(135,695,o),
(59,592,o),
(59,428,cs),
(59,272,ls),
(59,101,o),
(136,2,o),
(266,-12,c),
(266,-92,l),
(344,-92,l),
(344,-9,l),
(399,2,o),
(443,37,o),
(461,84,c),
(473,84,l),
(473,0,l),
(551,0,l),
(551,336,l),
(344,336,l),
(344,632,l),
(430,614,o),
(467,540,o),
(467,460,cs),
(467,448,l),
(551,448,l),
(551,460,ls),
(551,590,o),
(479,694,o),
(344,711,c)
);
},
{
closed = 1;
nodes = (
(143,422,ls),
(143,533,o),
(184,612,o),
(266,631,c),
(266,68,l),
(183,86,o),
(143,160,o),
(143,278,c)
);
},
{
closed = 1;
nodes = (
(467,258,l),
(467,246,ls),
(467,147,o),
(421,83,o),
(344,67,c),
(344,258,l)
);
}
);
width = 612;
}
);
},
{
glyphname = lira.case;
lastChange = "2024-08-23 01:51:22 +0000";
layers = (
{
layerId = "F786B9CF-2625-4E74-A523-7F1B392BEC63";
shapes = (
{
closed = 1;
nodes = (
(60,216,l),
(120,216,l),
(120,78,l),
(60,78,l),
(60,0,l),
(552,0,l),
(552,78,l),
(204,78,l),
(204,216,l),
(323,216,l),
(323,294,l),
(204,294,l),
(204,330,l),
(324,330,l),
(324,408,l),
(204,408,l),
(204,490,ls),
(204,576,o),
(247,636,o),
(332,636,cs),
(425,636,o),
(468,578,o),
(468,490,cs),
(468,436,l),
(552,436,l),
(552,490,ls),
(552,630,o),
(466,714,o),
(332,714,cs),
(204,714,o),
(120,632,o),
(120,490,cs),
(120,408,l),
(60,408,l),
(60,330,l),
(120,330,l),
(120,294,l),
(60,294,l)
);
}
);
width = 612;
}
);
},
{
glyphname = naira.case;
lastChange = "2024-08-23 01:51:22 +0000";
layers = (
{
layerId = "F786B9CF-2625-4E74-A523-7F1B392BEC63";
shapes = (
{
closed = 1;
nodes = (
(255,700,l),
(85,700,l),
(85,444,l),
(13,444,l),
(13,366,l),
(85,366,l),
(85,330,l),
(13,330,l),
(13,252,l),
(85,252,l),
(85,0,l),
(169,0,l),
(169,252,l),
(290,252,l),
(357,0,l),
(527,0,l),
(527,252,l),
(599,252,l),
(599,330,l),
(527,330,l),
(527,366,l),
(599,366,l),
(599,444,l),
(527,444,l),
(527,700,l),
(443,700,l),
(443,444,l),
(323,444,l)
);
},
{
closed = 1;
nodes = (
(169,664,l),
(181,664,l),
(239,444,l),
(169,444,l)
);
},
{
closed = 1;
nodes = (
(431,36,l),
(373,252,l),
(443,252,l),
(443,36,l)
);
},
{
closed = 1;
nodes = (
(169,366,l),
(260,366,l),
(269,330,l),
(169,330,l)
);
},
{
closed = 1;
nodes = (
(343,366,l),
(443,366,l),
(443,330,l),
(353,330,l)
);
}
);
width = 612;
}
);
},
{
glyphname = peseta.case;
lastChange = "2024-08-23 01:51:22 +0000";
layers = (
{
layerId = "F786B9CF-2625-4E74-A523-7F1B392BEC63";
shapes = (
{
closed = 1;
nodes = (
(26,455,l),
(86,455,l),
(86,0,l),
(170,0,l),
(170,288,l),
(312,288,ls),
(442,288,o),
(513,364,o),
(524,455,c),
(586,455,l),
(586,533,l),
(525,533,l),
(515,624,o),
(444,700,o),
(312,700,cs),
(86,700,l),
(86,533,l),
(26,533,l)
);
},
{
closed = 1;
nodes = (
(170,366,l),
(170,455,l),
(439,455,l),
(428,395,o),
(383,366,o),
(302,366,c)
);
},
{
closed = 1;
nodes = (
(170,622,l),
(302,622,ls),
(382,622,o),
(427,587,o),
(439,533,c),
(170,533,l)
);
}
);
width = 612;
}
);
},
{
glyphname = peso.case;
lastChange = "2024-08-23 01:51:22 +0000";
layers = (
{
layerId = "F786B9CF-2625-4E74-A523-7F1B392BEC63";
shapes = (
{
closed = 1;
nodes = (
(26,455,l),
(86,455,l),
(86,366,l),
(26,366,l),
(26,288,l),
(86,288,l),
(86,0,l),
(170,0,l),
(170,288,l),
(586,288,l),
(586,366,l),
(478,366,l),
(478,378,l),
(504,396,o),
(520,422,o),
(524,455,c),
(586,455,l),
(586,533,l),
(525,533,l),
(515,624,o),
(444,700,o),
(312,700,cs),
(86,700,l),
(86,533,l),
(26,533,l)
);
},
{
closed = 1;
nodes = (
(170,366,l),
(170,455,l),
(439,455,l),
(429,397,o),
(385,367,o),
(309,366,c)
);
},
{
closed = 1;
nodes = (
(170,622,l),
(302,622,ls),
(382,622,o),
(427,587,o),
(439,533,c),
(170,533,l)
);
}
);
width = 612;
}
);
},
{
glyphname = rupeeIndian.case;
lastChange = "2024-08-23 01:51:22 +0000";
layers = (
{
layerId = "F786B9CF-2625-4E74-A523-7F1B392BEC63";
shapes = (
{
closed = 1;
nodes = (
(56,455,l),
(409,455,l),
(398,397,o),
(352,366,o),
(272,366,cs),
(56,366,l),
(56,288,l),
(334,288,ls),
(374,288,o),
(388,268,o),
(388,234,cs),
(388,0,l),
(472,0,l),
(472,252,ls),
(472,298,o),
(448,324,o),
(408,330,c),
(408,342,l),
(458,365,o),
(486,410,o),
(494,455,c),
(568,455,l),
(568,533,l),
(495,533,l),
(491,566,o),
(475,592,o),
(449,610,c),
(449,622,l),
(568,622,l),
(568,700,l),
(56,700,l),
(56,622,l),
(272,622,ls),
(352,622,o),
(397,587,o),
(409,533,c),
(56,533,l)
);
}
);
width = 612;
}
);
},
{
glyphname = sterling.case;
lastChange = "2024-08-23 01:51:22 +0000";
layers = (
{
layerId = "F786B9CF-2625-4E74-A523-7F1B392BEC63";
shapes = (
{
closed = 1;
nodes = (
(60,366,l),
(60,288,l),
(120,288,l),
(120,78,l),
(60,78,l),
(60,0,l),
(552,0,l),
(552,78,l),
(204,78,l),
(204,288,l),
(324,288,l),
(324,366,l),
(204,366,l),
(204,490,ls),
(204,576,o),
(247,636,o),
(332,636,cs),
(425,636,o),
(468,578,o),
(468,490,cs),
(468,436,l),
(552,436,l),
(552,490,ls),
(552,630,o),
(466,714,o),
(332,714,cs),
(204,714,o),
(120,632,o),
(120,490,cs),
(120,366,l)
);
}
);
width = 612;
}
);
},
{
glyphname = yen.case;
lastChange = "2024-08-23 01:51:22 +0000";
layers = (
{
guides = (
{
angle = 90;
pos = (306,0);
}
);
layerId = "F786B9CF-2625-4E74-A523-7F1B392BEC63";
shapes = (
{
closed = 1;
nodes = (
(81,318,l),
(81,240,l),
(264,240,l),
(264,204,l),
(81,204,l),
(81,126,l),
(264,126,l),
(264,0,l),
(348,0,l),
(348,126,l),
(531,126,l),
(531,204,l),
(348,204,l),
(348,240,l),
(531,240,l),
(531,318,l),
(400,318,l),
(585,700,l),
(491,700,l),
(312,318,l),
(300,318,l),
(121,700,l),
(27,700,l),
(211,318,l)
);
}
);
width = 612;
}
);
},
{
glyphname = bulletoperator;
lastChange = "2024-08-23 01:43:07 +0000";
layers = (
{
layerId = "F786B9CF-2625-4E74-A523-7F1B392BEC63";
shapes = (
{
closed = 1;
nodes = (
(212,299,o),
(255,256,o),
(306,256,cs),
(357,256,o),
(400,299,o),
(400,350,cs),
(400,401,o),
(357,444,o),
(306,444,cs),
(255,444,o),
(212,401,o),
(212,350,cs)
);
}
);
width = 612;
}
);
unicode = 8729;
},
{
glyphname = divisionslash;
lastChange = "2024-08-23 01:43:07 +0000";
layers = (
{
guides = (
{
pos = (0,806);
},
{
pos = (0,-106);
}
);
layerId = "F786B9CF-2625-4E74-A523-7F1B392BEC63";
shapes = (
{
closed = 1;
nodes = (
(61,-75,l),
(128,-106,l),
(551,775,l),
(485,806,l)
);
}
);
width = 612;
}
);
unicode = 8725;
},
{
glyphname = plus;
layers = (
{
layerId = "F786B9CF-2625-4E74-A523-7F1B392BEC63";
shapes = (
{
closed = 1;
nodes = (
(97,314,l),
(270,314,l),
(270,141,l),
(342,141,l),
(342,314,l),
(515,314,l),
(515,386,l),
(342,386,l),
(342,559,l),
(270,559,l),
(270,386,l),
(97,386,l)
);
}
);
width = 612;
}
);
unicode = 43;
},
{
glyphname = minus;
layers = (
{
layerId = "F786B9CF-2625-4E74-A523-7F1B392BEC63";
shapes = (
{
closed = 1;
nodes = (
(97,314,l),
(515,314,l),
(515,386,l),
(97,386,l)
);
}
);
width = 612;
}
);
unicode = 8722;
},
{
glyphname = multiply;
layers = (
{
layerId = "F786B9CF-2625-4E74-A523-7F1B392BEC63";
shapes = (
{
closed = 1;
nodes = (
(504,203,l),
(357,350,l),
(504,497,l),
(453,548,l),
(306,401,l),
(159,548,l),
(108,497,l),
(255,350,l),
(108,203,l),
(159,152,l),
(306,299,l),
(453,152,l)
);
}
);
width = 612;
}
);
unicode = 215;
},
{
glyphname = divide;
layers = (
{
layerId = "F786B9CF-2625-4E74-A523-7F1B392BEC63";
shapes = (
{
closed = 1;
nodes = (
(97,314,l),
(515,314,l),
(515,386,l),
(97,386,l)
);
},
{
closed = 1;
nodes = (
(236,146,o),
(268,114,o),
(306,114,cs),
(344,114,o),
(376,146,o),
(376,184,cs),
(376,222,o),
(344,254,o),
(306,254,cs),
(268,254,o),
(236,222,o),
(236,184,cs)
);
},
{
closed = 1;
nodes = (
(236,478,o),
(268,446,o),
(306,446,cs),
(344,446,o),
(376,478,o),
(376,516,cs),
(376,554,o),
(344,586,o),
(306,586,cs),
(268,586,o),
(236,554,o),
(236,516,cs)
);
}
);
width = 612;
}
);
unicode = 247;
},
{
glyphname = equal;
layers = (
{
layerId = "F786B9CF-2625-4E74-A523-7F1B392BEC63";
shapes = (
{
closed = 1;
nodes = (
(97,386,l),
(515,386,l),
(515,458,l),
(97,458,l)
);
},
{
closed = 1;
nodes = (
(97,242,l),
(515,242,l),
(515,314,l),
(97,314,l)
);
}
);
width = 612;
}
);
unicode = 61;
},
{
glyphname = notequal;
layers = (
{
guides = (
{
pos = (0,350);
},
{
angle = 90;
pos = (306,0);
}
);
layerId = "F786B9CF-2625-4E74-A523-7F1B392BEC63";
shapes = (
{
closed = 1;
nodes = (
(97,386,l),
(279,386,l),
(255,314,l),
(97,314,l),
(97,242,l),
(232,242,l),
(201,148,l),
(272,126,l),
(310,242,l),
(515,242,l),
(515,314,l),
(333,314,l),
(357,386,l),
(515,386,l),
(515,458,l),
(380,458,l),
(408,542,l),
(338,564,l),
(303,458,l),
(97,458,l)
);
}
);
width = 612;
}
);
unicode = 8800;
},
{
glyphname = greater;
layers = (
{
layerId = "F786B9CF-2625-4E74-A523-7F1B392BEC63";
shapes = (
{
closed = 1;
nodes = (
(515,274,l),
(515,426,l),
(97,570,l),
(97,486,l),
(485,356,l),
(485,344,l),
(97,214,l),
(97,130,l)
);
}
);
width = 612;
}
);
unicode = 62;
},
{
glyphname = less;
layers = (
{
layerId = "F786B9CF-2625-4E74-A523-7F1B392BEC63";
shapes = (
{
closed = 1;
nodes = (
(515,130,l),
(515,214,l),
(127,344,l),
(127,356,l),
(515,486,l),
(515,570,l),
(97,426,l),
(97,274,l)
);
}
);
width = 612;
}
);
unicode = 60;
},
{
glyphname = greaterequal;
layers = (
{
layerId = "F786B9CF-2625-4E74-A523-7F1B392BEC63";
shapes = (
{
closed = 1;
nodes = (
(515,274,l),
(515,426,l),
(97,570,l),
(97,486,l),
(485,356,l),
(485,344,l),
(97,214,l),
(97,130,l)
);
},
{
closed = 1;
nodes = (
(515,72,l),
(97,72,l),
(97,0,l),
(515,0,l)
);
}
);
width = 612;
}
);
unicode = 8805;
},
{
glyphname = lessequal;
layers = (
{
layerId = "F786B9CF-2625-4E74-A523-7F1B392BEC63";
shapes = (
{
closed = 1;
nodes = (
(515,130,l),
(515,214,l),
(127,344,l),
(127,356,l),
(515,486,l),
(515,570,l),
(97,426,l),
(97,274,l)
);
},
{
closed = 1;
nodes = (
(97,0,l),
(515,0,l),
(515,72,l),
(97,72,l)
);
}
);
width = 612;
}
);
unicode = 8804;
},
{
glyphname = plusminus;
layers = (
{
layerId = "F786B9CF-2625-4E74-A523-7F1B392BEC63";
shapes = (
{
closed = 1;
nodes = (
(97,314,l),
(270,314,l),
(270,141,l),
(342,141,l),
(342,314,l),
(515,314,l),
(515,386,l),
(342,386,l),
(342,559,l),
(270,559,l),
(270,386,l),
(97,386,l)
);
},
{
closed = 1;
nodes = (
(97,0,l),
(515,0,l),
(515,72,l),
(97,72,l)
);
}
);
width = 612;
}
);
unicode = 177;
},
{
glyphname = approxequal;
layers = (
{
guides = (
{
angle = 90;
pos = (515,0);
},
{
angle = 90;
pos = (97,0);
}
);
layerId = "F786B9CF-2625-4E74-A523-7F1B392BEC63";
shapes = (
{
closed = 1;
nodes = (
(324,300,o),
(305,331,o),
(254,331,cs),
(226,331,o),
(206,320,o),
(186,304,cs),
(85,227,l),
(124,177,l),
(227,253,ls),
(237,261,o),
(243,264,o),
(250,264,cs),
(266,264,o),
(270,248,o),
(273,236,cs),
(287,190,o),
(305,160,o),
(357,160,cs),
(388,160,o),
(407,173,o),
(425,187,cs),
(527,265,l),
(488,315,l),
(381,236,ls),
(373,230,o),
(368,227,o),
(361,227,cs),
(347,227,o),
(341,241,o),
(338,252,cs)
);
},
{
closed = 1;
nodes = (
(324,471,o),
(305,502,o),
(254,502,cs),
(226,502,o),
(206,491,o),
(186,475,cs),
(85,398,l),
(124,348,l),
(227,424,ls),
(237,432,o),
(243,435,o),
(250,435,cs),
(266,435,o),
(270,419,o),
(273,407,cs),
(287,361,o),
(305,331,o),
(357,331,cs),
(388,331,o),
(407,344,o),
(425,358,cs),
(527,436,l),
(488,486,l),
(381,407,ls),
(373,401,o),
(368,398,o),
(361,398,cs),
(347,398,o),
(341,412,o),
(338,423,cs)
);
}
);
width = 612;
}
);
unicode = 8776;
},
{
glyphname = asciitilde;
layers = (
{
guides = (
{
pos = (0,678);
},
{
pos = (0,529);
},
{
pos = (0,350);
},
{
angle = 90;
pos = (283,0);
}
);
layerId = "F786B9CF-2625-4E74-A523-7F1B392BEC63";
shapes = (
{
closed = 1;
nodes = (
(324,364,o),
(305,395,o),
(254,395,cs),
(226,395,o),
(206,384,o),
(186,368,c),
(63,274,l),
(101,224,l),
(227,317,ls),
(237,325,o),
(243,328,o),
(250,328,cs),
(266,328,o),
(270,312,o),
(273,300,cs),
(287,254,o),
(305,224,o),
(357,224,cs),
(388,224,o),
(407,237,o),
(425,251,cs),
(548,345,l),
(510,395,l),
(381,300,ls),
(373,294,o),
(368,291,o),
(361,291,cs),
(347,291,o),
(341,305,o),
(338,316,cs)
);
}
);
width = 612;
}
);
unicode = 126;
},
{
glyphname = logicalnot;
layers = (
{
layerId = "F786B9CF-2625-4E74-A523-7F1B392BEC63";
shapes = (
{
closed = 1;
nodes = (
(97,314,l),
(443,314,l),
(443,230,l),
(515,230,l),
(515,386,l),
(97,386,l)
);
}
);
width = 612;
}
);
unicode = 172;
},
{
glyphname = asciicircum;
layers = (
{
guides = (
{
pos = (0,350);
}
);
layerId = "F786B9CF-2625-4E74-A523-7F1B392BEC63";
shapes = (
{
closed = 1;
nodes = (
(382,700,l),
(230,700,l),
(72,424,l),
(164,424,l),
(300,670,l),
(312,670,l),
(448,424,l),
(540,424,l)
);
}
);
width = 612;
}
);
unicode = 94;
},
{
glyphname = infinity;
layers = (
{
layerId = "F786B9CF-2625-4E74-A523-7F1B392BEC63";
shapes = (
{
closed = 1;
nodes = (
(52,270,o),
(118,205,o),
(194,205,cs),
(240,205,o),
(277,228,o),
(297,259,c),
(315,259,l),
(335,228,o),
(372,205,o),
(418,205,cs),
(494,205,o),
(560,270,o),
(560,350,cs),
(560,430,o),
(494,495,o),
(418,495,cs),
(372,495,o),
(335,472,o),
(315,441,c),
(297,441,l),
(277,472,o),
(240,495,o),
(194,495,cs),
(118,495,o),
(52,430,o),
(52,350,cs)
);
},
{
closed = 1;
nodes = (
(270,310,o),
(237,277,o),
(197,277,cs),
(157,277,o),
(124,310,o),
(124,350,cs),
(124,390,o),
(157,423,o),
(197,423,cs),
(237,423,o),
(270,390,o),
(270,350,cs)
);
},
{
closed = 1;
nodes = (
(342,390,o),
(375,423,o),
(415,423,cs),
(455,423,o),
(488,390,o),
(488,350,cs),
(488,310,o),
(455,277,o),
(415,277,cs),
(375,277,o),
(342,310,o),
(342,350,cs)
);
}
);
width = 612;
}
);
unicode = 8734;
},
